<ttFont>
    <TTGlyph name=".notdef" xMin="68" yMin="0" xMax="612" yMax="1365">
      <contour>
        <pt x="68" y="0" on="1"/>
        <pt x="68" y="1365" on="1"/>
        <pt x="612" y="1365" on="1"/>
        <pt x="612" y="0" on="1"/>
      </contour>
      <contour>
        <pt x="136" y="68" on="1"/>
        <pt x="544" y="68" on="1"/>
        <pt x="544" y="1297" on="1"/>
        <pt x="136" y="1297" on="1"/>
      </contour>
    </TTGlyph>
    <TTGlyph name="A" xMin="0" yMin="0" xMax="1276" yMax="1511">
      <contour>
        <pt x="1276" y="92" on="1"/>
        <pt x="1235" y="87" on="0"/>
        <pt x="1159" y="67" on="0"/>
        <pt x="1093" y="41" on="0"/>
        <pt x="1041" y="13" on="0"/>
        <pt x="1024" y="0" on="1"/>
        <pt x="1008" y="61" on="0"/>
        <pt x="936" y="303" on="0"/>
        <pt x="879" y="486" on="1"/>
        <pt x="825" y="491" on="0"/>
        <pt x="718" y="497" on="0"/>
        <pt x="662" y="497" on="1"/>
        <pt x="646" y="497" on="0"/>
        <pt x="620" y="496" on="0"/>
        <pt x="610" y="496" on="1"/>
        <pt x="437" y="496" on="0"/>
        <pt x="328" y="478" on="1"/>
        <pt x="318" y="476" on="1"/>
        <pt x="262" y="318" on="0"/>
        <pt x="204" y="132" on="0"/>
        <pt x="204" y="101" on="1"/>
        <pt x="204" y="88" on="1"/>
        <pt x="63" y="60" on="0"/>
        <pt x="0" y="0" on="1"/>
        <pt x="69" y="139" on="0"/>
        <pt x="223" y="492" on="0"/>
        <pt x="310" y="712" on="1"/>
        <pt x="467" y="1112" on="0"/>
        <pt x="505" y="1384" on="1"/>
        <pt x="509" y="1424" on="1"/>
        <pt x="631" y="1437" on="0"/>
        <pt x="761" y="1511" on="1"/>
        <pt x="792" y="1214" on="0"/>
        <pt x="964" y="753" on="1"/>
        <pt x="1149" y="255" on="0"/>
      </contour>
      <contour>
        <pt x="848" y="586" on="1"/>
        <pt x="805" y="723" on="1"/>
        <pt x="737" y="940" on="0"/>
        <pt x="642" y="1185" on="0"/>
        <pt x="616" y="1216" on="1"/>
        <pt x="563" y="1138" on="0"/>
        <pt x="402" y="706" on="1"/>
        <pt x="358" y="588" on="1"/>
        <pt x="409" y="583" on="0"/>
        <pt x="522" y="577" on="0"/>
        <pt x="585" y="577" on="1"/>
        <pt x="606" y="577" on="1"/>
        <pt x="755" y="577" on="0"/>
      </contour>
    </TTGlyph>
    <TTGlyph name="AE" xMin="0" yMin="0" xMax="1698" yMax="1511">
      <contour>
        <pt x="1210" y="42" on="1"/>
        <pt x="1039" y="42" on="0"/>
        <pt x="840" y="0" on="1"/>
        <pt x="862" y="147" on="0"/>
        <pt x="883" y="480" on="0"/>
        <pt x="883" y="670" on="1"/>
        <pt x="883" y="720" on="1"/>
        <pt x="858" y="722" on="0"/>
        <pt x="812" y="724" on="0"/>
        <pt x="792" y="724" on="1"/>
        <pt x="755" y="724" on="0"/>
        <pt x="695" y="722" on="0"/>
        <pt x="635" y="719" on="0"/>
        <pt x="567" y="711" on="0"/>
        <pt x="514" y="702" on="1"/>
        <pt x="204" y="218" on="0"/>
        <pt x="204" y="101" on="1"/>
        <pt x="204" y="88" on="1"/>
        <pt x="58" y="58" on="0"/>
        <pt x="0" y="0" on="1"/>
        <pt x="10" y="19" on="0"/>
        <pt x="222" y="373" on="0"/>
        <pt x="422" y="708" on="1"/>
        <pt x="832" y="1400" on="1"/>
        <pt x="841" y="1416" on="1"/>
        <pt x="840" y="1422" on="1"/>
        <pt x="901" y="1429" on="0"/>
        <pt x="1022" y="1472" on="0"/>
        <pt x="1085" y="1507" on="1"/>
        <pt x="1092" y="1511" on="1"/>
        <pt x="1153" y="1487" on="0"/>
        <pt x="1275" y="1460" on="0"/>
        <pt x="1352" y="1460" on="1"/>
        <pt x="1483" y="1460" on="0"/>
        <pt x="1638" y="1511" on="1"/>
        <pt x="1566" y="1379" on="0"/>
        <pt x="1559" y="1259" on="1"/>
        <pt x="1373" y="1269" on="0"/>
        <pt x="1248" y="1360" on="1"/>
        <pt x="1188" y="1406" on="0"/>
        <pt x="1109" y="1471" on="0"/>
        <pt x="1089" y="1491" on="1"/>
        <pt x="1047" y="1216" on="0"/>
        <pt x="1047" y="830" on="1"/>
        <pt x="1047" y="812" on="1"/>
        <pt x="1323" y="826" on="0"/>
        <pt x="1519" y="925" on="1"/>
        <pt x="1499" y="887" on="0"/>
        <pt x="1460" y="756" on="0"/>
        <pt x="1452" y="673" on="1"/>
        <pt x="1425" y="681" on="1"/>
        <pt x="1311" y="715" on="0"/>
        <pt x="1088" y="715" on="1"/>
        <pt x="1048" y="715" on="1"/>
        <pt x="1052" y="305" on="0"/>
        <pt x="1081" y="145" on="1"/>
        <pt x="1111" y="137" on="0"/>
        <pt x="1128" y="137" on="1"/>
        <pt x="1472" y="137" on="0"/>
        <pt x="1698" y="252" on="1"/>
        <pt x="1680" y="217" on="0"/>
        <pt x="1641" y="98" on="0"/>
        <pt x="1631" y="0" on="1"/>
        <pt x="1605" y="8" on="1"/>
        <pt x="1496" y="42" on="0"/>
      </contour>
      <contour>
        <pt x="881" y="807" on="1"/>
        <pt x="879" y="933" on="0"/>
        <pt x="871" y="1136" on="0"/>
        <pt x="865" y="1214" on="1"/>
        <pt x="765" y="1144" on="0"/>
        <pt x="590" y="842" on="1"/>
        <pt x="574" y="814" on="1"/>
        <pt x="625" y="807" on="0"/>
        <pt x="683" y="803" on="1"/>
        <pt x="704" y="803" on="1"/>
        <pt x="755" y="803" on="0"/>
        <pt x="843" y="805" on="0"/>
      </contour>
    </TTGlyph>
    <TTGlyph name="Aacute" xMin="0" yMin="0" xMax="1276" yMax="1898">
      <component glyphName="A" x="0" y="0" flags="0x204"/>
      <component glyphName="acute" x="352" y="386" flags="0x4"/>
    </TTGlyph>
    <TTGlyph name="Abreve" xMin="0" yMin="0" xMax="1276" yMax="1877">
      <component glyphName="A" x="0" y="0" flags="0x204"/>
      <component glyphName="breve" x="212" y="364" flags="0x4"/>
    </TTGlyph>
    <TTGlyph name="Acircumflex" xMin="0" yMin="0" xMax="1276" yMax="1895">
      <component glyphName="A" x="0" y="0" flags="0x204"/>
      <component glyphName="circumflex" x="193" y="386" flags="0x4"/>
    </TTGlyph>
    <TTGlyph name="Adieresis" xMin="0" yMin="0" xMax="1276" yMax="1909">
      <component glyphName="A" x="0" y="0" flags="0x204"/>
      <component glyphName="dieresis" x="123" y="358" flags="0x4"/>
    </TTGlyph>
    <TTGlyph name="Agrave" xMin="0" yMin="0" xMax="1276" yMax="1898">
      <component glyphName="A" x="0" y="0" flags="0x204"/>
      <component glyphName="grave" x="213" y="386" flags="0x4"/>
    </TTGlyph>
    <TTGlyph name="Amacron" xMin="0" yMin="0" xMax="1276" yMax="1773">
      <component glyphName="A" x="0" y="0" flags="0x204"/>
      <component glyphName="macron" x="180" y="259" flags="0x4"/>
    </TTGlyph>
    <TTGlyph name="Aogonek" xMin="0" yMin="-452" xMax="1276" yMax="1511">
      <contour>
        <pt x="848" y="586" on="1"/>
        <pt x="805" y="723" on="1"/>
        <pt x="737" y="940" on="0"/>
        <pt x="642" y="1185" on="0"/>
        <pt x="616" y="1216" on="1"/>
        <pt x="565" y="1141" on="0"/>
        <pt x="402" y="706" on="1"/>
        <pt x="358" y="588" on="1"/>
        <pt x="409" y="583" on="0"/>
        <pt x="522" y="577" on="0"/>
        <pt x="585" y="577" on="1"/>
        <pt x="606" y="577" on="1"/>
        <pt x="755" y="577" on="0"/>
      </contour>
      <contour>
        <pt x="1276" y="92" on="1"/>
        <pt x="1210" y="84" on="0"/>
        <pt x="1101" y="45" on="0"/>
        <pt x="1066" y="26" on="1"/>
        <pt x="995" y="-78" on="0"/>
        <pt x="994" y="-170" on="1"/>
        <pt x="994" y="-287" on="0"/>
        <pt x="1177" y="-452" on="1"/>
        <pt x="1170" y="-449" on="1"/>
        <pt x="1045" y="-380" on="0"/>
        <pt x="925" y="-373" on="1"/>
        <pt x="911" y="-368" on="1"/>
        <pt x="816" y="-311" on="0"/>
        <pt x="816" y="-188" on="1"/>
        <pt x="816" y="-28" on="0"/>
        <pt x="1017" y="28" on="1"/>
        <pt x="999" y="94" on="0"/>
        <pt x="930" y="321" on="0"/>
        <pt x="879" y="486" on="1"/>
        <pt x="825" y="491" on="0"/>
        <pt x="718" y="497" on="0"/>
        <pt x="662" y="497" on="1"/>
        <pt x="646" y="497" on="0"/>
        <pt x="620" y="496" on="0"/>
        <pt x="610" y="496" on="1"/>
        <pt x="437" y="496" on="0"/>
        <pt x="328" y="478" on="1"/>
        <pt x="318" y="476" on="1"/>
        <pt x="262" y="318" on="0"/>
        <pt x="204" y="132" on="0"/>
        <pt x="204" y="101" on="1"/>
        <pt x="204" y="88" on="1"/>
        <pt x="63" y="60" on="0"/>
        <pt x="0" y="0" on="1"/>
        <pt x="69" y="138" on="0"/>
        <pt x="223" y="492" on="0"/>
        <pt x="310" y="712" on="1"/>
        <pt x="389" y="912" on="0"/>
        <pt x="485" y="1246" on="0"/>
        <pt x="505" y="1384" on="1"/>
        <pt x="509" y="1424" on="1"/>
        <pt x="631" y="1437" on="0"/>
        <pt x="761" y="1511" on="1"/>
        <pt x="792" y="1214" on="0"/>
        <pt x="964" y="753" on="1"/>
        <pt x="1149" y="255" on="0"/>
      </contour>
    </TTGlyph>
    <TTGlyph name="Aring" xMin="0" yMin="0" xMax="1276" yMax="1951">
      <component glyphName="A" x="0" y="0" flags="0x204"/>
      <component glyphName="ring" x="259" y="352" flags="0x4"/>
    </TTGlyph>
    <TTGlyph name="Atilde" xMin="0" yMin="0" xMax="1276" yMax="1848">
      <component glyphName="A" x="0" y="0" flags="0x204"/>
      <component glyphName="tilde" x="144" y="337" flags="0x4"/>
    </TTGlyph>
    <TTGlyph name="B" xMin="90" yMin="-5" xMax="1235" yMax="1513">
      <contour>
        <pt x="198" y="0" on="1"/>
        <pt x="220" y="153" on="0"/>
        <pt x="242" y="425" on="0"/>
        <pt x="242" y="546" on="1"/>
        <pt x="242" y="693" on="0"/>
        <pt x="219" y="949" on="0"/>
        <pt x="204" y="1056" on="1"/>
        <pt x="198" y="1090" on="1"/>
        <pt x="259" y="1097" on="0"/>
        <pt x="380" y="1140" on="0"/>
        <pt x="443" y="1175" on="1"/>
        <pt x="450" y="1179" on="1"/>
        <pt x="427" y="1027" on="0"/>
        <pt x="404" y="786" on="0"/>
        <pt x="404" y="692" on="1"/>
        <pt x="404" y="679" on="0"/>
        <pt x="404" y="655" on="0"/>
        <pt x="405" y="644" on="1"/>
        <pt x="415" y="434" on="0"/>
        <pt x="430" y="184" on="0"/>
        <pt x="437" y="140" on="1"/>
        <pt x="483" y="117" on="1"/>
        <pt x="582" y="91" on="0"/>
        <pt x="667" y="91" on="1"/>
        <pt x="756" y="91" on="0"/>
        <pt x="908" y="145" on="0"/>
        <pt x="972" y="198" on="1"/>
        <pt x="1011" y="255" on="0"/>
        <pt x="1048" y="364" on="0"/>
        <pt x="1048" y="418" on="1"/>
        <pt x="1048" y="531" on="0"/>
        <pt x="932" y="681" on="0"/>
        <pt x="822" y="705" on="1"/>
        <pt x="797" y="710" on="0"/>
        <pt x="773" y="710" on="1"/>
        <pt x="653" y="710" on="0"/>
        <pt x="450" y="606" on="1"/>
        <pt x="597" y="861" on="1"/>
        <pt x="804" y="955" on="0"/>
        <pt x="804" y="1161" on="1"/>
        <pt x="804" y="1233" on="0"/>
        <pt x="697" y="1327" on="0"/>
        <pt x="591" y="1327" on="1"/>
        <pt x="541" y="1326" on="0"/>
        <pt x="419" y="1303" on="0"/>
        <pt x="288" y="1257" on="0"/>
        <pt x="153" y="1187" on="0"/>
        <pt x="90" y="1139" on="1"/>
        <pt x="156" y="1401" on="1"/>
        <pt x="228" y="1430" on="0"/>
        <pt x="308" y="1461" on="0"/>
        <pt x="319" y="1465" on="1"/>
        <pt x="391" y="1488" on="0"/>
        <pt x="533" y="1513" on="0"/>
        <pt x="602" y="1513" on="1"/>
        <pt x="672" y="1513" on="0"/>
        <pt x="776" y="1487" on="0"/>
        <pt x="811" y="1464" on="1"/>
        <pt x="886" y="1413" on="0"/>
        <pt x="960" y="1287" on="0"/>
        <pt x="960" y="1215" on="1"/>
        <pt x="959" y="1159" on="0"/>
        <pt x="914" y="1056" on="0"/>
        <pt x="844" y="970" on="0"/>
        <pt x="759" y="905" on="0"/>
        <pt x="718" y="889" on="1"/>
        <pt x="735" y="891" on="0"/>
        <pt x="769" y="894" on="0"/>
        <pt x="785" y="894" on="1"/>
        <pt x="862" y="894" on="0"/>
        <pt x="989" y="854" on="0"/>
        <pt x="1089" y="788" on="0"/>
        <pt x="1163" y="701" on="0"/>
        <pt x="1211" y="607" on="0"/>
        <pt x="1235" y="513" on="0"/>
        <pt x="1235" y="472" on="1"/>
        <pt x="1235" y="421" on="0"/>
        <pt x="1217" y="337" on="0"/>
        <pt x="1209" y="314" on="1"/>
        <pt x="1180" y="227" on="0"/>
        <pt x="1085" y="105" on="0"/>
        <pt x="968" y="29" on="0"/>
        <pt x="833" y="-5" on="0"/>
        <pt x="763" y="-5" on="1"/>
        <pt x="721" y="-5" on="0"/>
        <pt x="669" y="-1" on="0"/>
        <pt x="666" y="0" on="1"/>
        <pt x="450" y="92" on="1"/>
        <pt x="408" y="87" on="0"/>
        <pt x="331" y="66" on="0"/>
        <pt x="266" y="40" on="0"/>
        <pt x="214" y="12" on="0"/>
      </contour>
    </TTGlyph>
    <TTGlyph name="C" xMin="119" yMin="0" xMax="1187" yMax="1515">
      <contour>
        <pt x="1187" y="483" on="1"/>
        <pt x="1182" y="466" on="0"/>
        <pt x="1178" y="459" on="1"/>
        <pt x="1118" y="327" on="0"/>
        <pt x="1049" y="258" on="1"/>
        <pt x="997" y="205" on="0"/>
        <pt x="935" y="147" on="0"/>
        <pt x="924" y="140" on="1"/>
        <pt x="701" y="0" on="1"/>
        <pt x="644" y="15" on="0"/>
        <pt x="491" y="92" on="0"/>
        <pt x="338" y="212" on="0"/>
        <pt x="208" y="372" on="0"/>
        <pt x="174" y="470" on="1"/>
        <pt x="148" y="546" on="0"/>
        <pt x="119" y="685" on="0"/>
        <pt x="120" y="755" on="1"/>
        <pt x="120" y="841" on="0"/>
        <pt x="167" y="1021" on="0"/>
        <pt x="250" y="1187" on="0"/>
        <pt x="364" y="1326" on="0"/>
        <pt x="431" y="1372" on="1"/>
        <pt x="653" y="1515" on="1"/>
        <pt x="681" y="1507" on="0"/>
        <pt x="761" y="1475" on="0"/>
        <pt x="859" y="1421" on="0"/>
        <pt x="968" y="1343" on="0"/>
        <pt x="1024" y="1289" on="1"/>
        <pt x="1055" y="1257" on="0"/>
        <pt x="1081" y="1223" on="1"/>
        <pt x="882" y="1125" on="1"/>
        <pt x="837" y="1182" on="0"/>
        <pt x="743" y="1263" on="0"/>
        <pt x="637" y="1320" on="0"/>
        <pt x="516" y="1357" on="0"/>
        <pt x="443" y="1370" on="1"/>
        <pt x="442" y="1369" on="1"/>
        <pt x="356" y="1319" on="0"/>
        <pt x="311" y="1104" on="1"/>
        <pt x="281" y="960" on="0"/>
        <pt x="281" y="845" on="1"/>
        <pt x="281" y="782" on="0"/>
        <pt x="307" y="640" on="0"/>
        <pt x="366" y="499" on="0"/>
        <pt x="462" y="364" on="0"/>
        <pt x="602" y="250" on="0"/>
        <pt x="790" y="164" on="0"/>
        <pt x="912" y="142" on="1"/>
        <pt x="1005" y="224" on="0"/>
        <pt x="1005" y="400" on="1"/>
        <pt x="1005" y="481" on="0"/>
        <pt x="985" y="552" on="1"/>
      </contour>
    </TTGlyph>
    <TTGlyph name="Cacute" xMin="119" yMin="0" xMax="1187" yMax="1898">
      <component glyphName="C" x="0" y="0" flags="0x204"/>
      <component glyphName="acute" x="396" y="386" flags="0x4"/>
    </TTGlyph>
    <TTGlyph name="Ccaron" xMin="119" yMin="0" xMax="1187" yMax="1893">
      <component glyphName="C" x="0" y="0" flags="0x204"/>
      <component glyphName="caron" x="145" y="386" flags="0x4"/>
    </TTGlyph>
    <TTGlyph name="Ccedilla" xMin="119" yMin="-431" xMax="1187" yMax="1515">
      <contour>
        <pt x="1187" y="483" on="1"/>
        <pt x="1182" y="466" on="0"/>
        <pt x="1178" y="459" on="1"/>
        <pt x="1117" y="326" on="0"/>
        <pt x="1049" y="258" on="1"/>
        <pt x="996" y="205" on="0"/>
        <pt x="934" y="146" on="0"/>
        <pt x="924" y="140" on="1"/>
        <pt x="744" y="27" on="1"/>
        <pt x="882" y="-35" on="0"/>
        <pt x="882" y="-167" on="1"/>
        <pt x="882" y="-290" on="0"/>
        <pt x="787" y="-347" on="1"/>
        <pt x="773" y="-352" on="1"/>
        <pt x="653" y="-359" on="0"/>
        <pt x="528" y="-428" on="1"/>
        <pt x="521" y="-431" on="1"/>
        <pt x="704" y="-266" on="0"/>
        <pt x="704" y="-142" on="1"/>
        <pt x="703" y="-70" on="0"/>
        <pt x="653" y="16" on="1"/>
        <pt x="590" y="38" on="0"/>
        <pt x="447" y="122" on="0"/>
        <pt x="313" y="239" on="0"/>
        <pt x="203" y="385" on="0"/>
        <pt x="174" y="470" on="1"/>
        <pt x="148" y="546" on="0"/>
        <pt x="119" y="685" on="0"/>
        <pt x="120" y="755" on="1"/>
        <pt x="120" y="840" on="0"/>
        <pt x="167" y="1020" on="0"/>
        <pt x="250" y="1186" on="0"/>
        <pt x="364" y="1327" on="0"/>
        <pt x="431" y="1372" on="1"/>
        <pt x="653" y="1515" on="1"/>
        <pt x="681" y="1507" on="0"/>
        <pt x="761" y="1475" on="0"/>
        <pt x="859" y="1421" on="0"/>
        <pt x="968" y="1343" on="0"/>
        <pt x="1024" y="1289" on="1"/>
        <pt x="1055" y="1257" on="0"/>
        <pt x="1081" y="1223" on="1"/>
        <pt x="882" y="1125" on="1"/>
        <pt x="837" y="1182" on="0"/>
        <pt x="743" y="1263" on="0"/>
        <pt x="637" y="1320" on="0"/>
        <pt x="516" y="1357" on="0"/>
        <pt x="443" y="1370" on="1"/>
        <pt x="442" y="1369" on="1"/>
        <pt x="356" y="1319" on="0"/>
        <pt x="311" y="1104" on="1"/>
        <pt x="281" y="960" on="0"/>
        <pt x="281" y="845" on="1"/>
        <pt x="281" y="781" on="0"/>
        <pt x="307" y="639" on="0"/>
        <pt x="367" y="497" on="0"/>
        <pt x="463" y="363" on="0"/>
        <pt x="603" y="249" on="0"/>
        <pt x="791" y="164" on="0"/>
        <pt x="912" y="142" on="1"/>
        <pt x="1005" y="224" on="0"/>
        <pt x="1005" y="400" on="1"/>
        <pt x="1005" y="481" on="0"/>
        <pt x="985" y="552" on="1"/>
      </contour>
    </TTGlyph>
    <TTGlyph name="Ccircumflex" xMin="119" yMin="0" xMax="1187" yMax="1895">
      <component glyphName="C" x="0" y="0" flags="0x204"/>
      <component glyphName="circumflex" x="196" y="386" flags="0x4"/>
    </TTGlyph>
    <TTGlyph name="Cdotaccent" xMin="119" yMin="0" xMax="1187" yMax="1945">
      <component glyphName="C" x="0" y="0" flags="0x204"/>
      <component glyphName="dotaccent" x="367" y="361" flags="0x4"/>
    </TTGlyph>
    <TTGlyph name="D" xMin="90" yMin="0" xMax="1263" yMax="1512">
      <contour>
        <pt x="199" y="0" on="1"/>
        <pt x="221" y="154" on="0"/>
        <pt x="243" y="423" on="0"/>
        <pt x="243" y="541" on="1"/>
        <pt x="243" y="677" on="0"/>
        <pt x="220" y="935" on="0"/>
        <pt x="205" y="1056" on="1"/>
        <pt x="199" y="1090" on="1"/>
        <pt x="260" y="1097" on="0"/>
        <pt x="381" y="1140" on="0"/>
        <pt x="451" y="1179" on="1"/>
        <pt x="428" y="1030" on="0"/>
        <pt x="405" y="787" on="0"/>
        <pt x="405" y="689" on="1"/>
        <pt x="406" y="644" on="1"/>
        <pt x="417" y="418" on="0"/>
        <pt x="432" y="168" on="0"/>
        <pt x="437" y="140" on="1"/>
        <pt x="484" y="117" on="1"/>
        <pt x="562" y="89" on="0"/>
        <pt x="635" y="89" on="1"/>
        <pt x="806" y="89" on="0"/>
        <pt x="925" y="232" on="1"/>
        <pt x="973" y="300" on="0"/>
        <pt x="1039" y="422" on="0"/>
        <pt x="1080" y="543" on="0"/>
        <pt x="1097" y="668" on="0"/>
        <pt x="1097" y="740" on="1"/>
        <pt x="1097" y="818" on="0"/>
        <pt x="1074" y="947" on="0"/>
        <pt x="1026" y="1057" on="0"/>
        <pt x="953" y="1152" on="0"/>
        <pt x="902" y="1196" on="1"/>
        <pt x="840" y="1250" on="0"/>
        <pt x="663" y="1318" on="0"/>
        <pt x="550" y="1318" on="1"/>
        <pt x="498" y="1318" on="0"/>
        <pt x="381" y="1293" on="0"/>
        <pt x="261" y="1246" on="0"/>
        <pt x="143" y="1180" on="0"/>
        <pt x="90" y="1139" on="1"/>
        <pt x="157" y="1401" on="1"/>
        <pt x="319" y="1465" on="1"/>
        <pt x="394" y="1487" on="0"/>
        <pt x="522" y="1512" on="0"/>
        <pt x="575" y="1512" on="1"/>
        <pt x="618" y="1512" on="0"/>
        <pt x="720" y="1497" on="0"/>
        <pt x="837" y="1457" on="0"/>
        <pt x="965" y="1385" on="0"/>
        <pt x="1034" y="1328" on="1"/>
        <pt x="1080" y="1290" on="0"/>
        <pt x="1163" y="1174" on="0"/>
        <pt x="1226" y="1024" on="0"/>
        <pt x="1263" y="843" on="0"/>
        <pt x="1263" y="739" on="1"/>
        <pt x="1263" y="630" on="0"/>
        <pt x="1218" y="443" on="0"/>
        <pt x="1146" y="289" on="0"/>
        <pt x="1053" y="171" on="0"/>
        <pt x="1005" y="132" on="1"/>
        <pt x="925" y="67" on="0"/>
        <pt x="758" y="1" on="0"/>
        <pt x="667" y="0" on="1"/>
        <pt x="451" y="92" on="1"/>
        <pt x="400" y="86" on="0"/>
        <pt x="323" y="65" on="0"/>
        <pt x="263" y="39" on="0"/>
        <pt x="218" y="12" on="0"/>
      </contour>
    </TTGlyph>
    <TTGlyph name="Dcaron" xMin="90" yMin="0" xMax="1263" yMax="1915">
      <component glyphName="D" x="0" y="0" flags="0x204"/>
      <component glyphName="caron" x="140" y="408" flags="0x4"/>
    </TTGlyph>
    <TTGlyph name="Dcroat" xMin="29" yMin="0" xMax="1263" yMax="1512">
      <contour>
        <pt x="199" y="0" on="1"/>
        <pt x="221" y="154" on="0"/>
        <pt x="243" y="423" on="0"/>
        <pt x="243" y="541" on="1"/>
        <pt x="243" y="562" on="0"/>
        <pt x="243" y="602" on="0"/>
        <pt x="242" y="621" on="1"/>
        <pt x="84" y="615" on="0"/>
        <pt x="29" y="603" on="1"/>
        <pt x="43" y="625" on="0"/>
        <pt x="66" y="700" on="0"/>
        <pt x="72" y="750" on="1"/>
        <pt x="104" y="740" on="0"/>
        <pt x="178" y="733" on="0"/>
        <pt x="236" y="731" on="1"/>
        <pt x="231" y="816" on="0"/>
        <pt x="215" y="978" on="0"/>
        <pt x="205" y="1056" on="1"/>
        <pt x="199" y="1090" on="1"/>
        <pt x="260" y="1097" on="0"/>
        <pt x="381" y="1140" on="0"/>
        <pt x="451" y="1179" on="1"/>
        <pt x="430" y="1044" on="0"/>
        <pt x="407" y="819" on="0"/>
        <pt x="405" y="725" on="1"/>
        <pt x="448" y="725" on="0"/>
        <pt x="518" y="722" on="0"/>
        <pt x="553" y="722" on="1"/>
        <pt x="644" y="722" on="0"/>
        <pt x="794" y="737" on="0"/>
        <pt x="857" y="750" on="1"/>
        <pt x="855" y="746" on="1"/>
        <pt x="823" y="681" on="0"/>
        <pt x="816" y="603" on="1"/>
        <pt x="800" y="607" on="1"/>
        <pt x="725" y="626" on="0"/>
        <pt x="463" y="626" on="1"/>
        <pt x="449" y="626" on="0"/>
        <pt x="421" y="626" on="0"/>
        <pt x="407" y="625" on="1"/>
        <pt x="428" y="192" on="0"/>
        <pt x="437" y="140" on="1"/>
        <pt x="484" y="117" on="1"/>
        <pt x="562" y="89" on="0"/>
        <pt x="635" y="89" on="1"/>
        <pt x="806" y="89" on="0"/>
        <pt x="925" y="232" on="1"/>
        <pt x="973" y="300" on="0"/>
        <pt x="1039" y="422" on="0"/>
        <pt x="1080" y="543" on="0"/>
        <pt x="1097" y="668" on="0"/>
        <pt x="1097" y="740" on="1"/>
        <pt x="1097" y="818" on="0"/>
        <pt x="1074" y="947" on="0"/>
        <pt x="1026" y="1057" on="0"/>
        <pt x="953" y="1152" on="0"/>
        <pt x="902" y="1196" on="1"/>
        <pt x="840" y="1250" on="0"/>
        <pt x="663" y="1318" on="0"/>
        <pt x="550" y="1318" on="1"/>
        <pt x="498" y="1318" on="0"/>
        <pt x="381" y="1293" on="0"/>
        <pt x="261" y="1246" on="0"/>
        <pt x="143" y="1180" on="0"/>
        <pt x="90" y="1139" on="1"/>
        <pt x="157" y="1401" on="1"/>
        <pt x="319" y="1465" on="1"/>
        <pt x="394" y="1487" on="0"/>
        <pt x="522" y="1512" on="0"/>
        <pt x="575" y="1512" on="1"/>
        <pt x="618" y="1512" on="0"/>
        <pt x="720" y="1497" on="0"/>
        <pt x="837" y="1457" on="0"/>
        <pt x="965" y="1385" on="0"/>
        <pt x="1034" y="1328" on="1"/>
        <pt x="1080" y="1290" on="0"/>
        <pt x="1163" y="1174" on="0"/>
        <pt x="1226" y="1024" on="0"/>
        <pt x="1263" y="843" on="0"/>
        <pt x="1263" y="739" on="1"/>
        <pt x="1263" y="631" on="0"/>
        <pt x="1219" y="445" on="0"/>
        <pt x="1147" y="291" on="0"/>
        <pt x="1054" y="172" on="0"/>
        <pt x="1005" y="132" on="1"/>
        <pt x="846" y="3" on="0"/>
        <pt x="667" y="0" on="1"/>
        <pt x="451" y="92" on="1"/>
        <pt x="400" y="86" on="0"/>
        <pt x="323" y="65" on="0"/>
        <pt x="263" y="39" on="0"/>
        <pt x="218" y="12" on="0"/>
      </contour>
    </TTGlyph>
    <TTGlyph name="Delta" xMin="0" yMin="0" xMax="1306" yMax="1511">
      <contour>
        <pt x="1306" y="2" on="1"/>
        <pt x="1280" y="10" on="1"/>
        <pt x="891" y="49" on="0"/>
        <pt x="541" y="49" on="1"/>
        <pt x="489" y="49" on="0"/>
        <pt x="376" y="45" on="0"/>
        <pt x="244" y="35" on="0"/>
        <pt x="91" y="16" on="0"/>
        <pt x="0" y="0" on="1"/>
        <pt x="128" y="249" on="0"/>
        <pt x="310" y="710" on="1"/>
        <pt x="467" y="1107" on="0"/>
        <pt x="505" y="1382" on="1"/>
        <pt x="509" y="1422" on="1"/>
        <pt x="570" y="1429" on="0"/>
        <pt x="691" y="1472" on="0"/>
        <pt x="761" y="1511" on="1"/>
        <pt x="794" y="1206" on="0"/>
        <pt x="964" y="751" on="1"/>
        <pt x="1148" y="292" on="0"/>
      </contour>
      <contour>
        <pt x="957" y="232" on="1"/>
        <pt x="805" y="721" on="1"/>
        <pt x="665" y="1156" on="0"/>
        <pt x="616" y="1214" on="1"/>
        <pt x="563" y="1136" on="0"/>
        <pt x="402" y="704" on="1"/>
        <pt x="283" y="384" on="0"/>
        <pt x="237" y="233" on="1"/>
        <pt x="312" y="222" on="0"/>
        <pt x="452" y="211" on="0"/>
        <pt x="518" y="211" on="1"/>
        <pt x="553" y="211" on="1"/>
        <pt x="775" y="211" on="0"/>
      </contour>
    </TTGlyph>
    <TTGlyph name="E" xMin="150" yMin="0" xMax="1008" yMax="1511">
      <contour>
        <pt x="520" y="42" on="1"/>
        <pt x="349" y="42" on="0"/>
        <pt x="150" y="0" on="1"/>
        <pt x="172" y="147" on="0"/>
        <pt x="193" y="480" on="0"/>
        <pt x="193" y="670" on="1"/>
        <pt x="193" y="940" on="0"/>
        <pt x="172" y="1300" on="0"/>
        <pt x="156" y="1388" on="1"/>
        <pt x="150" y="1422" on="1"/>
        <pt x="211" y="1429" on="0"/>
        <pt x="332" y="1472" on="0"/>
        <pt x="402" y="1511" on="1"/>
        <pt x="465" y="1490" on="0"/>
        <pt x="585" y="1460" on="0"/>
        <pt x="662" y="1460" on="1"/>
        <pt x="793" y="1460" on="0"/>
        <pt x="949" y="1511" on="1"/>
        <pt x="876" y="1379" on="0"/>
        <pt x="869" y="1259" on="1"/>
        <pt x="683" y="1269" on="0"/>
        <pt x="558" y="1360" on="1"/>
        <pt x="498" y="1406" on="0"/>
        <pt x="419" y="1471" on="0"/>
        <pt x="399" y="1491" on="1"/>
        <pt x="357" y="1216" on="0"/>
        <pt x="357" y="830" on="1"/>
        <pt x="357" y="812" on="1"/>
        <pt x="633" y="826" on="0"/>
        <pt x="829" y="925" on="1"/>
        <pt x="809" y="887" on="0"/>
        <pt x="770" y="756" on="0"/>
        <pt x="762" y="673" on="1"/>
        <pt x="735" y="681" on="1"/>
        <pt x="621" y="715" on="0"/>
        <pt x="398" y="715" on="1"/>
        <pt x="358" y="715" on="1"/>
        <pt x="362" y="305" on="0"/>
        <pt x="391" y="145" on="1"/>
        <pt x="421" y="137" on="0"/>
        <pt x="438" y="137" on="1"/>
        <pt x="782" y="137" on="0"/>
        <pt x="1008" y="252" on="1"/>
        <pt x="990" y="217" on="0"/>
        <pt x="951" y="98" on="0"/>
        <pt x="941" y="0" on="1"/>
        <pt x="915" y="8" on="1"/>
        <pt x="806" y="42" on="0"/>
      </contour>
    </TTGlyph>
    <TTGlyph name="Eacute" xMin="150" yMin="0" xMax="1008" yMax="1898">
      <component glyphName="E" x="0" y="0" flags="0x204"/>
      <component glyphName="acute" x="297" y="386" flags="0x4"/>
    </TTGlyph>
    <TTGlyph name="Ebreve" xMin="150" yMin="0" xMax="1008" yMax="1877">
      <component glyphName="E" x="0" y="0" flags="0x204"/>
      <component glyphName="breve" x="212" y="364" flags="0x4"/>
    </TTGlyph>
    <TTGlyph name="Ecaron" xMin="150" yMin="0" xMax="1008" yMax="1893">
      <component glyphName="E" x="0" y="0" flags="0x204"/>
      <component glyphName="caron" x="145" y="386" flags="0x4"/>
    </TTGlyph>
    <TTGlyph name="Ecircumflex" xMin="112" yMin="0" xMax="1008" yMax="1895">
      <component glyphName="E" x="0" y="0" flags="0x204"/>
      <component glyphName="circumflex" x="-38" y="386" flags="0x4"/>
    </TTGlyph>
    <TTGlyph name="Edieresis" xMin="150" yMin="0" xMax="1008" yMax="1909">
      <component glyphName="E" x="0" y="0" flags="0x204"/>
      <component glyphName="dieresis" x="42" y="358" flags="0x4"/>
    </TTGlyph>
    <TTGlyph name="Edotaccent" xMin="150" yMin="0" xMax="1008" yMax="1945">
      <component glyphName="E" x="0" y="0" flags="0x204"/>
      <component glyphName="dotaccent" x="367" y="361" flags="0x4"/>
    </TTGlyph>
    <TTGlyph name="Egrave" xMin="150" yMin="0" xMax="1008" yMax="1898">
      <component glyphName="E" x="0" y="0" flags="0x204"/>
      <component glyphName="grave" x="212" y="386" flags="0x4"/>
    </TTGlyph>
    <TTGlyph name="Emacron" xMin="150" yMin="0" xMax="1008" yMax="1773">
      <component glyphName="E" x="0" y="0" flags="0x204"/>
      <component glyphName="macron" x="55" y="259" flags="0x4"/>
    </TTGlyph>
    <TTGlyph name="Eng" xMin="90" yMin="-378" xMax="1142" yMax="1511">
      <contour>
        <pt x="103" y="1406" on="1"/>
        <pt x="90" y="1421" on="1"/>
        <pt x="241" y="1439" on="0"/>
        <pt x="342" y="1511" on="1"/>
        <pt x="389" y="1347" on="0"/>
        <pt x="529" y="1024" on="0"/>
        <pt x="704" y="712" on="0"/>
        <pt x="900" y="411" on="0"/>
        <pt x="1007" y="271" on="1"/>
        <pt x="1019" y="472" on="0"/>
        <pt x="1019" y="689" on="1"/>
        <pt x="1019" y="722" on="1"/>
        <pt x="1018" y="963" on="0"/>
        <pt x="1008" y="1291" on="0"/>
        <pt x="996" y="1383" on="1"/>
        <pt x="991" y="1421" on="1"/>
        <pt x="1019" y="1426" on="0"/>
        <pt x="1065" y="1446" on="0"/>
        <pt x="1103" y="1472" on="0"/>
        <pt x="1141" y="1511" on="1"/>
        <pt x="1128" y="1368" on="0"/>
        <pt x="1116" y="1036" on="0"/>
        <pt x="1116" y="842" on="1"/>
        <pt x="1116" y="810" on="0"/>
        <pt x="1117" y="754" on="0"/>
        <pt x="1117" y="730" on="1"/>
        <pt x="1117" y="337" on="0"/>
        <pt x="1138" y="126" on="1"/>
        <pt x="1142" y="92" on="1"/>
        <pt x="1141" y="71" on="0"/>
        <pt x="1124" y="9" on="0"/>
        <pt x="1093" y="-64" on="0"/>
        <pt x="1050" y="-144" on="0"/>
        <pt x="1023" y="-184" on="1"/>
        <pt x="966" y="-268" on="0"/>
        <pt x="766" y="-378" on="1"/>
        <pt x="755" y="-375" on="1"/>
        <pt x="879" y="-128" on="0"/>
        <pt x="890" y="0" on="1"/>
        <pt x="867" y="122" on="0"/>
        <pt x="512" y="746" on="1"/>
        <pt x="317" y="1080" on="1"/>
        <pt x="314" y="975" on="0"/>
        <pt x="314" y="853" on="1"/>
        <pt x="314" y="811" on="0"/>
        <pt x="315" y="749" on="0"/>
        <pt x="315" y="727" on="1"/>
        <pt x="315" y="331" on="0"/>
        <pt x="336" y="123" on="1"/>
        <pt x="340" y="89" on="1"/>
        <pt x="269" y="76" on="0"/>
        <pt x="190" y="0" on="1"/>
        <pt x="217" y="298" on="0"/>
        <pt x="217" y="691" on="1"/>
        <pt x="217" y="719" on="1"/>
        <pt x="217" y="887" on="0"/>
        <pt x="211" y="1157" on="0"/>
        <pt x="204" y="1263" on="1"/>
        <pt x="140" y="1363" on="0"/>
      </contour>
    </TTGlyph>
    <TTGlyph name="Eogonek" xMin="150" yMin="-467" xMax="1027" yMax="1511">
      <contour>
        <pt x="520" y="42" on="1"/>
        <pt x="349" y="42" on="0"/>
        <pt x="150" y="0" on="1"/>
        <pt x="172" y="147" on="0"/>
        <pt x="193" y="480" on="0"/>
        <pt x="193" y="670" on="1"/>
        <pt x="193" y="941" on="0"/>
        <pt x="172" y="1300" on="0"/>
        <pt x="156" y="1388" on="1"/>
        <pt x="150" y="1422" on="1"/>
        <pt x="211" y="1429" on="0"/>
        <pt x="332" y="1471" on="0"/>
        <pt x="395" y="1507" on="1"/>
        <pt x="403" y="1511" on="1"/>
        <pt x="465" y="1486" on="0"/>
        <pt x="585" y="1460" on="0"/>
        <pt x="662" y="1460" on="1"/>
        <pt x="793" y="1460" on="0"/>
        <pt x="948" y="1511" on="1"/>
        <pt x="876" y="1379" on="0"/>
        <pt x="869" y="1259" on="1"/>
        <pt x="683" y="1269" on="0"/>
        <pt x="558" y="1360" on="1"/>
        <pt x="498" y="1406" on="0"/>
        <pt x="419" y="1471" on="0"/>
        <pt x="399" y="1491" on="1"/>
        <pt x="357" y="1216" on="0"/>
        <pt x="357" y="830" on="1"/>
        <pt x="357" y="812" on="1"/>
        <pt x="633" y="826" on="0"/>
        <pt x="829" y="925" on="1"/>
        <pt x="809" y="887" on="0"/>
        <pt x="770" y="756" on="0"/>
        <pt x="762" y="673" on="1"/>
        <pt x="735" y="681" on="1"/>
        <pt x="621" y="715" on="0"/>
        <pt x="398" y="715" on="1"/>
        <pt x="358" y="715" on="1"/>
        <pt x="362" y="305" on="0"/>
        <pt x="391" y="145" on="1"/>
        <pt x="421" y="137" on="0"/>
        <pt x="438" y="137" on="1"/>
        <pt x="782" y="137" on="0"/>
        <pt x="1008" y="252" on="1"/>
        <pt x="990" y="217" on="0"/>
        <pt x="951" y="98" on="0"/>
        <pt x="941" y="0" on="1"/>
        <pt x="914" y="8" on="1"/>
        <pt x="846" y="-92" on="0"/>
        <pt x="844" y="-185" on="1"/>
        <pt x="844" y="-302" on="0"/>
        <pt x="1027" y="-467" on="1"/>
        <pt x="1020" y="-464" on="1"/>
        <pt x="895" y="-395" on="0"/>
        <pt x="775" y="-388" on="1"/>
        <pt x="761" y="-383" on="1"/>
        <pt x="666" y="-326" on="0"/>
        <pt x="666" y="-203" on="1"/>
        <pt x="666" y="-39" on="0"/>
        <pt x="881" y="17" on="1"/>
        <pt x="766" y="42" on="0"/>
      </contour>
    </TTGlyph>
    <TTGlyph name="Eth" xMin="29" yMin="0" xMax="1263" yMax="1512">
      <contour>
        <pt x="199" y="0" on="1"/>
        <pt x="221" y="154" on="0"/>
        <pt x="243" y="423" on="0"/>
        <pt x="243" y="541" on="1"/>
        <pt x="243" y="562" on="0"/>
        <pt x="243" y="602" on="0"/>
        <pt x="242" y="621" on="1"/>
        <pt x="84" y="615" on="0"/>
        <pt x="29" y="603" on="1"/>
        <pt x="43" y="625" on="0"/>
        <pt x="66" y="700" on="0"/>
        <pt x="72" y="750" on="1"/>
        <pt x="104" y="740" on="0"/>
        <pt x="178" y="733" on="0"/>
        <pt x="236" y="731" on="1"/>
        <pt x="231" y="816" on="0"/>
        <pt x="215" y="978" on="0"/>
        <pt x="205" y="1056" on="1"/>
        <pt x="199" y="1090" on="1"/>
        <pt x="260" y="1097" on="0"/>
        <pt x="381" y="1140" on="0"/>
        <pt x="451" y="1179" on="1"/>
        <pt x="430" y="1044" on="0"/>
        <pt x="407" y="819" on="0"/>
        <pt x="405" y="725" on="1"/>
        <pt x="448" y="725" on="0"/>
        <pt x="518" y="722" on="0"/>
        <pt x="553" y="722" on="1"/>
        <pt x="644" y="722" on="0"/>
        <pt x="794" y="737" on="0"/>
        <pt x="857" y="750" on="1"/>
        <pt x="855" y="746" on="1"/>
        <pt x="823" y="681" on="0"/>
        <pt x="816" y="603" on="1"/>
        <pt x="800" y="607" on="1"/>
        <pt x="725" y="626" on="0"/>
        <pt x="463" y="626" on="1"/>
        <pt x="449" y="626" on="0"/>
        <pt x="421" y="626" on="0"/>
        <pt x="407" y="625" on="1"/>
        <pt x="428" y="192" on="0"/>
        <pt x="437" y="140" on="1"/>
        <pt x="484" y="117" on="1"/>
        <pt x="562" y="89" on="0"/>
        <pt x="635" y="89" on="1"/>
        <pt x="806" y="89" on="0"/>
        <pt x="925" y="232" on="1"/>
        <pt x="973" y="300" on="0"/>
        <pt x="1039" y="422" on="0"/>
        <pt x="1080" y="543" on="0"/>
        <pt x="1097" y="668" on="0"/>
        <pt x="1097" y="740" on="1"/>
        <pt x="1097" y="818" on="0"/>
        <pt x="1074" y="947" on="0"/>
        <pt x="1026" y="1057" on="0"/>
        <pt x="953" y="1152" on="0"/>
        <pt x="902" y="1196" on="1"/>
        <pt x="840" y="1250" on="0"/>
        <pt x="663" y="1318" on="0"/>
        <pt x="550" y="1318" on="1"/>
        <pt x="498" y="1318" on="0"/>
        <pt x="381" y="1293" on="0"/>
        <pt x="261" y="1246" on="0"/>
        <pt x="143" y="1180" on="0"/>
        <pt x="90" y="1139" on="1"/>
        <pt x="157" y="1401" on="1"/>
        <pt x="319" y="1465" on="1"/>
        <pt x="394" y="1487" on="0"/>
        <pt x="522" y="1512" on="0"/>
        <pt x="575" y="1512" on="1"/>
        <pt x="618" y="1512" on="0"/>
        <pt x="720" y="1497" on="0"/>
        <pt x="837" y="1457" on="0"/>
        <pt x="965" y="1385" on="0"/>
        <pt x="1034" y="1328" on="1"/>
        <pt x="1080" y="1290" on="0"/>
        <pt x="1163" y="1174" on="0"/>
        <pt x="1226" y="1024" on="0"/>
        <pt x="1263" y="843" on="0"/>
        <pt x="1263" y="739" on="1"/>
        <pt x="1263" y="631" on="0"/>
        <pt x="1219" y="445" on="0"/>
        <pt x="1147" y="291" on="0"/>
        <pt x="1054" y="172" on="0"/>
        <pt x="1005" y="132" on="1"/>
        <pt x="846" y="3" on="0"/>
        <pt x="667" y="0" on="1"/>
        <pt x="451" y="92" on="1"/>
        <pt x="400" y="86" on="0"/>
        <pt x="323" y="65" on="0"/>
        <pt x="263" y="39" on="0"/>
        <pt x="218" y="12" on="0"/>
      </contour>
    </TTGlyph>
    <TTGlyph name="Euro" xMin="80" yMin="0" xMax="1323" yMax="1515">
      <contour>
        <pt x="1323" y="483" on="1"/>
        <pt x="1253" y="326" on="0"/>
        <pt x="1185" y="258" on="1"/>
        <pt x="1132" y="205" on="0"/>
        <pt x="1060" y="140" on="1"/>
        <pt x="837" y="0" on="1"/>
        <pt x="799" y="10" on="0"/>
        <pt x="705" y="51" on="0"/>
        <pt x="602" y="112" on="0"/>
        <pt x="499" y="192" on="0"/>
        <pt x="407" y="290" on="0"/>
        <pt x="332" y="405" on="0"/>
        <pt x="310" y="470" on="1"/>
        <pt x="305" y="484" on="1"/>
        <pt x="190" y="473" on="0"/>
        <pt x="81" y="451" on="1"/>
        <pt x="98" y="485" on="0"/>
        <pt x="140" y="610" on="0"/>
        <pt x="148" y="703" on="1"/>
        <pt x="174" y="695" on="1"/>
        <pt x="194" y="689" on="0"/>
        <pt x="237" y="683" on="0"/>
        <pt x="260" y="678" on="1"/>
        <pt x="258" y="697" on="0"/>
        <pt x="256" y="733" on="0"/>
        <pt x="256" y="750" on="1"/>
        <pt x="256" y="768" on="0"/>
        <pt x="257" y="792" on="0"/>
        <pt x="258" y="805" on="1"/>
        <pt x="212" y="800" on="0"/>
        <pt x="124" y="786" on="0"/>
        <pt x="80" y="777" on="1"/>
        <pt x="97" y="811" on="0"/>
        <pt x="139" y="936" on="0"/>
        <pt x="147" y="1029" on="1"/>
        <pt x="173" y="1021" on="1"/>
        <pt x="200" y="1014" on="0"/>
        <pt x="263" y="1003" on="0"/>
        <pt x="298" y="998" on="1"/>
        <pt x="322" y="1065" on="0"/>
        <pt x="387" y="1182" on="0"/>
        <pt x="459" y="1278" on="0"/>
        <pt x="534" y="1350" on="0"/>
        <pt x="567" y="1372" on="1"/>
        <pt x="789" y="1515" on="1"/>
        <pt x="817" y="1507" on="0"/>
        <pt x="897" y="1475" on="0"/>
        <pt x="995" y="1421" on="0"/>
        <pt x="1104" y="1343" on="0"/>
        <pt x="1160" y="1289" on="1"/>
        <pt x="1191" y="1257" on="0"/>
        <pt x="1217" y="1223" on="1"/>
        <pt x="1018" y="1125" on="1"/>
        <pt x="973" y="1182" on="0"/>
        <pt x="879" y="1262" on="0"/>
        <pt x="773" y="1318" on="0"/>
        <pt x="652" y="1357" on="0"/>
        <pt x="579" y="1370" on="1"/>
        <pt x="578" y="1369" on="1"/>
        <pt x="525" y="1339" on="0"/>
        <pt x="448" y="1145" on="0"/>
        <pt x="427" y="986" on="1"/>
        <pt x="473" y="984" on="0"/>
        <pt x="573" y="981" on="0"/>
        <pt x="630" y="981" on="1"/>
        <pt x="832" y="981" on="0"/>
        <pt x="1051" y="1029" on="1"/>
        <pt x="1022" y="960" on="0"/>
        <pt x="991" y="838" on="0"/>
        <pt x="986" y="777" on="1"/>
        <pt x="961" y="783" on="1"/>
        <pt x="753" y="818" on="0"/>
        <pt x="533" y="818" on="1"/>
        <pt x="498" y="818" on="1"/>
        <pt x="478" y="818" on="0"/>
        <pt x="437" y="818" on="0"/>
        <pt x="417" y="817" on="1"/>
        <pt x="419" y="778" on="0"/>
        <pt x="428" y="705" on="0"/>
        <pt x="441" y="660" on="1"/>
        <pt x="485" y="658" on="0"/>
        <pt x="579" y="655" on="0"/>
        <pt x="631" y="655" on="1"/>
        <pt x="833" y="655" on="0"/>
        <pt x="1052" y="703" on="1"/>
        <pt x="1023" y="634" on="0"/>
        <pt x="992" y="512" on="0"/>
        <pt x="987" y="451" on="1"/>
        <pt x="962" y="457" on="1"/>
        <pt x="754" y="492" on="0"/>
        <pt x="534" y="492" on="1"/>
        <pt x="509" y="492" on="1"/>
        <pt x="517" y="478" on="1"/>
        <pt x="551" y="417" on="0"/>
        <pt x="662" y="308" on="0"/>
        <pt x="801" y="220" on="0"/>
        <pt x="963" y="157" on="0"/>
        <pt x="1046" y="142" on="1"/>
        <pt x="1141" y="224" on="0"/>
        <pt x="1141" y="400" on="1"/>
        <pt x="1141" y="481" on="0"/>
        <pt x="1121" y="552" on="1"/>
      </contour>
    </TTGlyph>
    <TTGlyph name="F" xMin="150" yMin="0" xMax="948" yMax="1511">
      <contour>
        <pt x="402" y="1511" on="1"/>
        <pt x="467" y="1485" on="0"/>
        <pt x="588" y="1460" on="0"/>
        <pt x="662" y="1460" on="1"/>
        <pt x="793" y="1460" on="0"/>
        <pt x="948" y="1511" on="1"/>
        <pt x="876" y="1379" on="0"/>
        <pt x="869" y="1259" on="1"/>
        <pt x="772" y="1264" on="0"/>
        <pt x="620" y="1314" on="0"/>
        <pt x="558" y="1360" on="1"/>
        <pt x="491" y="1410" on="0"/>
        <pt x="414" y="1481" on="0"/>
        <pt x="400" y="1501" on="1"/>
        <pt x="378" y="1361" on="0"/>
        <pt x="357" y="1028" on="0"/>
        <pt x="357" y="830" on="1"/>
        <pt x="357" y="812" on="1"/>
        <pt x="633" y="826" on="0"/>
        <pt x="829" y="925" on="1"/>
        <pt x="806" y="883" on="0"/>
        <pt x="770" y="751" on="0"/>
        <pt x="762" y="673" on="1"/>
        <pt x="735" y="681" on="1"/>
        <pt x="679" y="698" on="0"/>
        <pt x="499" y="716" on="0"/>
        <pt x="373" y="715" on="1"/>
        <pt x="358" y="715" on="1"/>
        <pt x="361" y="498" on="0"/>
        <pt x="377" y="206" on="0"/>
        <pt x="394" y="128" on="1"/>
        <pt x="402" y="92" on="1"/>
        <pt x="359" y="87" on="0"/>
        <pt x="282" y="66" on="0"/>
        <pt x="217" y="40" on="0"/>
        <pt x="166" y="12" on="0"/>
        <pt x="150" y="0" on="1"/>
        <pt x="172" y="149" on="0"/>
        <pt x="193" y="482" on="0"/>
        <pt x="193" y="671" on="1"/>
        <pt x="191" y="937" on="0"/>
        <pt x="172" y="1296" on="0"/>
        <pt x="156" y="1388" on="1"/>
        <pt x="150" y="1422" on="1"/>
        <pt x="211" y="1429" on="0"/>
        <pt x="332" y="1471" on="0"/>
      </contour>
    </TTGlyph>
    <TTGlyph name="G" xMin="120" yMin="0" xMax="1146" yMax="1515">
      <contour>
        <pt x="918" y="141" on="1"/>
        <pt x="928" y="209" on="0"/>
        <pt x="938" y="330" on="0"/>
        <pt x="938" y="384" on="1"/>
        <pt x="938" y="412" on="1"/>
        <pt x="937" y="488" on="0"/>
        <pt x="921" y="627" on="0"/>
        <pt x="901" y="693" on="1"/>
        <pt x="894" y="716" on="1"/>
        <pt x="954" y="723" on="0"/>
        <pt x="1076" y="765" on="0"/>
        <pt x="1146" y="805" on="1"/>
        <pt x="1082" y="655" on="0"/>
        <pt x="1082" y="441" on="1"/>
        <pt x="1082" y="416" on="1"/>
        <pt x="1082" y="229" on="0"/>
        <pt x="1135" y="117" on="1"/>
        <pt x="1145" y="92" on="1"/>
        <pt x="1102" y="87" on="0"/>
        <pt x="1025" y="66" on="0"/>
        <pt x="960" y="39" on="0"/>
        <pt x="909" y="12" on="0"/>
        <pt x="893" y="0" on="1"/>
        <pt x="900" y="35" on="0"/>
        <pt x="912" y="104" on="0"/>
        <pt x="917" y="136" on="1"/>
        <pt x="701" y="0" on="1"/>
        <pt x="663" y="10" on="0"/>
        <pt x="569" y="50" on="0"/>
        <pt x="468" y="110" on="0"/>
        <pt x="365" y="189" on="0"/>
        <pt x="273" y="287" on="0"/>
        <pt x="197" y="403" on="0"/>
        <pt x="174" y="470" on="1"/>
        <pt x="120" y="624" on="0"/>
        <pt x="120" y="755" on="1"/>
        <pt x="120" y="841" on="0"/>
        <pt x="167" y="1021" on="0"/>
        <pt x="250" y="1187" on="0"/>
        <pt x="364" y="1326" on="0"/>
        <pt x="431" y="1372" on="1"/>
        <pt x="653" y="1515" on="1"/>
        <pt x="680" y="1507" on="0"/>
        <pt x="760" y="1475" on="0"/>
        <pt x="858" y="1422" on="0"/>
        <pt x="968" y="1344" on="0"/>
        <pt x="1024" y="1289" on="1"/>
        <pt x="1055" y="1257" on="0"/>
        <pt x="1081" y="1223" on="1"/>
        <pt x="882" y="1125" on="1"/>
        <pt x="837" y="1182" on="0"/>
        <pt x="743" y="1263" on="0"/>
        <pt x="637" y="1319" on="0"/>
        <pt x="516" y="1357" on="0"/>
        <pt x="443" y="1370" on="1"/>
        <pt x="442" y="1369" on="1"/>
        <pt x="356" y="1319" on="0"/>
        <pt x="311" y="1104" on="1"/>
        <pt x="281" y="960" on="0"/>
        <pt x="281" y="845" on="1"/>
        <pt x="281" y="774" on="0"/>
        <pt x="311" y="617" on="0"/>
        <pt x="384" y="463" on="0"/>
        <pt x="507" y="319" on="0"/>
        <pt x="601" y="260" on="1"/>
        <pt x="742" y="170" on="0"/>
      </contour>
    </TTGlyph>
    <TTGlyph name="Gbreve" xMin="120" yMin="0" xMax="1146" yMax="1877">
      <component glyphName="G" x="0" y="0" flags="0x204"/>
      <component glyphName="breve" x="212" y="364" flags="0x4"/>
    </TTGlyph>
    <TTGlyph name="Gcircumflex" xMin="120" yMin="0" xMax="1146" yMax="1895">
      <component glyphName="G" x="0" y="0" flags="0x204"/>
      <component glyphName="circumflex" x="194" y="386" flags="0x4"/>
    </TTGlyph>
    <TTGlyph name="Gcommaaccent" xMin="120" yMin="-387" xMax="1146" yMax="1515">
      <component glyphName="G" x="0" y="0" flags="0x204"/>
      <component glyphName="commaaccent" x="145" y="0" flags="0x4"/>
    </TTGlyph>
    <TTGlyph name="Gdotaccent" xMin="120" yMin="0" xMax="1146" yMax="1945">
      <component glyphName="G" x="0" y="0" flags="0x204"/>
      <component glyphName="dotaccent" x="366" y="361" flags="0x4"/>
    </TTGlyph>
    <TTGlyph name="H" xMin="150" yMin="0" xMax="1161" yMax="1511">
      <contour>
        <pt x="150" y="0" on="1"/>
        <pt x="193" y="298" on="0"/>
        <pt x="193" y="672" on="1"/>
        <pt x="193" y="726" on="0"/>
        <pt x="192" y="780" on="1"/>
        <pt x="184" y="1220" on="0"/>
        <pt x="156" y="1388" on="1"/>
        <pt x="150" y="1422" on="1"/>
        <pt x="271" y="1436" on="0"/>
        <pt x="395" y="1507" on="1"/>
        <pt x="402" y="1511" on="1"/>
        <pt x="358" y="1234" on="0"/>
        <pt x="357" y="840" on="1"/>
        <pt x="485" y="825" on="0"/>
        <pt x="626" y="825" on="1"/>
        <pt x="635" y="825" on="0"/>
        <pt x="644" y="825" on="1"/>
        <pt x="858" y="825" on="0"/>
        <pt x="950" y="845" on="1"/>
        <pt x="942" y="1221" on="0"/>
        <pt x="915" y="1388" on="1"/>
        <pt x="909" y="1422" on="1"/>
        <pt x="1030" y="1436" on="0"/>
        <pt x="1154" y="1507" on="1"/>
        <pt x="1161" y="1511" on="1"/>
        <pt x="1116" y="1228" on="0"/>
        <pt x="1116" y="823" on="1"/>
        <pt x="1116" y="806" on="0"/>
        <pt x="1116" y="788" on="1"/>
        <pt x="1116" y="307" on="0"/>
        <pt x="1153" y="128" on="1"/>
        <pt x="1161" y="92" on="1"/>
        <pt x="1093" y="84" on="0"/>
        <pt x="1039" y="64" on="1"/>
        <pt x="952" y="32" on="0"/>
        <pt x="909" y="0" on="1"/>
        <pt x="952" y="303" on="0"/>
        <pt x="952" y="683" on="1"/>
        <pt x="952" y="699" on="0"/>
        <pt x="952" y="717" on="1"/>
        <pt x="855" y="730" on="0"/>
        <pt x="719" y="730" on="1"/>
        <pt x="682" y="730" on="0"/>
        <pt x="648" y="729" on="1"/>
        <pt x="407" y="722" on="0"/>
        <pt x="358" y="713" on="1"/>
        <pt x="362" y="284" on="0"/>
        <pt x="394" y="128" on="1"/>
        <pt x="402" y="92" on="1"/>
        <pt x="334" y="84" on="0"/>
        <pt x="280" y="64" on="1"/>
        <pt x="193" y="32" on="0"/>
      </contour>
    </TTGlyph>
    <TTGlyph name="Hbar" xMin="62" yMin="0" xMax="1232" yMax="1511">
      <contour>
        <pt x="150" y="0" on="1"/>
        <pt x="172" y="150" on="0"/>
        <pt x="193" y="484" on="0"/>
        <pt x="193" y="672" on="1"/>
        <pt x="193" y="827" on="0"/>
        <pt x="183" y="1085" on="0"/>
        <pt x="177" y="1182" on="1"/>
        <pt x="74" y="1178" on="0"/>
        <pt x="62" y="1170" on="1"/>
        <pt x="76" y="1192" on="0"/>
        <pt x="99" y="1267" on="0"/>
        <pt x="105" y="1317" on="1"/>
        <pt x="121" y="1312" on="1"/>
        <pt x="167" y="1305" on="1"/>
        <pt x="165" y="1328" on="0"/>
        <pt x="159" y="1370" on="0"/>
        <pt x="156" y="1388" on="1"/>
        <pt x="150" y="1422" on="1"/>
        <pt x="211" y="1429" on="0"/>
        <pt x="332" y="1472" on="0"/>
        <pt x="402" y="1511" on="1"/>
        <pt x="394" y="1460" on="0"/>
        <pt x="381" y="1353" on="0"/>
        <pt x="376" y="1295" on="1"/>
        <pt x="655" y="1289" on="1"/>
        <pt x="733" y="1290" on="0"/>
        <pt x="869" y="1292" on="0"/>
        <pt x="927" y="1294" on="1"/>
        <pt x="922" y="1348" on="0"/>
        <pt x="915" y="1388" on="1"/>
        <pt x="909" y="1422" on="1"/>
        <pt x="970" y="1429" on="0"/>
        <pt x="1091" y="1472" on="0"/>
        <pt x="1161" y="1511" on="1"/>
        <pt x="1153" y="1463" on="0"/>
        <pt x="1141" y="1360" on="0"/>
        <pt x="1136" y="1304" on="1"/>
        <pt x="1168" y="1307" on="0"/>
        <pt x="1216" y="1313" on="0"/>
        <pt x="1232" y="1317" on="1"/>
        <pt x="1198" y="1248" on="0"/>
        <pt x="1191" y="1170" on="1"/>
        <pt x="1175" y="1175" on="1"/>
        <pt x="1126" y="1179" on="1"/>
        <pt x="1121" y="1097" on="0"/>
        <pt x="1116" y="920" on="0"/>
        <pt x="1116" y="823" on="1"/>
        <pt x="1116" y="788" on="1"/>
        <pt x="1117" y="546" on="0"/>
        <pt x="1133" y="218" on="0"/>
        <pt x="1153" y="128" on="1"/>
        <pt x="1161" y="92" on="1"/>
        <pt x="1118" y="87" on="0"/>
        <pt x="1041" y="66" on="0"/>
        <pt x="976" y="40" on="0"/>
        <pt x="925" y="12" on="0"/>
        <pt x="909" y="0" on="1"/>
        <pt x="931" y="152" on="0"/>
        <pt x="952" y="492" on="0"/>
        <pt x="952" y="683" on="1"/>
        <pt x="952" y="717" on="1"/>
        <pt x="903" y="724" on="0"/>
        <pt x="788" y="730" on="0"/>
        <pt x="719" y="730" on="1"/>
        <pt x="567" y="730" on="0"/>
        <pt x="385" y="718" on="0"/>
        <pt x="358" y="713" on="1"/>
        <pt x="361" y="497" on="0"/>
        <pt x="377" y="206" on="0"/>
        <pt x="394" y="128" on="1"/>
        <pt x="402" y="92" on="1"/>
        <pt x="359" y="87" on="0"/>
        <pt x="282" y="66" on="0"/>
        <pt x="217" y="40" on="0"/>
        <pt x="166" y="12" on="0"/>
      </contour>
      <contour>
        <pt x="368" y="1187" on="1"/>
        <pt x="363" y="1106" on="0"/>
        <pt x="357" y="934" on="0"/>
        <pt x="357" y="840" on="1"/>
        <pt x="484" y="825" on="0"/>
        <pt x="626" y="825" on="1"/>
        <pt x="644" y="825" on="1"/>
        <pt x="856" y="825" on="0"/>
        <pt x="950" y="845" on="1"/>
        <pt x="948" y="945" on="0"/>
        <pt x="941" y="1115" on="0"/>
        <pt x="936" y="1186" on="1"/>
        <pt x="660" y="1191" on="1"/>
        <pt x="575" y="1190" on="0"/>
        <pt x="429" y="1189" on="0"/>
      </contour>
    </TTGlyph>
    <TTGlyph name="Hcircumflex" xMin="150" yMin="0" xMax="1161" yMax="1895">
      <component glyphName="H" x="0" y="0" flags="0x204"/>
      <component glyphName="circumflex" x="194" y="386" flags="0x4"/>
    </TTGlyph>
    <TTGlyph name="I" xMin="150" yMin="0" xMax="402" yMax="1511">
      <contour>
        <pt x="150" y="0" on="1"/>
        <pt x="193" y="300" on="0"/>
        <pt x="193" y="672" on="1"/>
        <pt x="193" y="727" on="0"/>
        <pt x="192" y="780" on="1"/>
        <pt x="184" y="1218" on="0"/>
        <pt x="156" y="1388" on="1"/>
        <pt x="150" y="1422" on="1"/>
        <pt x="272" y="1436" on="0"/>
        <pt x="395" y="1507" on="1"/>
        <pt x="402" y="1511" on="1"/>
        <pt x="357" y="1227" on="0"/>
        <pt x="357" y="823" on="1"/>
        <pt x="357" y="806" on="0"/>
        <pt x="357" y="788" on="1"/>
        <pt x="357" y="308" on="0"/>
        <pt x="394" y="128" on="1"/>
        <pt x="402" y="92" on="1"/>
        <pt x="334" y="84" on="0"/>
        <pt x="280" y="64" on="1"/>
        <pt x="193" y="32" on="0"/>
      </contour>
    </TTGlyph>
    <TTGlyph name="IJ" xMin="150" yMin="0" xMax="1362" yMax="1511">
      <component glyphName="I" x="0" y="0" flags="0x4"/>
      <component glyphName="J" x="390" y="0" flags="0x4"/>
    </TTGlyph>
    <TTGlyph name="Iacute" xMin="68" yMin="0" xMax="538" yMax="1898">
      <component glyphName="I" x="0" y="0" flags="0x204"/>
      <component glyphName="acute" x="-82" y="386" flags="0x4"/>
    </TTGlyph>
    <TTGlyph name="Ibreve" xMin="-24" yMin="0" xMax="577" yMax="1877">
      <component glyphName="I" x="0" y="0" flags="0x204"/>
      <component glyphName="breve" x="-174" y="364" flags="0x4"/>
    </TTGlyph>
    <TTGlyph name="Icircumflex" xMin="-45" yMin="0" xMax="652" yMax="1895">
      <component glyphName="I" x="0" y="0" flags="0x204"/>
      <component glyphName="circumflex" x="-195" y="386" flags="0x4"/>
    </TTGlyph>
    <TTGlyph name="Idieresis" xMin="-49" yMin="0" xMax="675" yMax="1909">
      <component glyphName="I" x="37" y="0" flags="0x4"/>
      <component glyphName="dieresis" x="-199" y="358" flags="0x4"/>
    </TTGlyph>
    <TTGlyph name="Idotaccent" xMin="140" yMin="0" xMax="414" yMax="1945">
      <component glyphName="I" x="0" y="0" flags="0x204"/>
      <component glyphName="dotaccent" x="-10" y="361" flags="0x4"/>
    </TTGlyph>
    <TTGlyph name="Igrave" xMin="11" yMin="0" xMax="481" yMax="1898">
      <component glyphName="I" x="0" y="0" flags="0x204"/>
      <component glyphName="grave" x="-139" y="386" flags="0x4"/>
    </TTGlyph>
    <TTGlyph name="Imacron" xMin="-49" yMin="0" xMax="617" yMax="1773">
      <component glyphName="I" x="7" y="0" flags="0x4"/>
      <component glyphName="macron" x="-199" y="259" flags="0x4"/>
    </TTGlyph>
    <TTGlyph name="Iogonek" xMin="-54" yMin="-461" xMax="402" yMax="1511">
      <contour>
        <pt x="207" y="33" on="1"/>
        <pt x="126" y="-78" on="0"/>
        <pt x="124" y="-179" on="1"/>
        <pt x="124" y="-296" on="0"/>
        <pt x="307" y="-461" on="1"/>
        <pt x="300" y="-458" on="1"/>
        <pt x="175" y="-389" on="0"/>
        <pt x="55" y="-382" on="1"/>
        <pt x="41" y="-377" on="1"/>
        <pt x="-54" y="-320" on="0"/>
        <pt x="-54" y="-197" on="1"/>
        <pt x="-54" y="-35" on="0"/>
        <pt x="153" y="21" on="1"/>
        <pt x="173" y="168" on="0"/>
        <pt x="193" y="492" on="0"/>
        <pt x="193" y="672" on="1"/>
        <pt x="192" y="936" on="0"/>
        <pt x="173" y="1294" on="0"/>
        <pt x="156" y="1388" on="1"/>
        <pt x="150" y="1422" on="1"/>
        <pt x="210" y="1429" on="0"/>
        <pt x="332" y="1472" on="0"/>
        <pt x="402" y="1511" on="1"/>
        <pt x="357" y="1227" on="0"/>
        <pt x="357" y="823" on="1"/>
        <pt x="357" y="788" on="1"/>
        <pt x="358" y="547" on="0"/>
        <pt x="374" y="219" on="0"/>
        <pt x="394" y="128" on="1"/>
        <pt x="402" y="92" on="1"/>
        <pt x="341" y="85" on="0"/>
        <pt x="241" y="50" on="0"/>
        <pt x="206" y="33" on="1"/>
      </contour>
    </TTGlyph>
    <TTGlyph name="Itilde" xMin="-47" yMin="0" xMax="707" yMax="1848">
      <component glyphName="I" x="49" y="0" flags="0x4"/>
      <component glyphName="tilde" x="-197" y="337" flags="0x4"/>
    </TTGlyph>
    <TTGlyph name="J" xMin="0" yMin="0" xMax="972" yMax="1511">
      <contour>
        <pt x="0" y="292" on="1"/>
        <pt x="199" y="390" on="1"/>
        <pt x="246" y="330" on="0"/>
        <pt x="341" y="249" on="0"/>
        <pt x="446" y="197" on="0"/>
        <pt x="566" y="158" on="0"/>
        <pt x="638" y="145" on="1"/>
        <pt x="698" y="194" on="0"/>
        <pt x="740" y="404" on="1"/>
        <pt x="761" y="509" on="0"/>
        <pt x="761" y="775" on="1"/>
        <pt x="761" y="800" on="1"/>
        <pt x="761" y="940" on="0"/>
        <pt x="743" y="1232" on="0"/>
        <pt x="726" y="1388" on="1"/>
        <pt x="720" y="1422" on="1"/>
        <pt x="781" y="1429" on="0"/>
        <pt x="902" y="1472" on="0"/>
        <pt x="972" y="1511" on="1"/>
        <pt x="949" y="1368" on="0"/>
        <pt x="926" y="1077" on="0"/>
        <pt x="926" y="926" on="1"/>
        <pt x="926" y="770" on="0"/>
        <pt x="937" y="575" on="0"/>
        <pt x="941" y="548" on="1"/>
        <pt x="932" y="503" on="0"/>
        <pt x="875" y="388" on="0"/>
        <pt x="794" y="277" on="0"/>
        <pt x="698" y="175" on="0"/>
        <pt x="651" y="143" on="1"/>
        <pt x="429" y="0" on="1"/>
        <pt x="405" y="7" on="0"/>
        <pt x="325" y="37" on="0"/>
        <pt x="227" y="91" on="0"/>
        <pt x="115" y="170" on="0"/>
        <pt x="58" y="226" on="1"/>
        <pt x="42" y="242" on="0"/>
        <pt x="13" y="275" on="0"/>
      </contour>
    </TTGlyph>
    <TTGlyph name="Jcircumflex" xMin="0" yMin="0" xMax="1217" yMax="1895">
      <component glyphName="J" x="0" y="0" flags="0x204"/>
      <component glyphName="circumflex" x="370" y="386" flags="0x4"/>
    </TTGlyph>
    <TTGlyph name="K" xMin="150" yMin="0" xMax="1122" yMax="1511">
      <contour>
        <pt x="150" y="0" on="1"/>
        <pt x="172" y="150" on="0"/>
        <pt x="193" y="484" on="0"/>
        <pt x="193" y="672" on="1"/>
        <pt x="192" y="936" on="0"/>
        <pt x="173" y="1294" on="0"/>
        <pt x="156" y="1388" on="1"/>
        <pt x="150" y="1422" on="1"/>
        <pt x="211" y="1429" on="0"/>
        <pt x="332" y="1472" on="0"/>
        <pt x="402" y="1511" on="1"/>
        <pt x="357" y="1229" on="0"/>
        <pt x="357" y="788" on="1"/>
        <pt x="357" y="740" on="0"/>
        <pt x="358" y="653" on="0"/>
        <pt x="359" y="611" on="1"/>
        <pt x="451" y="717" on="0"/>
        <pt x="624" y="969" on="1"/>
        <pt x="752" y="1158" on="0"/>
        <pt x="882" y="1379" on="0"/>
        <pt x="882" y="1413" on="1"/>
        <pt x="882" y="1426" on="1"/>
        <pt x="1041" y="1455" on="0"/>
        <pt x="1100" y="1511" on="1"/>
        <pt x="950" y="1349" on="0"/>
        <pt x="694" y="940" on="1"/>
        <pt x="720" y="854" on="0"/>
        <pt x="786" y="685" on="0"/>
        <pt x="883" y="487" on="0"/>
        <pt x="1022" y="246" on="0"/>
        <pt x="1122" y="89" on="1"/>
        <pt x="1061" y="82" on="0"/>
        <pt x="940" y="39" on="0"/>
        <pt x="870" y="0" on="1"/>
        <pt x="813" y="208" on="0"/>
        <pt x="658" y="580" on="0"/>
        <pt x="550" y="730" on="1"/>
        <pt x="443" y="569" on="0"/>
        <pt x="367" y="391" on="1"/>
        <pt x="372" y="303" on="0"/>
        <pt x="384" y="173" on="0"/>
        <pt x="394" y="128" on="1"/>
        <pt x="402" y="92" on="1"/>
        <pt x="359" y="87" on="0"/>
        <pt x="282" y="66" on="0"/>
        <pt x="217" y="40" on="0"/>
        <pt x="166" y="12" on="0"/>
      </contour>
    </TTGlyph>
    <TTGlyph name="Kcommaaccent" xMin="150" yMin="-387" xMax="1122" yMax="1511">
      <component glyphName="K" x="0" y="0" flags="0x204"/>
      <component glyphName="commaaccent" x="144" y="0" flags="0x4"/>
    </TTGlyph>
    <TTGlyph name="L" xMin="150" yMin="0" xMax="1008" yMax="1511">
      <contour>
        <pt x="520" y="42" on="1"/>
        <pt x="349" y="42" on="0"/>
        <pt x="150" y="0" on="1"/>
        <pt x="172" y="150" on="0"/>
        <pt x="193" y="484" on="0"/>
        <pt x="193" y="672" on="1"/>
        <pt x="192" y="936" on="0"/>
        <pt x="173" y="1294" on="0"/>
        <pt x="156" y="1388" on="1"/>
        <pt x="150" y="1422" on="1"/>
        <pt x="211" y="1429" on="0"/>
        <pt x="332" y="1472" on="0"/>
        <pt x="402" y="1511" on="1"/>
        <pt x="357" y="1229" on="0"/>
        <pt x="357" y="823" on="1"/>
        <pt x="357" y="788" on="1"/>
        <pt x="357" y="330" on="0"/>
        <pt x="391" y="145" on="1"/>
        <pt x="418" y="137" on="0"/>
        <pt x="438" y="137" on="1"/>
        <pt x="782" y="137" on="0"/>
        <pt x="1008" y="252" on="1"/>
        <pt x="989" y="217" on="0"/>
        <pt x="949" y="90" on="0"/>
        <pt x="941" y="0" on="1"/>
        <pt x="915" y="8" on="1"/>
        <pt x="806" y="42" on="0"/>
      </contour>
    </TTGlyph>
    <TTGlyph name="Lacute" xMin="68" yMin="0" xMax="1008" yMax="1898">
      <component glyphName="L" x="0" y="0" flags="0x204"/>
      <component glyphName="acute" x="-82" y="386" flags="0x4"/>
    </TTGlyph>
    <TTGlyph name="Lcaron" xMin="150" yMin="0" xMax="1008" yMax="1512">
      <component glyphName="L" x="0" y="0" flags="0x204"/>
      <component glyphName="acute" x="262" y="0" flags="0x4"/>
    </TTGlyph>
    <TTGlyph name="Lcommaaccent" xMin="150" yMin="-387" xMax="1008" yMax="1511">
      <component glyphName="L" x="0" y="0" flags="0x204"/>
      <component glyphName="commaaccent" x="144" y="0" flags="0x4"/>
    </TTGlyph>
    <TTGlyph name="Ldot" xMin="150" yMin="0" xMax="1008" yMax="1511">
      <component glyphName="L" x="0" y="0" flags="0x204"/>
      <component glyphName="dotaccent" x="327" y="-452" flags="0x4"/>
    </TTGlyph>
    <TTGlyph name="Lslash" xMin="78" yMin="0" xMax="1008" yMax="1511">
      <contour>
        <pt x="520" y="42" on="1"/>
        <pt x="349" y="42" on="0"/>
        <pt x="150" y="0" on="1"/>
        <pt x="180" y="211" on="0"/>
        <pt x="189" y="459" on="1"/>
        <pt x="176" y="443" on="0"/>
        <pt x="158" y="419" on="0"/>
        <pt x="151" y="409" on="1"/>
        <pt x="143" y="437" on="0"/>
        <pt x="110" y="503" on="0"/>
        <pt x="78" y="543" on="1"/>
        <pt x="93" y="551" on="1"/>
        <pt x="117" y="564" on="0"/>
        <pt x="193" y="632" on="1"/>
        <pt x="193" y="672" on="1"/>
        <pt x="192" y="936" on="0"/>
        <pt x="173" y="1294" on="0"/>
        <pt x="156" y="1388" on="1"/>
        <pt x="150" y="1422" on="1"/>
        <pt x="211" y="1429" on="0"/>
        <pt x="332" y="1472" on="0"/>
        <pt x="402" y="1511" on="1"/>
        <pt x="357" y="1229" on="0"/>
        <pt x="357" y="823" on="1"/>
        <pt x="357" y="786" on="1"/>
        <pt x="369" y="798" on="1"/>
        <pt x="613" y="1045" on="0"/>
        <pt x="666" y="1130" on="1"/>
        <pt x="689" y="1060" on="0"/>
        <pt x="741" y="997" on="1"/>
        <pt x="727" y="989" on="1"/>
        <pt x="700" y="974" on="0"/>
        <pt x="559" y="844" on="0"/>
        <pt x="442" y="732" on="1"/>
        <pt x="358" y="645" on="1"/>
        <pt x="363" y="301" on="0"/>
        <pt x="391" y="145" on="1"/>
        <pt x="418" y="137" on="0"/>
        <pt x="438" y="137" on="1"/>
        <pt x="782" y="137" on="0"/>
        <pt x="1008" y="252" on="1"/>
        <pt x="989" y="217" on="0"/>
        <pt x="949" y="90" on="0"/>
        <pt x="941" y="0" on="1"/>
        <pt x="915" y="8" on="1"/>
        <pt x="806" y="42" on="0"/>
      </contour>
    </TTGlyph>
    <TTGlyph name="M" xMin="50" yMin="0" xMax="1655" yMax="1513">
      <contour>
        <pt x="50" y="0" on="1"/>
        <pt x="100" y="167" on="0"/>
        <pt x="185" y="740" on="1"/>
        <pt x="227" y="1023" on="0"/>
        <pt x="253" y="1268" on="1"/>
        <pt x="202" y="1364" on="0"/>
        <pt x="158" y="1421" on="1"/>
        <pt x="218" y="1428" on="0"/>
        <pt x="280" y="1449" on="1"/>
        <pt x="371" y="1480" on="0"/>
        <pt x="410" y="1511" on="1"/>
        <pt x="410" y="1509" on="1"/>
        <pt x="412" y="1511" on="1"/>
        <pt x="411" y="1509" on="1"/>
        <pt x="441" y="1387" on="0"/>
        <pt x="629" y="790" on="1"/>
        <pt x="765" y="360" on="0"/>
        <pt x="818" y="297" on="1"/>
        <pt x="873" y="376" on="0"/>
        <pt x="1032" y="807" on="1"/>
        <pt x="1182" y="1214" on="0"/>
        <pt x="1218" y="1352" on="1"/>
        <pt x="1213" y="1366" on="0"/>
        <pt x="1199" y="1392" on="1"/>
        <pt x="1182" y="1424" on="1"/>
        <pt x="1303" y="1438" on="0"/>
        <pt x="1427" y="1509" on="1"/>
        <pt x="1434" y="1513" on="1"/>
        <pt x="1434" y="1512" on="1"/>
        <pt x="1434" y="1511" on="1"/>
        <pt x="1434" y="1190" on="0"/>
        <pt x="1491" y="800" on="1"/>
        <pt x="1560" y="330" on="0"/>
        <pt x="1637" y="128" on="1"/>
        <pt x="1650" y="94" on="0"/>
        <pt x="1655" y="92" on="1"/>
        <pt x="1587" y="84" on="0"/>
        <pt x="1533" y="64" on="1"/>
        <pt x="1446" y="32" on="0"/>
        <pt x="1403" y="0" on="1"/>
        <pt x="1405" y="19" on="0"/>
        <pt x="1405" y="47" on="1"/>
        <pt x="1403" y="236" on="0"/>
        <pt x="1335" y="784" on="1"/>
        <pt x="1307" y="1011" on="0"/>
        <pt x="1273" y="1165" on="1"/>
        <pt x="1124" y="801" on="1"/>
        <pt x="967" y="403" on="0"/>
        <pt x="929" y="129" on="1"/>
        <pt x="925" y="100" on="0"/>
        <pt x="924" y="99" on="1"/>
        <pt x="925" y="89" on="1"/>
        <pt x="804" y="75" on="0"/>
        <pt x="680" y="4" on="1"/>
        <pt x="673" y="0" on="1"/>
        <pt x="641" y="302" on="0"/>
        <pt x="470" y="760" on="1"/>
        <pt x="389" y="977" on="0"/>
        <pt x="320" y="1129" on="1"/>
        <pt x="292" y="962" on="0"/>
        <pt x="261" y="736" on="1"/>
        <pt x="213" y="392" on="0"/>
        <pt x="201" y="112" on="1"/>
        <pt x="200" y="89" on="1"/>
        <pt x="124" y="74" on="0"/>
        <pt x="54" y="4" on="1"/>
      </contour>
    </TTGlyph>
    <TTGlyph name="N" xMin="90" yMin="0" xMax="1142" yMax="1511">
      <contour>
        <pt x="103" y="1406" on="1"/>
        <pt x="90" y="1421" on="1"/>
        <pt x="241" y="1439" on="0"/>
        <pt x="342" y="1511" on="1"/>
        <pt x="389" y="1347" on="0"/>
        <pt x="528" y="1024" on="0"/>
        <pt x="704" y="712" on="0"/>
        <pt x="900" y="411" on="0"/>
        <pt x="1007" y="271" on="1"/>
        <pt x="1019" y="472" on="0"/>
        <pt x="1019" y="689" on="1"/>
        <pt x="1019" y="722" on="1"/>
        <pt x="1018" y="964" on="0"/>
        <pt x="1008" y="1290" on="0"/>
        <pt x="996" y="1383" on="1"/>
        <pt x="991" y="1421" on="1"/>
        <pt x="1019" y="1426" on="0"/>
        <pt x="1065" y="1446" on="0"/>
        <pt x="1103" y="1472" on="0"/>
        <pt x="1141" y="1511" on="1"/>
        <pt x="1128" y="1367" on="0"/>
        <pt x="1116" y="1037" on="0"/>
        <pt x="1116" y="842" on="1"/>
        <pt x="1116" y="602" on="0"/>
        <pt x="1126" y="247" on="0"/>
        <pt x="1138" y="126" on="1"/>
        <pt x="1142" y="92" on="1"/>
        <pt x="1101" y="87" on="0"/>
        <pt x="1025" y="67" on="0"/>
        <pt x="959" y="41" on="0"/>
        <pt x="907" y="13" on="0"/>
        <pt x="890" y="0" on="1"/>
        <pt x="867" y="122" on="0"/>
        <pt x="512" y="746" on="1"/>
        <pt x="317" y="1080" on="1"/>
        <pt x="314" y="975" on="0"/>
        <pt x="314" y="853" on="1"/>
        <pt x="314" y="605" on="0"/>
        <pt x="324" y="244" on="0"/>
        <pt x="336" y="123" on="1"/>
        <pt x="340" y="89" on="1"/>
        <pt x="268" y="75" on="0"/>
        <pt x="190" y="0" on="1"/>
        <pt x="217" y="298" on="0"/>
        <pt x="217" y="691" on="1"/>
        <pt x="217" y="719" on="1"/>
        <pt x="217" y="888" on="0"/>
        <pt x="211" y="1157" on="0"/>
        <pt x="204" y="1263" on="1"/>
        <pt x="172" y="1314" on="0"/>
        <pt x="122" y="1386" on="0"/>
      </contour>
    </TTGlyph>
    <TTGlyph name="Nacute" xMin="90" yMin="0" xMax="1142" yMax="1898">
      <component glyphName="N" x="0" y="0" flags="0x204"/>
      <component glyphName="acute" x="396" y="386" flags="0x4"/>
    </TTGlyph>
    <TTGlyph name="Ncaron" xMin="90" yMin="0" xMax="1142" yMax="1893">
      <component glyphName="N" x="0" y="0" flags="0x204"/>
      <component glyphName="caron" x="146" y="386" flags="0x4"/>
    </TTGlyph>
    <TTGlyph name="Ncommaaccent" xMin="90" yMin="-387" xMax="1142" yMax="1511">
      <component glyphName="N" x="0" y="0" flags="0x204"/>
      <component glyphName="commaaccent" x="144" y="0" flags="0x4"/>
    </TTGlyph>
    <TTGlyph name="Ntilde" xMin="90" yMin="0" xMax="1142" yMax="1848">
      <component glyphName="N" x="0" y="0" flags="0x204"/>
      <component glyphName="tilde" x="144" y="337" flags="0x4"/>
    </TTGlyph>
    <TTGlyph name="O" xMin="120" yMin="0" xMax="1234" yMax="1515">
      <contour>
        <pt x="443" y="1370" on="1"/>
        <pt x="358" y="1320" on="0"/>
        <pt x="311" y="1104" on="1"/>
        <pt x="281" y="965" on="0"/>
        <pt x="281" y="848" on="1"/>
        <pt x="281" y="796" on="0"/>
        <pt x="287" y="749" on="1"/>
        <pt x="304" y="618" on="0"/>
        <pt x="381" y="478" on="1"/>
        <pt x="452" y="352" on="0"/>
        <pt x="601" y="260" on="1"/>
        <pt x="744" y="172" on="0"/>
        <pt x="911" y="142" on="1"/>
        <pt x="913" y="143" on="1"/>
        <pt x="1006" y="195" on="0"/>
        <pt x="1049" y="423" on="1"/>
        <pt x="1074" y="554" on="0"/>
        <pt x="1074" y="662" on="1"/>
        <pt x="1074" y="714" on="0"/>
        <pt x="1068" y="763" on="1"/>
        <pt x="1053" y="889" on="0"/>
        <pt x="974" y="1034" on="1"/>
        <pt x="903" y="1163" on="0"/>
        <pt x="760" y="1247" on="1"/>
        <pt x="616" y="1331" on="0"/>
      </contour>
      <contour>
        <pt x="701" y="0" on="1"/>
        <pt x="630" y="19" on="0"/>
        <pt x="521" y="78" on="1"/>
        <pt x="419" y="134" on="0"/>
        <pt x="331" y="223" on="1"/>
        <pt x="219" y="336" on="0"/>
        <pt x="174" y="470" on="1"/>
        <pt x="120" y="621" on="0"/>
        <pt x="120" y="750" on="1"/>
        <pt x="120" y="753" on="0"/>
        <pt x="120" y="755" on="1"/>
        <pt x="120" y="897" on="0"/>
        <pt x="182" y="1050" on="1"/>
        <pt x="227" y="1163" on="0"/>
        <pt x="308" y="1257" on="1"/>
        <pt x="372" y="1332" on="0"/>
        <pt x="431" y="1372" on="1"/>
        <pt x="653" y="1515" on="1"/>
        <pt x="716" y="1498" on="0"/>
        <pt x="834" y="1434" on="1"/>
        <pt x="923" y="1386" on="0"/>
        <pt x="1024" y="1289" on="1"/>
        <pt x="1137" y="1175" on="0"/>
        <pt x="1182" y="1034" on="1"/>
        <pt x="1233" y="885" on="0"/>
        <pt x="1234" y="757" on="1"/>
        <pt x="1234" y="757" on="0"/>
        <pt x="1234" y="751" on="1"/>
        <pt x="1234" y="590" on="0"/>
        <pt x="1178" y="459" on="1"/>
        <pt x="1124" y="333" on="0"/>
        <pt x="1049" y="258" on="1"/>
        <pt x="945" y="154" on="0"/>
        <pt x="924" y="140" on="1"/>
      </contour>
    </TTGlyph>
    <TTGlyph name="OE" xMin="120" yMin="0" xMax="1896" yMax="1515">
      <contour>
        <pt x="701" y="0" on="1"/>
        <pt x="668" y="9" on="0"/>
        <pt x="578" y="47" on="0"/>
        <pt x="477" y="103" on="0"/>
        <pt x="376" y="178" on="0"/>
        <pt x="331" y="223" on="1"/>
        <pt x="272" y="282" on="0"/>
        <pt x="191" y="418" on="0"/>
        <pt x="142" y="557" on="0"/>
        <pt x="120" y="692" on="0"/>
        <pt x="120" y="755" on="1"/>
        <pt x="120" y="830" on="0"/>
        <pt x="160" y="1004" on="0"/>
        <pt x="239" y="1172" on="0"/>
        <pt x="355" y="1321" on="0"/>
        <pt x="431" y="1372" on="1"/>
        <pt x="653" y="1515" on="1"/>
        <pt x="679" y="1508" on="0"/>
        <pt x="778" y="1466" on="0"/>
        <pt x="894" y="1401" on="0"/>
        <pt x="1013" y="1308" on="0"/>
        <pt x="1060" y="1249" on="1"/>
        <pt x="1056" y="1292" on="0"/>
        <pt x="1049" y="1362" on="0"/>
        <pt x="1044" y="1388" on="1"/>
        <pt x="1038" y="1422" on="1"/>
        <pt x="1099" y="1429" on="0"/>
        <pt x="1220" y="1472" on="0"/>
        <pt x="1290" y="1511" on="1"/>
        <pt x="1353" y="1487" on="0"/>
        <pt x="1473" y="1460" on="0"/>
        <pt x="1550" y="1460" on="1"/>
        <pt x="1681" y="1460" on="0"/>
        <pt x="1837" y="1511" on="1"/>
        <pt x="1764" y="1379" on="0"/>
        <pt x="1757" y="1259" on="1"/>
        <pt x="1571" y="1269" on="0"/>
        <pt x="1446" y="1360" on="1"/>
        <pt x="1386" y="1406" on="0"/>
        <pt x="1307" y="1471" on="0"/>
        <pt x="1287" y="1491" on="1"/>
        <pt x="1245" y="1216" on="0"/>
        <pt x="1245" y="830" on="1"/>
        <pt x="1245" y="812" on="1"/>
        <pt x="1521" y="826" on="0"/>
        <pt x="1717" y="925" on="1"/>
        <pt x="1697" y="887" on="0"/>
        <pt x="1658" y="756" on="0"/>
        <pt x="1650" y="673" on="1"/>
        <pt x="1623" y="681" on="1"/>
        <pt x="1509" y="715" on="0"/>
        <pt x="1286" y="715" on="1"/>
        <pt x="1246" y="715" on="1"/>
        <pt x="1250" y="305" on="0"/>
        <pt x="1279" y="145" on="1"/>
        <pt x="1309" y="137" on="0"/>
        <pt x="1326" y="137" on="1"/>
        <pt x="1670" y="137" on="0"/>
        <pt x="1896" y="252" on="1"/>
        <pt x="1878" y="217" on="0"/>
        <pt x="1839" y="98" on="0"/>
        <pt x="1829" y="0" on="1"/>
        <pt x="1803" y="8" on="1"/>
        <pt x="1694" y="42" on="0"/>
        <pt x="1408" y="42" on="1"/>
        <pt x="1237" y="42" on="0"/>
        <pt x="1038" y="0" on="1"/>
        <pt x="1058" y="131" on="0"/>
        <pt x="1068" y="278" on="1"/>
        <pt x="1049" y="258" on="1"/>
        <pt x="944" y="153" on="0"/>
        <pt x="924" y="140" on="1"/>
      </contour>
      <contour>
        <pt x="443" y="1370" on="1"/>
        <pt x="357" y="1319" on="0"/>
        <pt x="311" y="1104" on="1"/>
        <pt x="281" y="964" on="0"/>
        <pt x="281" y="848" on="1"/>
        <pt x="281" y="784" on="0"/>
        <pt x="307" y="643" on="0"/>
        <pt x="365" y="501" on="0"/>
        <pt x="461" y="365" on="0"/>
        <pt x="603" y="252" on="0"/>
        <pt x="789" y="164" on="0"/>
        <pt x="911" y="142" on="1"/>
        <pt x="1006" y="195" on="0"/>
        <pt x="1049" y="423" on="1"/>
        <pt x="1062" y="489" on="0"/>
        <pt x="1074" y="608" on="0"/>
        <pt x="1074" y="662" on="1"/>
        <pt x="1074" y="729" on="0"/>
        <pt x="1045" y="888" on="0"/>
        <pt x="973" y="1047" on="0"/>
        <pt x="852" y="1193" on="0"/>
        <pt x="760" y="1247" on="1"/>
        <pt x="616" y="1331" on="0"/>
      </contour>
    </TTGlyph>
    <TTGlyph name="Oacute" xMin="120" yMin="0" xMax="1234" yMax="1898">
      <component glyphName="O" x="0" y="0" flags="0x204"/>
      <component glyphName="acute" x="395" y="386" flags="0x4"/>
    </TTGlyph>
    <TTGlyph name="Obreve" xMin="120" yMin="0" xMax="1234" yMax="1877">
      <component glyphName="O" x="0" y="0" flags="0x204"/>
      <component glyphName="breve" x="212" y="364" flags="0x4"/>
    </TTGlyph>
    <TTGlyph name="Ocircumflex" xMin="120" yMin="0" xMax="1234" yMax="1895">
      <component glyphName="O" x="0" y="0" flags="0x204"/>
      <component glyphName="circumflex" x="194" y="386" flags="0x4"/>
    </TTGlyph>
    <TTGlyph name="Odieresis" xMin="120" yMin="0" xMax="1234" yMax="1909">
      <component glyphName="O" x="0" y="0" flags="0x204"/>
      <component glyphName="dieresis" x="165" y="358" flags="0x4"/>
    </TTGlyph>
    <TTGlyph name="Ograve" xMin="120" yMin="0" xMax="1234" yMax="1898">
      <component glyphName="O" x="0" y="0" flags="0x204"/>
      <component glyphName="grave" x="152" y="386" flags="0x4"/>
    </TTGlyph>
    <TTGlyph name="Ohungarumlaut" xMin="120" yMin="0" xMax="1234" yMax="1900">
      <component glyphName="O" x="0" y="0" flags="0x204"/>
      <component glyphName="hungarumlaut" x="149" y="386" flags="0x4"/>
    </TTGlyph>
    <TTGlyph name="Omacron" xMin="120" yMin="0" xMax="1234" yMax="1773">
      <component glyphName="O" x="0" y="0" flags="0x204"/>
      <component glyphName="macron" x="180" y="259" flags="0x4"/>
    </TTGlyph>
    <TTGlyph name="Omega" xMin="0" yMin="0" xMax="1522" yMax="1515">
      <contour>
        <pt x="0" y="0" on="1"/>
        <pt x="17" y="34" on="0"/>
        <pt x="59" y="159" on="0"/>
        <pt x="67" y="252" on="1"/>
        <pt x="93" y="244" on="1"/>
        <pt x="156" y="224" on="0"/>
        <pt x="318" y="209" on="0"/>
        <pt x="418" y="208" on="1"/>
        <pt x="429" y="208" on="1"/>
        <pt x="355" y="282" on="0"/>
        <pt x="274" y="418" on="0"/>
        <pt x="225" y="557" on="0"/>
        <pt x="203" y="692" on="0"/>
        <pt x="203" y="755" on="1"/>
        <pt x="203" y="830" on="0"/>
        <pt x="243" y="1004" on="0"/>
        <pt x="322" y="1172" on="0"/>
        <pt x="438" y="1318" on="0"/>
        <pt x="514" y="1372" on="1"/>
        <pt x="736" y="1515" on="1"/>
        <pt x="756" y="1509" on="0"/>
        <pt x="836" y="1478" on="0"/>
        <pt x="937" y="1423" on="0"/>
        <pt x="1049" y="1345" on="0"/>
        <pt x="1153" y="1242" on="0"/>
        <pt x="1240" y="1113" on="0"/>
        <pt x="1265" y="1034" on="1"/>
        <pt x="1315" y="887" on="0"/>
        <pt x="1317" y="751" on="1"/>
        <pt x="1317" y="668" on="0"/>
        <pt x="1284" y="512" on="0"/>
        <pt x="1224" y="373" on="0"/>
        <pt x="1142" y="252" on="0"/>
        <pt x="1100" y="211" on="1"/>
        <pt x="1092" y="199" on="1"/>
        <pt x="1114" y="197" on="1"/>
        <pt x="1149" y="197" on="0"/>
        <pt x="1352" y="224" on="0"/>
        <pt x="1522" y="252" on="1"/>
        <pt x="1493" y="184" on="0"/>
        <pt x="1462" y="63" on="0"/>
        <pt x="1457" y="0" on="1"/>
        <pt x="1432" y="6" on="1"/>
        <pt x="1264" y="39" on="0"/>
        <pt x="1223" y="39" on="1"/>
        <pt x="1188" y="39" on="1"/>
        <pt x="1020" y="39" on="0"/>
        <pt x="956" y="0" on="1"/>
        <pt x="1014" y="105" on="0"/>
        <pt x="1091" y="277" on="0"/>
        <pt x="1137" y="432" on="0"/>
        <pt x="1157" y="581" on="0"/>
        <pt x="1157" y="662" on="1"/>
        <pt x="1158" y="741" on="0"/>
        <pt x="1128" y="888" on="0"/>
        <pt x="1056" y="1047" on="0"/>
        <pt x="935" y="1193" on="0"/>
        <pt x="843" y="1247" on="1"/>
        <pt x="699" y="1331" on="0"/>
        <pt x="526" y="1370" on="1"/>
        <pt x="440" y="1319" on="0"/>
        <pt x="394" y="1104" on="1"/>
        <pt x="364" y="964" on="0"/>
        <pt x="364" y="848" on="1"/>
        <pt x="364" y="799" on="0"/>
        <pt x="376" y="708" on="0"/>
        <pt x="403" y="619" on="0"/>
        <pt x="449" y="529" on="0"/>
        <pt x="484" y="481" on="1"/>
        <pt x="583" y="343" on="0"/>
        <pt x="736" y="252" on="1"/>
        <pt x="707" y="184" on="0"/>
        <pt x="676" y="63" on="0"/>
        <pt x="671" y="0" on="1"/>
        <pt x="646" y="6" on="1"/>
        <pt x="450" y="44" on="0"/>
        <pt x="382" y="44" on="1"/>
        <pt x="347" y="44" on="1"/>
        <pt x="218" y="44" on="0"/>
      </contour>
    </TTGlyph>
    <TTGlyph name="Oslash" xMin="120" yMin="-96" xMax="1234" yMax="1626">
      <contour>
        <pt x="701" y="0" on="1"/>
        <pt x="630" y="19" on="0"/>
        <pt x="521" y="78" on="1"/>
        <pt x="496" y="93" on="1"/>
        <pt x="476" y="39" on="0"/>
        <pt x="443" y="-54" on="0"/>
        <pt x="432" y="-96" on="1"/>
        <pt x="362" y="-57" on="0"/>
        <pt x="241" y="-14" on="0"/>
        <pt x="180" y="-7" on="1"/>
        <pt x="234" y="60" on="0"/>
        <pt x="327" y="227" on="1"/>
        <pt x="269" y="287" on="0"/>
        <pt x="190" y="422" on="0"/>
        <pt x="141" y="560" on="0"/>
        <pt x="120" y="693" on="0"/>
        <pt x="120" y="755" on="1"/>
        <pt x="120" y="830" on="0"/>
        <pt x="160" y="1004" on="0"/>
        <pt x="239" y="1172" on="0"/>
        <pt x="355" y="1317" on="0"/>
        <pt x="431" y="1372" on="1"/>
        <pt x="653" y="1515" on="1"/>
        <pt x="706" y="1500" on="0"/>
        <pt x="834" y="1434" on="1"/>
        <pt x="845" y="1428" on="0"/>
        <pt x="869" y="1414" on="0"/>
        <pt x="881" y="1406" on="1"/>
        <pt x="901" y="1462" on="0"/>
        <pt x="937" y="1571" on="0"/>
        <pt x="954" y="1626" on="1"/>
        <pt x="973" y="1612" on="0"/>
        <pt x="1027" y="1583" on="0"/>
        <pt x="1093" y="1558" on="0"/>
        <pt x="1167" y="1538" on="0"/>
        <pt x="1206" y="1534" on="1"/>
        <pt x="1050" y="1261" on="1"/>
        <pt x="1100" y="1205" on="0"/>
        <pt x="1171" y="1076" on="0"/>
        <pt x="1213" y="943" on="0"/>
        <pt x="1233" y="814" on="0"/>
        <pt x="1234" y="757" on="1"/>
        <pt x="1234" y="672" on="0"/>
        <pt x="1205" y="527" on="0"/>
        <pt x="1154" y="400" on="0"/>
        <pt x="1087" y="296" on="0"/>
        <pt x="1049" y="258" on="1"/>
        <pt x="944" y="153" on="0"/>
        <pt x="924" y="140" on="1"/>
      </contour>
      <contour>
        <pt x="443" y="1370" on="1"/>
        <pt x="357" y="1319" on="0"/>
        <pt x="311" y="1104" on="1"/>
        <pt x="281" y="964" on="0"/>
        <pt x="281" y="848" on="1"/>
        <pt x="281" y="736" on="0"/>
        <pt x="352" y="508" on="0"/>
        <pt x="426" y="411" on="1"/>
        <pt x="612" y="778" on="1"/>
        <pt x="667" y="890" on="0"/>
        <pt x="765" y="1108" on="0"/>
        <pt x="808" y="1216" on="1"/>
        <pt x="735" y="1270" on="0"/>
        <pt x="547" y="1347" on="0"/>
      </contour>
      <contour>
        <pt x="571" y="279" on="1"/>
        <pt x="601" y="260" on="1"/>
        <pt x="672" y="215" on="0"/>
        <pt x="827" y="158" on="0"/>
        <pt x="911" y="142" on="1"/>
        <pt x="1006" y="195" on="0"/>
        <pt x="1049" y="423" on="1"/>
        <pt x="1062" y="489" on="0"/>
        <pt x="1074" y="608" on="0"/>
        <pt x="1074" y="662" on="1"/>
        <pt x="1074" y="709" on="0"/>
        <pt x="1063" y="809" on="0"/>
        <pt x="1033" y="913" on="0"/>
        <pt x="985" y="1020" on="0"/>
        <pt x="950" y="1073" on="1"/>
        <pt x="768" y="703" on="1"/>
        <pt x="709" y="583" on="0"/>
        <pt x="611" y="373" on="0"/>
      </contour>
    </TTGlyph>
    <TTGlyph name="Otilde" xMin="120" yMin="0" xMax="1234" yMax="1848">
      <component glyphName="O" x="0" y="0" flags="0x204"/>
      <component glyphName="tilde" x="144" y="337" flags="0x4"/>
    </TTGlyph>
    <TTGlyph name="P" xMin="90" yMin="0" xMax="1214" yMax="1515">
      <contour>
        <pt x="200" y="0" on="1"/>
        <pt x="222" y="153" on="0"/>
        <pt x="244" y="425" on="0"/>
        <pt x="244" y="546" on="1"/>
        <pt x="244" y="686" on="0"/>
        <pt x="221" y="941" on="0"/>
        <pt x="206" y="1056" on="1"/>
        <pt x="200" y="1090" on="1"/>
        <pt x="261" y="1097" on="0"/>
        <pt x="382" y="1140" on="0"/>
        <pt x="452" y="1179" on="1"/>
        <pt x="429" y="1033" on="0"/>
        <pt x="406" y="789" on="0"/>
        <pt x="406" y="689" on="1"/>
        <pt x="406" y="671" on="0"/>
        <pt x="406" y="641" on="0"/>
        <pt x="408" y="605" on="0"/>
        <pt x="410" y="557" on="0"/>
        <pt x="412" y="522" on="1"/>
        <pt x="431" y="513" on="1"/>
        <pt x="555" y="468" on="0"/>
        <pt x="654" y="468" on="1"/>
        <pt x="723" y="468" on="0"/>
        <pt x="845" y="506" on="0"/>
        <pt x="943" y="577" on="0"/>
        <pt x="1007" y="680" on="0"/>
        <pt x="1019" y="744" on="1"/>
        <pt x="1025" y="780" on="0"/>
        <pt x="1032" y="843" on="0"/>
        <pt x="1032" y="871" on="1"/>
        <pt x="1032" y="921" on="0"/>
        <pt x="1010" y="1016" on="0"/>
        <pt x="974" y="1101" on="0"/>
        <pt x="927" y="1172" on="0"/>
        <pt x="902" y="1199" on="1"/>
        <pt x="879" y="1223" on="0"/>
        <pt x="808" y="1267" on="0"/>
        <pt x="718" y="1301" on="0"/>
        <pt x="611" y="1321" on="0"/>
        <pt x="550" y="1321" on="1"/>
        <pt x="498" y="1321" on="0"/>
        <pt x="383" y="1296" on="0"/>
        <pt x="265" y="1250" on="0"/>
        <pt x="146" y="1184" on="0"/>
        <pt x="90" y="1142" on="1"/>
        <pt x="157" y="1404" on="1"/>
        <pt x="235" y="1435" on="0"/>
        <pt x="315" y="1467" on="0"/>
        <pt x="319" y="1468" on="1"/>
        <pt x="409" y="1492" on="0"/>
        <pt x="535" y="1515" on="0"/>
        <pt x="576" y="1515" on="1"/>
        <pt x="623" y="1515" on="0"/>
        <pt x="742" y="1492" on="0"/>
        <pt x="867" y="1445" on="0"/>
        <pt x="986" y="1376" on="0"/>
        <pt x="1034" y="1331" on="1"/>
        <pt x="1074" y="1293" on="0"/>
        <pt x="1140" y="1196" on="0"/>
        <pt x="1188" y="1086" on="0"/>
        <pt x="1214" y="966" on="0"/>
        <pt x="1214" y="900" on="1"/>
        <pt x="1213" y="853" on="0"/>
        <pt x="1190" y="740" on="0"/>
        <pt x="1144" y="624" on="0"/>
        <pt x="1060" y="520" on="0"/>
        <pt x="945" y="437" on="0"/>
        <pt x="790" y="387" on="0"/>
        <pt x="690" y="387" on="1"/>
        <pt x="624" y="387" on="0"/>
        <pt x="495" y="408" on="0"/>
        <pt x="431" y="426" on="1"/>
        <pt x="416" y="429" on="1"/>
        <pt x="424" y="295" on="0"/>
        <pt x="436" y="138" on="0"/>
        <pt x="444" y="115" on="1"/>
        <pt x="452" y="92" on="1"/>
        <pt x="405" y="87" on="0"/>
        <pt x="329" y="67" on="0"/>
        <pt x="267" y="41" on="0"/>
        <pt x="219" y="13" on="0"/>
      </contour>
    </TTGlyph>
    <TTGlyph name="Pi" xMin="150" yMin="0" xMax="1170" yMax="1511">
      <contour>
        <pt x="159" y="0" on="1"/>
        <pt x="181" y="150" on="0"/>
        <pt x="202" y="484" on="0"/>
        <pt x="202" y="672" on="1"/>
        <pt x="202" y="937" on="0"/>
        <pt x="181" y="1296" on="0"/>
        <pt x="166" y="1393" on="1"/>
        <pt x="150" y="1510" on="1"/>
        <pt x="180" y="1499" on="0"/>
        <pt x="275" y="1481" on="0"/>
        <pt x="410" y="1468" on="0"/>
        <pt x="586" y="1461" on="0"/>
        <pt x="697" y="1461" on="1"/>
        <pt x="717" y="1461" on="1"/>
        <pt x="940" y="1461" on="0"/>
        <pt x="1170" y="1511" on="1"/>
        <pt x="1125" y="1227" on="0"/>
        <pt x="1125" y="823" on="1"/>
        <pt x="1125" y="788" on="1"/>
        <pt x="1126" y="546" on="0"/>
        <pt x="1142" y="218" on="0"/>
        <pt x="1162" y="128" on="1"/>
        <pt x="1170" y="92" on="1"/>
        <pt x="1128" y="87" on="0"/>
        <pt x="1051" y="66" on="0"/>
        <pt x="986" y="40" on="0"/>
        <pt x="934" y="12" on="0"/>
        <pt x="918" y="0" on="1"/>
        <pt x="940" y="159" on="0"/>
        <pt x="961" y="504" on="0"/>
        <pt x="961" y="694" on="1"/>
        <pt x="961" y="901" on="0"/>
        <pt x="945" y="1197" on="0"/>
        <pt x="937" y="1284" on="1"/>
        <pt x="867" y="1291" on="0"/>
        <pt x="710" y="1298" on="0"/>
        <pt x="620" y="1298" on="1"/>
        <pt x="585" y="1298" on="1"/>
        <pt x="483" y="1298" on="0"/>
        <pt x="389" y="1289" on="1"/>
        <pt x="378" y="1169" on="0"/>
        <pt x="368" y="883" on="0"/>
        <pt x="367" y="713" on="1"/>
        <pt x="370" y="497" on="0"/>
        <pt x="386" y="206" on="0"/>
        <pt x="403" y="128" on="1"/>
        <pt x="411" y="92" on="1"/>
        <pt x="368" y="87" on="0"/>
        <pt x="291" y="66" on="0"/>
        <pt x="226" y="40" on="0"/>
        <pt x="175" y="12" on="0"/>
      </contour>
    </TTGlyph>
    <TTGlyph name="Q" xMin="120" yMin="-147" xMax="1317" yMax="1515">
      <contour>
        <pt x="701" y="0" on="1"/>
        <pt x="668" y="9" on="0"/>
        <pt x="579" y="46" on="0"/>
        <pt x="479" y="102" on="0"/>
        <pt x="377" y="177" on="0"/>
        <pt x="331" y="223" on="1"/>
        <pt x="272" y="282" on="0"/>
        <pt x="192" y="417" on="0"/>
        <pt x="142" y="556" on="0"/>
        <pt x="120" y="691" on="0"/>
        <pt x="120" y="755" on="1"/>
        <pt x="120" y="832" on="0"/>
        <pt x="161" y="1005" on="0"/>
        <pt x="240" y="1172" on="0"/>
        <pt x="356" y="1320" on="0"/>
        <pt x="431" y="1372" on="1"/>
        <pt x="653" y="1515" on="1"/>
        <pt x="673" y="1509" on="0"/>
        <pt x="754" y="1478" on="0"/>
        <pt x="855" y="1423" on="0"/>
        <pt x="967" y="1345" on="0"/>
        <pt x="1071" y="1242" on="0"/>
        <pt x="1157" y="1112" on="0"/>
        <pt x="1182" y="1034" on="1"/>
        <pt x="1208" y="958" on="0"/>
        <pt x="1234" y="816" on="0"/>
        <pt x="1234" y="751" on="1"/>
        <pt x="1234" y="673" on="0"/>
        <pt x="1205" y="528" on="0"/>
        <pt x="1155" y="402" on="0"/>
        <pt x="1088" y="297" on="0"/>
        <pt x="1049" y="258" on="1"/>
        <pt x="1039" y="249" on="1"/>
        <pt x="1086" y="180" on="1"/>
        <pt x="1246" y="-43" on="0"/>
        <pt x="1317" y="-58" on="1"/>
        <pt x="1256" y="-65" on="0"/>
        <pt x="1135" y="-108" on="0"/>
        <pt x="1065" y="-147" on="1"/>
        <pt x="1011" y="2" on="0"/>
        <pt x="913" y="133" on="1"/>
      </contour>
      <contour>
        <pt x="443" y="1370" on="1"/>
        <pt x="357" y="1319" on="0"/>
        <pt x="311" y="1104" on="1"/>
        <pt x="281" y="964" on="0"/>
        <pt x="281" y="848" on="1"/>
        <pt x="281" y="785" on="0"/>
        <pt x="306" y="644" on="0"/>
        <pt x="364" y="502" on="0"/>
        <pt x="459" y="364" on="0"/>
        <pt x="597" y="255" on="0"/>
        <pt x="783" y="167" on="0"/>
        <pt x="904" y="144" on="1"/>
        <pt x="822" y="229" on="0"/>
        <pt x="716" y="326" on="0"/>
        <pt x="693" y="340" on="1"/>
        <pt x="733" y="344" on="0"/>
        <pt x="810" y="365" on="0"/>
        <pt x="876" y="391" on="0"/>
        <pt x="928" y="419" on="0"/>
        <pt x="945" y="432" on="1"/>
        <pt x="955" y="402" on="0"/>
        <pt x="988" y="332" on="0"/>
        <pt x="1013" y="290" on="1"/>
        <pt x="1029" y="335" on="0"/>
        <pt x="1052" y="432" on="0"/>
        <pt x="1067" y="530" on="0"/>
        <pt x="1074" y="622" on="0"/>
        <pt x="1074" y="662" on="1"/>
        <pt x="1074" y="729" on="0"/>
        <pt x="1046" y="886" on="0"/>
        <pt x="974" y="1045" on="0"/>
        <pt x="848" y="1195" on="0"/>
        <pt x="751" y="1254" on="1"/>
        <pt x="612" y="1341" on="0"/>
      </contour>
    </TTGlyph>
    <TTGlyph name="R" xMin="90" yMin="0" xMax="1223" yMax="1515">
      <contour>
        <pt x="200" y="0" on="1"/>
        <pt x="222" y="153" on="0"/>
        <pt x="244" y="425" on="0"/>
        <pt x="244" y="546" on="1"/>
        <pt x="244" y="686" on="0"/>
        <pt x="221" y="941" on="0"/>
        <pt x="206" y="1056" on="1"/>
        <pt x="200" y="1090" on="1"/>
        <pt x="261" y="1097" on="0"/>
        <pt x="382" y="1140" on="0"/>
        <pt x="452" y="1179" on="1"/>
        <pt x="429" y="1033" on="0"/>
        <pt x="406" y="789" on="0"/>
        <pt x="406" y="689" on="1"/>
        <pt x="406" y="671" on="0"/>
        <pt x="406" y="641" on="0"/>
        <pt x="408" y="605" on="0"/>
        <pt x="410" y="557" on="0"/>
        <pt x="412" y="522" on="1"/>
        <pt x="431" y="513" on="1"/>
        <pt x="555" y="468" on="0"/>
        <pt x="654" y="468" on="1"/>
        <pt x="723" y="469" on="0"/>
        <pt x="844" y="508" on="0"/>
        <pt x="945" y="578" on="0"/>
        <pt x="1007" y="680" on="0"/>
        <pt x="1019" y="744" on="1"/>
        <pt x="1025" y="780" on="0"/>
        <pt x="1032" y="843" on="0"/>
        <pt x="1032" y="871" on="1"/>
        <pt x="1032" y="921" on="0"/>
        <pt x="1010" y="1016" on="0"/>
        <pt x="974" y="1101" on="0"/>
        <pt x="927" y="1172" on="0"/>
        <pt x="902" y="1199" on="1"/>
        <pt x="879" y="1223" on="0"/>
        <pt x="808" y="1267" on="0"/>
        <pt x="718" y="1301" on="0"/>
        <pt x="611" y="1321" on="0"/>
        <pt x="550" y="1321" on="1"/>
        <pt x="498" y="1321" on="0"/>
        <pt x="383" y="1296" on="0"/>
        <pt x="265" y="1250" on="0"/>
        <pt x="146" y="1184" on="0"/>
        <pt x="90" y="1142" on="1"/>
        <pt x="157" y="1404" on="1"/>
        <pt x="235" y="1435" on="0"/>
        <pt x="315" y="1467" on="0"/>
        <pt x="319" y="1468" on="1"/>
        <pt x="409" y="1492" on="0"/>
        <pt x="535" y="1515" on="0"/>
        <pt x="576" y="1515" on="1"/>
        <pt x="623" y="1515" on="0"/>
        <pt x="742" y="1492" on="0"/>
        <pt x="867" y="1445" on="0"/>
        <pt x="986" y="1376" on="0"/>
        <pt x="1034" y="1331" on="1"/>
        <pt x="1074" y="1293" on="0"/>
        <pt x="1140" y="1196" on="0"/>
        <pt x="1188" y="1086" on="0"/>
        <pt x="1214" y="966" on="0"/>
        <pt x="1214" y="905" on="1"/>
        <pt x="1213" y="851" on="0"/>
        <pt x="1193" y="744" on="0"/>
        <pt x="1149" y="635" on="0"/>
        <pt x="1067" y="528" on="0"/>
        <pt x="1004" y="480" on="1"/>
        <pt x="990" y="469" on="0"/>
        <pt x="977" y="462" on="1"/>
        <pt x="976" y="461" on="1"/>
        <pt x="1034" y="347" on="0"/>
        <pt x="1157" y="162" on="0"/>
        <pt x="1223" y="89" on="1"/>
        <pt x="1162" y="82" on="0"/>
        <pt x="1041" y="39" on="0"/>
        <pt x="971" y="0" on="1"/>
        <pt x="877" y="299" on="0"/>
        <pt x="824" y="400" on="1"/>
        <pt x="814" y="398" on="0"/>
        <pt x="788" y="394" on="0"/>
        <pt x="752" y="390" on="0"/>
        <pt x="710" y="387" on="0"/>
        <pt x="690" y="387" on="1"/>
        <pt x="624" y="387" on="0"/>
        <pt x="495" y="408" on="0"/>
        <pt x="431" y="426" on="1"/>
        <pt x="416" y="429" on="1"/>
        <pt x="424" y="295" on="0"/>
        <pt x="436" y="138" on="0"/>
        <pt x="444" y="115" on="1"/>
        <pt x="452" y="92" on="1"/>
        <pt x="405" y="87" on="0"/>
        <pt x="328" y="67" on="0"/>
        <pt x="266" y="39" on="0"/>
        <pt x="218" y="12" on="0"/>
      </contour>
    </TTGlyph>
    <TTGlyph name="Racute" xMin="90" yMin="0" xMax="1223" yMax="1898">
      <component glyphName="R" x="0" y="0" flags="0x204"/>
      <component glyphName="acute" x="396" y="386" flags="0x4"/>
    </TTGlyph>
    <TTGlyph name="Rcaron" xMin="90" yMin="0" xMax="1223" yMax="1921">
      <component glyphName="R" x="0" y="0" flags="0x204"/>
      <component glyphName="caron" x="142" y="414" flags="0x4"/>
    </TTGlyph>
    <TTGlyph name="Rcommaaccent" xMin="90" yMin="-387" xMax="1223" yMax="1515">
      <component glyphName="R" x="0" y="0" flags="0x204"/>
      <component glyphName="commaaccent" x="144" y="0" flags="0x4"/>
    </TTGlyph>
    <TTGlyph name="S" xMin="120" yMin="0" xMax="1176" yMax="1515">
      <contour>
        <pt x="634" y="1515" on="1"/>
        <pt x="659" y="1508" on="0"/>
        <pt x="740" y="1474" on="0"/>
        <pt x="839" y="1422" on="0"/>
        <pt x="949" y="1343" on="0"/>
        <pt x="1005" y="1289" on="1"/>
        <pt x="1021" y="1273" on="0"/>
        <pt x="1050" y="1240" on="0"/>
        <pt x="1063" y="1223" on="1"/>
        <pt x="864" y="1125" on="1"/>
        <pt x="818" y="1183" on="0"/>
        <pt x="724" y="1264" on="0"/>
        <pt x="616" y="1318" on="0"/>
        <pt x="496" y="1357" on="0"/>
        <pt x="424" y="1370" on="1"/>
        <pt x="316" y="1294" on="0"/>
        <pt x="316" y="1137" on="1"/>
        <pt x="316" y="1028" on="0"/>
        <pt x="434" y="986" on="1"/>
        <pt x="1002" y="783" on="0"/>
        <pt x="1101" y="685" on="1"/>
        <pt x="1136" y="650" on="0"/>
        <pt x="1176" y="540" on="0"/>
        <pt x="1176" y="468" on="1"/>
        <pt x="1176" y="414" on="0"/>
        <pt x="1131" y="314" on="0"/>
        <pt x="1080" y="260" on="1"/>
        <pt x="988" y="165" on="0"/>
        <pt x="949" y="146" on="1"/>
        <pt x="682" y="0" on="1"/>
        <pt x="578" y="12" on="0"/>
        <pt x="374" y="122" on="1"/>
        <pt x="339" y="141" on="0"/>
        <pt x="241" y="217" on="0"/>
        <pt x="178" y="277" on="1"/>
        <pt x="161" y="292" on="0"/>
        <pt x="133" y="326" on="0"/>
        <pt x="120" y="343" on="1"/>
        <pt x="319" y="441" on="1"/>
        <pt x="352" y="387" on="0"/>
        <pt x="534" y="282" on="1"/>
        <pt x="690" y="193" on="0"/>
        <pt x="937" y="148" on="1"/>
        <pt x="1046" y="225" on="0"/>
        <pt x="1046" y="382" on="1"/>
        <pt x="1046" y="514" on="0"/>
        <pt x="867" y="591" on="1"/>
        <pt x="644" y="685" on="0"/>
        <pt x="410" y="785" on="0"/>
        <pt x="396" y="790" on="1"/>
        <pt x="192" y="869" on="0"/>
        <pt x="192" y="1056" on="1"/>
        <pt x="192" y="1163" on="0"/>
        <pt x="282" y="1258" on="1"/>
        <pt x="374" y="1353" on="0"/>
        <pt x="412" y="1372" on="1"/>
      </contour>
    </TTGlyph>
    <TTGlyph name="Sacute" xMin="120" yMin="0" xMax="1176" yMax="1898">
      <component glyphName="S" x="0" y="0" flags="0x204"/>
      <component glyphName="acute" x="396" y="386" flags="0x4"/>
    </TTGlyph>
    <TTGlyph name="Scaron" xMin="120" yMin="0" xMax="1176" yMax="1893">
      <component glyphName="S" x="0" y="0" flags="0x204"/>
      <component glyphName="S" x="0" y="0" flags="0x4"/>
      <component glyphName="caron" x="146" y="386" flags="0x4"/>
    </TTGlyph>
    <TTGlyph name="Scedilla" xMin="120" yMin="-431" xMax="1176" yMax="1515">
      <contour>
        <pt x="634" y="1515" on="1"/>
        <pt x="659" y="1508" on="0"/>
        <pt x="740" y="1474" on="0"/>
        <pt x="839" y="1422" on="0"/>
        <pt x="949" y="1343" on="0"/>
        <pt x="1005" y="1289" on="1"/>
        <pt x="1021" y="1273" on="0"/>
        <pt x="1050" y="1240" on="0"/>
        <pt x="1063" y="1223" on="1"/>
        <pt x="864" y="1125" on="1"/>
        <pt x="818" y="1183" on="0"/>
        <pt x="723" y="1264" on="0"/>
        <pt x="618" y="1317" on="0"/>
        <pt x="496" y="1357" on="0"/>
        <pt x="424" y="1370" on="1"/>
        <pt x="316" y="1294" on="0"/>
        <pt x="316" y="1137" on="1"/>
        <pt x="316" y="1028" on="0"/>
        <pt x="434" y="986" on="1"/>
        <pt x="1002" y="783" on="0"/>
        <pt x="1101" y="685" on="1"/>
        <pt x="1136" y="650" on="0"/>
        <pt x="1176" y="540" on="0"/>
        <pt x="1176" y="468" on="1"/>
        <pt x="1176" y="414" on="0"/>
        <pt x="1131" y="314" on="0"/>
        <pt x="1080" y="260" on="1"/>
        <pt x="988" y="165" on="0"/>
        <pt x="949" y="146" on="1"/>
        <pt x="720" y="21" on="1"/>
        <pt x="846" y="-41" on="0"/>
        <pt x="846" y="-167" on="1"/>
        <pt x="846" y="-290" on="0"/>
        <pt x="751" y="-347" on="1"/>
        <pt x="737" y="-352" on="1"/>
        <pt x="617" y="-359" on="0"/>
        <pt x="492" y="-428" on="1"/>
        <pt x="485" y="-431" on="1"/>
        <pt x="668" y="-266" on="0"/>
        <pt x="668" y="-149" on="1"/>
        <pt x="666" y="-68" on="0"/>
        <pt x="618" y="14" on="1"/>
        <pt x="523" y="42" on="0"/>
        <pt x="374" y="122" on="1"/>
        <pt x="339" y="141" on="0"/>
        <pt x="241" y="217" on="0"/>
        <pt x="178" y="277" on="1"/>
        <pt x="161" y="292" on="0"/>
        <pt x="133" y="326" on="0"/>
        <pt x="120" y="343" on="1"/>
        <pt x="319" y="441" on="1"/>
        <pt x="352" y="387" on="0"/>
        <pt x="534" y="282" on="1"/>
        <pt x="690" y="193" on="0"/>
        <pt x="938" y="149" on="1"/>
        <pt x="1046" y="225" on="0"/>
        <pt x="1046" y="382" on="1"/>
        <pt x="1046" y="514" on="0"/>
        <pt x="867" y="591" on="1"/>
        <pt x="644" y="685" on="0"/>
        <pt x="410" y="785" on="0"/>
        <pt x="396" y="790" on="1"/>
        <pt x="192" y="869" on="0"/>
        <pt x="192" y="1056" on="1"/>
        <pt x="192" y="1163" on="0"/>
        <pt x="282" y="1258" on="1"/>
        <pt x="374" y="1353" on="0"/>
        <pt x="412" y="1372" on="1"/>
      </contour>
    </TTGlyph>
    <TTGlyph name="Scircumflex" xMin="120" yMin="0" xMax="1176" yMax="1895">
      <component glyphName="S" x="0" y="0" flags="0x204"/>
      <component glyphName="circumflex" x="195" y="386" flags="0x4"/>
    </TTGlyph>
    <TTGlyph name="Scommaaccent" xMin="120" yMin="-387" xMax="1176" yMax="1515">
      <component glyphName="S" x="0" y="0" flags="0x204"/>
      <component glyphName="commaaccent" x="141" y="0" flags="0x4"/>
    </TTGlyph>
    <TTGlyph name="Sigma" xMin="80" yMin="0" xMax="1047" yMax="1511">
      <contour>
        <pt x="516" y="756" on="1"/>
        <pt x="349" y="1156" on="0"/>
        <pt x="150" y="1404" on="1"/>
        <pt x="136" y="1422" on="1"/>
        <pt x="197" y="1429" on="0"/>
        <pt x="318" y="1472" on="0"/>
        <pt x="388" y="1511" on="1"/>
        <pt x="451" y="1487" on="0"/>
        <pt x="571" y="1460" on="0"/>
        <pt x="648" y="1460" on="1"/>
        <pt x="841" y="1460" on="0"/>
        <pt x="994" y="1510" on="1"/>
        <pt x="922" y="1378" on="0"/>
        <pt x="915" y="1258" on="1"/>
        <pt x="664" y="1269" on="0"/>
        <pt x="544" y="1360" on="1"/>
        <pt x="484" y="1405" on="0"/>
        <pt x="405" y="1471" on="0"/>
        <pt x="385" y="1491" on="1"/>
        <pt x="440" y="1178" on="0"/>
        <pt x="728" y="760" on="1"/>
        <pt x="716" y="738" on="1"/>
        <pt x="501" y="399" on="0"/>
        <pt x="438" y="144" on="1"/>
        <pt x="468" y="136" on="0"/>
        <pt x="485" y="136" on="1"/>
        <pt x="817" y="136" on="0"/>
        <pt x="1047" y="252" on="1"/>
        <pt x="1029" y="217" on="0"/>
        <pt x="990" y="98" on="0"/>
        <pt x="980" y="0" on="1"/>
        <pt x="954" y="8" on="1"/>
        <pt x="828" y="46" on="0"/>
        <pt x="574" y="46" on="1"/>
        <pt x="435" y="46" on="0"/>
        <pt x="189" y="23" on="0"/>
        <pt x="80" y="0" on="1"/>
        <pt x="200" y="168" on="0"/>
        <pt x="417" y="544" on="0"/>
      </contour>
    </TTGlyph>
    <TTGlyph name="T" xMin="-50" yMin="0" xMax="1053" yMax="1511">
      <contour>
        <pt x="371" y="0" on="1"/>
        <pt x="393" y="149" on="0"/>
        <pt x="414" y="482" on="0"/>
        <pt x="414" y="671" on="1"/>
        <pt x="414" y="926" on="0"/>
        <pt x="394" y="1276" on="0"/>
        <pt x="380" y="1371" on="1"/>
        <pt x="258" y="1363" on="0"/>
        <pt x="44" y="1307" on="0"/>
        <pt x="-50" y="1259" on="1"/>
        <pt x="-30" y="1297" on="0"/>
        <pt x="9" y="1424" on="0"/>
        <pt x="17" y="1511" on="1"/>
        <pt x="43" y="1503" on="1"/>
        <pt x="161" y="1466" on="0"/>
        <pt x="573" y="1466" on="1"/>
        <pt x="847" y="1466" on="0"/>
        <pt x="1053" y="1511" on="1"/>
        <pt x="1024" y="1443" on="0"/>
        <pt x="993" y="1322" on="0"/>
        <pt x="988" y="1259" on="1"/>
        <pt x="967" y="1273" on="1"/>
        <pt x="845" y="1354" on="0"/>
        <pt x="613" y="1370" on="1"/>
        <pt x="596" y="1241" on="0"/>
        <pt x="578" y="960" on="0"/>
        <pt x="578" y="788" on="1"/>
        <pt x="579" y="547" on="0"/>
        <pt x="595" y="219" on="0"/>
        <pt x="615" y="128" on="1"/>
        <pt x="623" y="92" on="1"/>
        <pt x="577" y="87" on="0"/>
        <pt x="499" y="67" on="0"/>
        <pt x="436" y="39" on="0"/>
        <pt x="388" y="12" on="0"/>
      </contour>
    </TTGlyph>
    <TTGlyph name="Tbar" xMin="-50" yMin="0" xMax="1053" yMax="1511">
      <contour>
        <pt x="371" y="0" on="1"/>
        <pt x="393" y="149" on="0"/>
        <pt x="414" y="482" on="0"/>
        <pt x="414" y="671" on="1"/>
        <pt x="414" y="743" on="1"/>
        <pt x="161" y="739" on="0"/>
        <pt x="125" y="720" on="1"/>
        <pt x="139" y="742" on="0"/>
        <pt x="162" y="817" on="0"/>
        <pt x="168" y="867" on="1"/>
        <pt x="184" y="862" on="1"/>
        <pt x="226" y="848" on="0"/>
        <pt x="412" y="844" on="1"/>
        <pt x="407" y="1030" on="0"/>
        <pt x="391" y="1293" on="0"/>
        <pt x="380" y="1371" on="1"/>
        <pt x="258" y="1363" on="0"/>
        <pt x="44" y="1307" on="0"/>
        <pt x="-50" y="1259" on="1"/>
        <pt x="-30" y="1297" on="0"/>
        <pt x="9" y="1424" on="0"/>
        <pt x="17" y="1511" on="1"/>
        <pt x="43" y="1503" on="1"/>
        <pt x="161" y="1466" on="0"/>
        <pt x="573" y="1466" on="1"/>
        <pt x="847" y="1466" on="0"/>
        <pt x="1053" y="1511" on="1"/>
        <pt x="1024" y="1443" on="0"/>
        <pt x="993" y="1322" on="0"/>
        <pt x="988" y="1259" on="1"/>
        <pt x="967" y="1273" on="1"/>
        <pt x="845" y="1354" on="0"/>
        <pt x="613" y="1370" on="1"/>
        <pt x="596" y="1249" on="0"/>
        <pt x="579" y="988" on="0"/>
        <pt x="578" y="844" on="1"/>
        <pt x="798" y="850" on="0"/>
        <pt x="857" y="864" on="1"/>
        <pt x="823" y="795" on="0"/>
        <pt x="816" y="717" on="1"/>
        <pt x="800" y="721" on="1"/>
        <pt x="789" y="728" on="0"/>
        <pt x="578" y="740" on="1"/>
        <pt x="579" y="518" on="0"/>
        <pt x="598" y="214" on="0"/>
        <pt x="615" y="128" on="1"/>
        <pt x="623" y="92" on="1"/>
        <pt x="576" y="87" on="0"/>
        <pt x="498" y="66" on="0"/>
        <pt x="435" y="40" on="0"/>
        <pt x="387" y="12" on="0"/>
      </contour>
    </TTGlyph>
    <TTGlyph name="Tcaron" xMin="-50" yMin="0" xMax="1053" yMax="1893">
      <component glyphName="T" x="0" y="0" flags="0x204"/>
      <component glyphName="caron" x="-4" y="386" flags="0x4"/>
    </TTGlyph>
    <TTGlyph name="Tcedilla" xMin="-50" yMin="-422" xMax="1053" yMax="1511">
      <contour>
        <pt x="371" y="0" on="1"/>
        <pt x="393" y="149" on="0"/>
        <pt x="414" y="482" on="0"/>
        <pt x="414" y="671" on="1"/>
        <pt x="414" y="926" on="0"/>
        <pt x="394" y="1276" on="0"/>
        <pt x="380" y="1371" on="1"/>
        <pt x="258" y="1363" on="0"/>
        <pt x="44" y="1307" on="0"/>
        <pt x="-50" y="1259" on="1"/>
        <pt x="-30" y="1297" on="0"/>
        <pt x="9" y="1424" on="0"/>
        <pt x="17" y="1511" on="1"/>
        <pt x="43" y="1503" on="1"/>
        <pt x="161" y="1466" on="0"/>
        <pt x="573" y="1466" on="1"/>
        <pt x="847" y="1466" on="0"/>
        <pt x="1053" y="1511" on="1"/>
        <pt x="1024" y="1443" on="0"/>
        <pt x="993" y="1322" on="0"/>
        <pt x="988" y="1259" on="1"/>
        <pt x="967" y="1273" on="1"/>
        <pt x="845" y="1354" on="0"/>
        <pt x="613" y="1370" on="1"/>
        <pt x="596" y="1241" on="0"/>
        <pt x="578" y="960" on="0"/>
        <pt x="578" y="788" on="1"/>
        <pt x="579" y="547" on="0"/>
        <pt x="595" y="219" on="0"/>
        <pt x="615" y="128" on="1"/>
        <pt x="623" y="92" on="1"/>
        <pt x="585" y="87" on="0"/>
        <pt x="523" y="75" on="0"/>
        <pt x="486" y="59" on="1"/>
        <pt x="690" y="3" on="0"/>
        <pt x="690" y="-158" on="1"/>
        <pt x="690" y="-281" on="0"/>
        <pt x="595" y="-338" on="1"/>
        <pt x="581" y="-343" on="1"/>
        <pt x="461" y="-350" on="0"/>
        <pt x="336" y="-419" on="1"/>
        <pt x="329" y="-422" on="1"/>
        <pt x="512" y="-257" on="0"/>
        <pt x="512" y="-140" on="1"/>
        <pt x="510" y="-51" on="0"/>
        <pt x="449" y="43" on="1"/>
        <pt x="398" y="20" on="0"/>
      </contour>
    </TTGlyph>
    <TTGlyph name="Thorn" xMin="150" yMin="0" xMax="1165" yMax="1511">
      <contour>
        <pt x="150" y="0" on="1"/>
        <pt x="172" y="151" on="0"/>
        <pt x="193" y="485" on="0"/>
        <pt x="193" y="672" on="1"/>
        <pt x="192" y="936" on="0"/>
        <pt x="173" y="1294" on="0"/>
        <pt x="156" y="1388" on="1"/>
        <pt x="150" y="1422" on="1"/>
        <pt x="210" y="1429" on="0"/>
        <pt x="332" y="1472" on="0"/>
        <pt x="402" y="1511" on="1"/>
        <pt x="357" y="1227" on="0"/>
        <pt x="357" y="823" on="1"/>
        <pt x="357" y="788" on="1"/>
        <pt x="357" y="654" on="0"/>
        <pt x="363" y="437" on="0"/>
        <pt x="368" y="350" on="1"/>
        <pt x="568" y="481" on="1"/>
        <pt x="704" y="576" on="1"/>
        <pt x="717" y="584" on="0"/>
        <pt x="867" y="699" on="1"/>
        <pt x="980" y="786" on="0"/>
        <pt x="980" y="881" on="1"/>
        <pt x="980" y="905" on="0"/>
        <pt x="967" y="952" on="0"/>
        <pt x="932" y="996" on="0"/>
        <pt x="872" y="1042" on="0"/>
        <pt x="825" y="1069" on="1"/>
        <pt x="710" y="1134" on="0"/>
        <pt x="494" y="1218" on="0"/>
        <pt x="391" y="1241" on="1"/>
        <pt x="637" y="1384" on="1"/>
        <pt x="859" y="1280" on="0"/>
        <pt x="903" y="1252" on="1"/>
        <pt x="980" y="1204" on="0"/>
        <pt x="1080" y="1121" on="0"/>
        <pt x="1139" y="1038" on="0"/>
        <pt x="1164" y="949" on="0"/>
        <pt x="1165" y="894" on="1"/>
        <pt x="1165" y="830" on="0"/>
        <pt x="1126" y="729" on="0"/>
        <pt x="1042" y="638" on="0"/>
        <pt x="910" y="549" on="0"/>
        <pt x="816" y="497" on="1"/>
        <pt x="722" y="445" on="1"/>
        <pt x="375" y="269" on="1"/>
        <pt x="380" y="226" on="0"/>
        <pt x="388" y="156" on="0"/>
        <pt x="394" y="128" on="1"/>
        <pt x="402" y="92" on="1"/>
        <pt x="359" y="87" on="0"/>
        <pt x="282" y="66" on="0"/>
        <pt x="217" y="40" on="0"/>
        <pt x="166" y="12" on="0"/>
      </contour>
    </TTGlyph>
    <TTGlyph name="U" xMin="150" yMin="-1" xMax="1202" yMax="1511">
      <contour>
        <pt x="150" y="1422" on="1"/>
        <pt x="210" y="1429" on="0"/>
        <pt x="332" y="1472" on="0"/>
        <pt x="402" y="1511" on="1"/>
        <pt x="380" y="1371" on="0"/>
        <pt x="358" y="1019" on="0"/>
        <pt x="358" y="802" on="1"/>
        <pt x="358" y="708" on="0"/>
        <pt x="360" y="598" on="0"/>
        <pt x="362" y="582" on="1"/>
        <pt x="374" y="373" on="0"/>
        <pt x="508" y="262" on="1"/>
        <pt x="604" y="182" on="0"/>
        <pt x="868" y="145" on="1"/>
        <pt x="869" y="146" on="1"/>
        <pt x="930" y="196" on="0"/>
        <pt x="970" y="404" on="1"/>
        <pt x="991" y="510" on="0"/>
        <pt x="991" y="776" on="1"/>
        <pt x="991" y="800" on="1"/>
        <pt x="991" y="942" on="0"/>
        <pt x="973" y="1234" on="0"/>
        <pt x="956" y="1388" on="1"/>
        <pt x="950" y="1422" on="1"/>
        <pt x="1011" y="1429" on="0"/>
        <pt x="1132" y="1472" on="0"/>
        <pt x="1202" y="1511" on="1"/>
        <pt x="1179" y="1365" on="0"/>
        <pt x="1155" y="1067" on="0"/>
        <pt x="1155" y="911" on="1"/>
        <pt x="1155" y="756" on="0"/>
        <pt x="1166" y="567" on="0"/>
        <pt x="1171" y="548" on="1"/>
        <pt x="1163" y="509" on="0"/>
        <pt x="1110" y="400" on="0"/>
        <pt x="1031" y="285" on="0"/>
        <pt x="933" y="179" on="0"/>
        <pt x="880" y="143" on="1"/>
        <pt x="631" y="-1" on="1"/>
        <pt x="615" y="0" on="0"/>
        <pt x="568" y="14" on="0"/>
        <pt x="505" y="40" on="0"/>
        <pt x="432" y="77" on="0"/>
        <pt x="358" y="126" on="0"/>
        <pt x="289" y="185" on="0"/>
        <pt x="262" y="220" on="1"/>
        <pt x="180" y="354" on="0"/>
        <pt x="180" y="504" on="1"/>
        <pt x="192" y="677" on="0"/>
        <pt x="192" y="782" on="1"/>
        <pt x="192" y="810" on="1"/>
        <pt x="192" y="1203" on="0"/>
        <pt x="156" y="1388" on="1"/>
      </contour>
    </TTGlyph>
    <TTGlyph name="Uacute" xMin="150" yMin="-1" xMax="1202" yMax="1898">
      <component glyphName="U" x="0" y="0" flags="0x204"/>
      <component glyphName="acute" x="398" y="386" flags="0x4"/>
    </TTGlyph>
    <TTGlyph name="Ubreve" xMin="150" yMin="-1" xMax="1202" yMax="1877">
      <component glyphName="U" x="0" y="0" flags="0x204"/>
      <component glyphName="breve" x="212" y="364" flags="0x4"/>
    </TTGlyph>
    <TTGlyph name="Ucircumflex" xMin="150" yMin="-1" xMax="1202" yMax="1895">
      <component glyphName="U" x="0" y="0" flags="0x204"/>
      <component glyphName="circumflex" x="193" y="386" flags="0x4"/>
    </TTGlyph>
    <TTGlyph name="Udieresis" xMin="150" yMin="-1" xMax="1202" yMax="1909">
      <component glyphName="U" x="0" y="0" flags="0x204"/>
      <component glyphName="dieresis" x="165" y="358" flags="0x4"/>
    </TTGlyph>
    <TTGlyph name="Ugrave" xMin="150" yMin="-1" xMax="1202" yMax="1898">
      <component glyphName="U" x="0" y="0" flags="0x204"/>
      <component glyphName="grave" x="151" y="386" flags="0x4"/>
    </TTGlyph>
    <TTGlyph name="Uhungarumlaut" xMin="150" yMin="-1" xMax="1202" yMax="1900">
      <component glyphName="U" x="0" y="0" flags="0x204"/>
      <component glyphName="hungarumlaut" x="149" y="386" flags="0x4"/>
    </TTGlyph>
    <TTGlyph name="Umacron" xMin="150" yMin="-1" xMax="1202" yMax="1773">
      <component glyphName="U" x="0" y="0" flags="0x204"/>
      <component glyphName="macron" x="180" y="259" flags="0x4"/>
    </TTGlyph>
    <TTGlyph name="Uogonek" xMin="150" yMin="-450" xMax="1202" yMax="1511">
      <contour>
        <pt x="150" y="1422" on="1"/>
        <pt x="210" y="1429" on="0"/>
        <pt x="332" y="1472" on="0"/>
        <pt x="402" y="1511" on="1"/>
        <pt x="380" y="1371" on="0"/>
        <pt x="358" y="1019" on="0"/>
        <pt x="358" y="802" on="1"/>
        <pt x="358" y="708" on="0"/>
        <pt x="360" y="598" on="0"/>
        <pt x="362" y="582" on="1"/>
        <pt x="374" y="373" on="0"/>
        <pt x="508" y="262" on="1"/>
        <pt x="604" y="182" on="0"/>
        <pt x="868" y="145" on="1"/>
        <pt x="869" y="146" on="1"/>
        <pt x="930" y="196" on="0"/>
        <pt x="970" y="404" on="1"/>
        <pt x="991" y="510" on="0"/>
        <pt x="991" y="776" on="1"/>
        <pt x="991" y="800" on="1"/>
        <pt x="991" y="942" on="0"/>
        <pt x="973" y="1234" on="0"/>
        <pt x="956" y="1388" on="1"/>
        <pt x="950" y="1422" on="1"/>
        <pt x="1011" y="1429" on="0"/>
        <pt x="1132" y="1472" on="0"/>
        <pt x="1202" y="1511" on="1"/>
        <pt x="1179" y="1365" on="0"/>
        <pt x="1155" y="1067" on="0"/>
        <pt x="1155" y="911" on="1"/>
        <pt x="1155" y="756" on="0"/>
        <pt x="1166" y="567" on="0"/>
        <pt x="1171" y="548" on="1"/>
        <pt x="1163" y="510" on="0"/>
        <pt x="1111" y="402" on="0"/>
        <pt x="1033" y="288" on="0"/>
        <pt x="934" y="180" on="0"/>
        <pt x="880" y="143" on="1"/>
        <pt x="704" y="41" on="1"/>
        <pt x="625" y="-68" on="0"/>
        <pt x="623" y="-168" on="1"/>
        <pt x="623" y="-285" on="0"/>
        <pt x="806" y="-450" on="1"/>
        <pt x="799" y="-447" on="1"/>
        <pt x="674" y="-378" on="0"/>
        <pt x="554" y="-371" on="1"/>
        <pt x="540" y="-366" on="1"/>
        <pt x="445" y="-309" on="0"/>
        <pt x="445" y="-186" on="1"/>
        <pt x="445" y="-53" on="0"/>
        <pt x="584" y="8" on="1"/>
        <pt x="558" y="17" on="0"/>
        <pt x="476" y="53" on="0"/>
        <pt x="384" y="107" on="0"/>
        <pt x="295" y="177" on="0"/>
        <pt x="262" y="220" on="1"/>
        <pt x="180" y="354" on="0"/>
        <pt x="180" y="514" on="1"/>
        <pt x="192" y="677" on="0"/>
        <pt x="192" y="782" on="1"/>
        <pt x="192" y="810" on="1"/>
        <pt x="192" y="1203" on="0"/>
        <pt x="156" y="1388" on="1"/>
      </contour>
    </TTGlyph>
    <TTGlyph name="Uring" xMin="150" yMin="-1" xMax="1202" yMax="1951">
      <component glyphName="U" x="0" y="0" flags="0x204"/>
      <component glyphName="ring" x="302" y="352" flags="0x4"/>
    </TTGlyph>
    <TTGlyph name="Utilde" xMin="150" yMin="-1" xMax="1202" yMax="1848">
      <component glyphName="U" x="0" y="0" flags="0x204"/>
      <component glyphName="tilde" x="143" y="337" flags="0x4"/>
    </TTGlyph>
    <TTGlyph name="V" xMin="0" yMin="0" xMax="1276" yMax="1511">
      <contour>
        <pt x="767" y="89" on="1"/>
        <pt x="706" y="82" on="0"/>
        <pt x="585" y="39" on="0"/>
        <pt x="515" y="0" on="1"/>
        <pt x="498" y="155" on="0"/>
        <pt x="397" y="531" on="0"/>
        <pt x="312" y="760" on="1"/>
        <pt x="219" y="1009" on="0"/>
        <pt x="65" y="1337" on="0"/>
        <pt x="0" y="1421" on="1"/>
        <pt x="38" y="1425" on="0"/>
        <pt x="115" y="1446" on="0"/>
        <pt x="183" y="1472" on="0"/>
        <pt x="237" y="1499" on="0"/>
        <pt x="252" y="1511" on="1"/>
        <pt x="267" y="1450" on="0"/>
        <pt x="376" y="1091" on="0"/>
        <pt x="471" y="790" on="1"/>
        <pt x="608" y="358" on="0"/>
        <pt x="660" y="297" on="1"/>
        <pt x="714" y="375" on="0"/>
        <pt x="874" y="807" on="1"/>
        <pt x="971" y="1074" on="0"/>
        <pt x="1072" y="1377" on="0"/>
        <pt x="1072" y="1412" on="1"/>
        <pt x="1072" y="1425" on="1"/>
        <pt x="1215" y="1453" on="0"/>
        <pt x="1276" y="1511" on="1"/>
        <pt x="1213" y="1390" on="0"/>
        <pt x="1059" y="1037" on="0"/>
        <pt x="966" y="801" on="1"/>
        <pt x="808" y="403" on="0"/>
        <pt x="771" y="129" on="1"/>
      </contour>
    </TTGlyph>
    <TTGlyph name="W" xMin="0" yMin="0" xMax="1776" yMax="1511">
      <contour>
        <pt x="0" y="1421" on="1"/>
        <pt x="42" y="1425" on="0"/>
        <pt x="121" y="1447" on="0"/>
        <pt x="188" y="1473" on="0"/>
        <pt x="238" y="1500" on="0"/>
        <pt x="252" y="1511" on="1"/>
        <pt x="283" y="1381" on="0"/>
        <pt x="471" y="790" on="1"/>
        <pt x="608" y="358" on="0"/>
        <pt x="660" y="297" on="1"/>
        <pt x="707" y="367" on="0"/>
        <pt x="834" y="700" on="1"/>
        <pt x="812" y="760" on="1"/>
        <pt x="626" y="1257" on="0"/>
        <pt x="500" y="1421" on="1"/>
        <pt x="538" y="1425" on="0"/>
        <pt x="616" y="1446" on="0"/>
        <pt x="684" y="1472" on="0"/>
        <pt x="738" y="1500" on="0"/>
        <pt x="752" y="1511" on="1"/>
        <pt x="783" y="1376" on="0"/>
        <pt x="923" y="941" on="1"/>
        <pt x="997" y="1142" on="0"/>
        <pt x="1072" y="1376" on="0"/>
        <pt x="1072" y="1412" on="1"/>
        <pt x="1072" y="1425" on="1"/>
        <pt x="1215" y="1453" on="0"/>
        <pt x="1276" y="1511" on="1"/>
        <pt x="1132" y="1233" on="0"/>
        <pt x="967" y="803" on="1"/>
        <pt x="1107" y="358" on="0"/>
        <pt x="1160" y="297" on="1"/>
        <pt x="1216" y="378" on="0"/>
        <pt x="1374" y="807" on="1"/>
        <pt x="1472" y="1075" on="0"/>
        <pt x="1572" y="1376" on="0"/>
        <pt x="1572" y="1412" on="1"/>
        <pt x="1572" y="1425" on="1"/>
        <pt x="1715" y="1456" on="0"/>
        <pt x="1776" y="1511" on="1"/>
        <pt x="1712" y="1386" on="0"/>
        <pt x="1557" y="1034" on="0"/>
        <pt x="1466" y="801" on="1"/>
        <pt x="1308" y="401" on="0"/>
        <pt x="1271" y="129" on="1"/>
        <pt x="1267" y="89" on="1"/>
        <pt x="1206" y="82" on="0"/>
        <pt x="1085" y="39" on="0"/>
        <pt x="1015" y="0" on="1"/>
        <pt x="989" y="236" on="0"/>
        <pt x="880" y="566" on="1"/>
        <pt x="838" y="441" on="0"/>
        <pt x="784" y="224" on="0"/>
        <pt x="771" y="129" on="1"/>
        <pt x="767" y="89" on="1"/>
        <pt x="706" y="82" on="0"/>
        <pt x="585" y="39" on="0"/>
        <pt x="515" y="0" on="1"/>
        <pt x="482" y="301" on="0"/>
        <pt x="312" y="760" on="1"/>
        <pt x="126" y="1257" on="0"/>
      </contour>
    </TTGlyph>
    <TTGlyph name="Wcircumflex" xMin="0" yMin="0" xMax="1776" yMax="1895">
      <component glyphName="W" x="0" y="0" flags="0x204"/>
      <component glyphName="circumflex" x="439" y="386" flags="0x4"/>
    </TTGlyph>
    <TTGlyph name="X" xMin="30" yMin="-4" xMax="1155" yMax="1513">
      <contour>
        <pt x="1155" y="85" on="1"/>
        <pt x="1094" y="78" on="0"/>
        <pt x="973" y="35" on="0"/>
        <pt x="903" y="-4" on="1"/>
        <pt x="849" y="121" on="0"/>
        <pt x="683" y="435" on="0"/>
        <pt x="568" y="629" on="1"/>
        <pt x="503" y="525" on="0"/>
        <pt x="397" y="351" on="0"/>
        <pt x="325" y="217" on="0"/>
        <pt x="282" y="125" on="0"/>
        <pt x="282" y="89" on="1"/>
        <pt x="221" y="82" on="0"/>
        <pt x="100" y="39" on="0"/>
        <pt x="30" y="0" on="1"/>
        <pt x="158" y="169" on="0"/>
        <pt x="402" y="522" on="0"/>
        <pt x="520" y="710" on="1"/>
        <pt x="499" y="744" on="1"/>
        <pt x="320" y="1012" on="0"/>
        <pt x="86" y="1351" on="0"/>
        <pt x="30" y="1421" on="1"/>
        <pt x="72" y="1425" on="0"/>
        <pt x="149" y="1446" on="0"/>
        <pt x="214" y="1473" on="0"/>
        <pt x="265" y="1501" on="0"/>
        <pt x="282" y="1513" on="1"/>
        <pt x="342" y="1361" on="0"/>
        <pt x="509" y="1042" on="0"/>
        <pt x="618" y="869" on="1"/>
        <pt x="767" y="1114" on="0"/>
        <pt x="916" y="1384" on="0"/>
        <pt x="916" y="1425" on="1"/>
        <pt x="1105" y="1465" on="0"/>
        <pt x="1153" y="1510" on="1"/>
        <pt x="1097" y="1441" on="0"/>
        <pt x="854" y="1081" on="0"/>
        <pt x="669" y="790" on="1"/>
        <pt x="907" y="425" on="0"/>
      </contour>
    </TTGlyph>
    <TTGlyph name="Y" xMin="0" yMin="0" xMax="1276" yMax="1511">
      <contour>
        <pt x="0" y="1421" on="1"/>
        <pt x="42" y="1425" on="0"/>
        <pt x="121" y="1447" on="0"/>
        <pt x="188" y="1473" on="0"/>
        <pt x="238" y="1500" on="0"/>
        <pt x="252" y="1511" on="1"/>
        <pt x="288" y="1400" on="0"/>
        <pt x="375" y="1176" on="0"/>
        <pt x="480" y="954" on="0"/>
        <pt x="605" y="737" on="0"/>
        <pt x="679" y="633" on="1"/>
        <pt x="758" y="676" on="0"/>
        <pt x="875" y="915" on="1"/>
        <pt x="972" y="1116" on="0"/>
        <pt x="1072" y="1364" on="0"/>
        <pt x="1072" y="1425" on="1"/>
        <pt x="1219" y="1455" on="0"/>
        <pt x="1276" y="1511" on="1"/>
        <pt x="1160" y="1335" on="0"/>
        <pt x="940" y="902" on="1"/>
        <pt x="770" y="567" on="0"/>
        <pt x="736" y="467" on="1"/>
        <pt x="741" y="350" on="0"/>
        <pt x="755" y="182" on="0"/>
        <pt x="767" y="128" on="1"/>
        <pt x="775" y="92" on="1"/>
        <pt x="733" y="87" on="0"/>
        <pt x="656" y="66" on="0"/>
        <pt x="591" y="40" on="0"/>
        <pt x="539" y="12" on="0"/>
        <pt x="523" y="0" on="1"/>
        <pt x="537" y="97" on="0"/>
        <pt x="556" y="306" on="0"/>
        <pt x="561" y="419" on="1"/>
        <pt x="494" y="571" on="0"/>
        <pt x="357" y="839" on="0"/>
        <pt x="286" y="960" on="1"/>
        <pt x="81" y="1343" on="0"/>
      </contour>
    </TTGlyph>
    <TTGlyph name="Yacute" xMin="0" yMin="0" xMax="1276" yMax="1898">
      <component glyphName="Y" x="0" y="0" flags="0x204"/>
      <component glyphName="acute" x="396" y="386" flags="0x4"/>
    </TTGlyph>
    <TTGlyph name="Ycircumflex" xMin="0" yMin="0" xMax="1276" yMax="1895">
      <component glyphName="Y" x="0" y="0" flags="0x204"/>
      <component glyphName="circumflex" x="193" y="386" flags="0x4"/>
    </TTGlyph>
    <TTGlyph name="Ydieresis" xMin="0" yMin="0" xMax="1276" yMax="1909">
      <component glyphName="Y" x="0" y="0" flags="0x204"/>
      <component glyphName="dieresis" x="165" y="358" flags="0x4"/>
    </TTGlyph>
    <TTGlyph name="Z" xMin="80" yMin="0" xMax="1068" yMax="1511">
      <contour>
        <pt x="80" y="0" on="1"/>
        <pt x="99" y="13" on="1"/>
        <pt x="189" y="104" on="0"/>
        <pt x="513" y="795" on="1"/>
        <pt x="586" y="951" on="0"/>
        <pt x="702" y="1237" on="0"/>
        <pt x="745" y="1370" on="1"/>
        <pt x="676" y="1374" on="0"/>
        <pt x="595" y="1378" on="0"/>
        <pt x="582" y="1378" on="1"/>
        <pt x="401" y="1378" on="0"/>
        <pt x="165" y="1259" on="1"/>
        <pt x="182" y="1293" on="0"/>
        <pt x="224" y="1418" on="0"/>
        <pt x="232" y="1511" on="1"/>
        <pt x="258" y="1503" on="1"/>
        <pt x="378" y="1467" on="0"/>
        <pt x="688" y="1467" on="1"/>
        <pt x="865" y="1467" on="0"/>
        <pt x="1068" y="1511" on="1"/>
        <pt x="910" y="1305" on="0"/>
        <pt x="658" y="724" on="1"/>
        <pt x="418" y="140" on="1"/>
        <pt x="482" y="136" on="0"/>
        <pt x="541" y="136" on="1"/>
        <pt x="848" y="142" on="0"/>
        <pt x="1067" y="252" on="1"/>
        <pt x="1049" y="218" on="0"/>
        <pt x="1008" y="93" on="0"/>
        <pt x="1000" y="0" on="1"/>
        <pt x="910" y="28" on="0"/>
        <pt x="653" y="45" on="0"/>
        <pt x="461" y="45" on="1"/>
        <pt x="287" y="45" on="0"/>
      </contour>
    </TTGlyph>
    <TTGlyph name="Zacute" xMin="80" yMin="0" xMax="1068" yMax="1898">
      <component glyphName="Z" x="0" y="0" flags="0x204"/>
      <component glyphName="acute" x="395" y="386" flags="0x4"/>
    </TTGlyph>
    <TTGlyph name="Zcaron" xMin="80" yMin="0" xMax="1068" yMax="1893">
      <component glyphName="Z" x="0" y="0" flags="0x204"/>
      <component glyphName="caron" x="146" y="386" flags="0x4"/>
    </TTGlyph>
    <TTGlyph name="Zdotaccent" xMin="80" yMin="0" xMax="1068" yMax="1945">
      <component glyphName="Z" x="0" y="0" flags="0x204"/>
      <component glyphName="dotaccent" x="367" y="361" flags="0x4"/>
    </TTGlyph>
    <TTGlyph name="a" xMin="100" yMin="0" xMax="988" yMax="1130">
      <contour>
        <pt x="123" y="840" on="1"/>
        <pt x="149" y="900" on="0"/>
        <pt x="211" y="950" on="1"/>
        <pt x="258" y="988" on="1"/>
        <pt x="486" y="1130" on="1"/>
        <pt x="543" y="1115" on="0"/>
        <pt x="627" y="1072" on="1"/>
        <pt x="707" y="1031" on="0"/>
        <pt x="777" y="963" on="1"/>
        <pt x="865" y="877" on="0"/>
        <pt x="901" y="778" on="1"/>
        <pt x="940" y="682" on="0"/>
        <pt x="943" y="568" on="1"/>
        <pt x="950" y="284" on="0"/>
        <pt x="980" y="128" on="1"/>
        <pt x="988" y="92" on="1"/>
        <pt x="920" y="84" on="0"/>
        <pt x="866" y="64" on="1"/>
        <pt x="779" y="32" on="0"/>
        <pt x="736" y="0" on="1"/>
        <pt x="774" y="270" on="0"/>
        <pt x="774" y="537" on="1"/>
        <pt x="774" y="550" on="0"/>
        <pt x="774" y="564" on="1"/>
        <pt x="774" y="678" on="0"/>
        <pt x="738" y="738" on="1"/>
        <pt x="675" y="831" on="0"/>
        <pt x="564" y="883" on="1"/>
        <pt x="464" y="930" on="0"/>
        <pt x="268" y="973" on="1"/>
        <pt x="252" y="948" on="0"/>
        <pt x="252" y="886" on="1"/>
        <pt x="252" y="847" on="0"/>
        <pt x="265" y="784" on="1"/>
      </contour>
      <contour>
        <pt x="525" y="0" on="1"/>
        <pt x="468" y="20" on="0"/>
        <pt x="344" y="84" on="1"/>
        <pt x="251" y="132" on="0"/>
        <pt x="164" y="228" on="1"/>
        <pt x="100" y="328" on="0"/>
        <pt x="100" y="413" on="1"/>
        <pt x="100" y="415" on="0"/>
        <pt x="100" y="418" on="1"/>
        <pt x="115" y="539" on="0"/>
        <pt x="212" y="614" on="1"/>
        <pt x="376" y="740" on="0"/>
        <pt x="623" y="742" on="1"/>
        <pt x="318" y="630" on="0"/>
        <pt x="270" y="492" on="1"/>
        <pt x="260" y="463" on="0"/>
        <pt x="260" y="436" on="1"/>
        <pt x="260" y="390" on="0"/>
        <pt x="292" y="354" on="1"/>
        <pt x="378" y="267" on="0"/>
        <pt x="437" y="238" on="1"/>
        <pt x="618" y="149" on="0"/>
        <pt x="735" y="138" on="1"/>
      </contour>
    </TTGlyph>
    <TTGlyph name="aacute" xMin="100" yMin="0" xMax="988" yMax="1512">
      <component glyphName="a" x="0" y="0" flags="0x204"/>
      <component glyphName="acute" x="261" y="0" flags="0x4"/>
    </TTGlyph>
    <TTGlyph name="abreve" xMin="100" yMin="0" xMax="988" yMax="1513">
      <component glyphName="a" x="0" y="0" flags="0x204"/>
      <component glyphName="breve" x="37" y="0" flags="0x4"/>
    </TTGlyph>
    <TTGlyph name="acircumflex" xMin="100" yMin="0" xMax="988" yMax="1509">
      <component glyphName="a" x="0" y="0" flags="0x204"/>
      <component glyphName="circumflex" x="30" y="0" flags="0x4"/>
    </TTGlyph>
    <TTGlyph name="acute" xMin="150" yMin="1128" xMax="620" yMax="1512">
      <contour>
        <pt x="150" y="1221" on="1"/>
        <pt x="189" y="1237" on="0"/>
        <pt x="226" y="1264" on="1"/>
        <pt x="278" y="1302" on="0"/>
        <pt x="315" y="1342" on="1"/>
        <pt x="324" y="1352" on="0"/>
        <pt x="347" y="1384" on="1"/>
        <pt x="365" y="1409" on="0"/>
        <pt x="408" y="1512" on="1"/>
        <pt x="485" y="1455" on="0"/>
        <pt x="620" y="1418" on="1"/>
        <pt x="553" y="1375" on="1"/>
        <pt x="503" y="1342" on="0"/>
        <pt x="455" y="1297" on="1"/>
        <pt x="444" y="1287" on="0"/>
        <pt x="429" y="1264" on="1"/>
        <pt x="386" y="1199" on="0"/>
        <pt x="369" y="1145" on="1"/>
        <pt x="364" y="1129" on="0"/>
        <pt x="364" y="1128" on="1"/>
        <pt x="275" y="1178" on="1"/>
        <pt x="222" y="1209" on="0"/>
      </contour>
    </TTGlyph>
    <TTGlyph name="adieresis" xMin="100" yMin="0" xMax="988" yMax="1551">
      <component glyphName="a" x="0" y="0" flags="0x204"/>
      <component glyphName="dieresis" x="0" y="0" flags="0x4"/>
    </TTGlyph>
    <TTGlyph name="ae" xMin="100" yMin="0" xMax="1663" yMax="1134">
      <contour>
        <pt x="525" y="0" on="1"/>
        <pt x="468" y="20" on="0"/>
        <pt x="344" y="84" on="1"/>
        <pt x="251" y="132" on="0"/>
        <pt x="164" y="228" on="1"/>
        <pt x="100" y="328" on="0"/>
        <pt x="100" y="413" on="1"/>
        <pt x="100" y="418" on="1"/>
        <pt x="115" y="539" on="0"/>
        <pt x="212" y="614" on="1"/>
        <pt x="376" y="740" on="0"/>
        <pt x="623" y="742" on="1"/>
        <pt x="318" y="630" on="0"/>
        <pt x="270" y="492" on="1"/>
        <pt x="260" y="463" on="0"/>
        <pt x="260" y="436" on="1"/>
        <pt x="260" y="390" on="0"/>
        <pt x="292" y="354" on="1"/>
        <pt x="378" y="267" on="0"/>
        <pt x="437" y="238" on="1"/>
        <pt x="618" y="149" on="0"/>
        <pt x="735" y="138" on="1"/>
      </contour>
      <contour>
        <pt x="123" y="840" on="1"/>
        <pt x="149" y="900" on="0"/>
        <pt x="211" y="950" on="1"/>
        <pt x="258" y="988" on="1"/>
        <pt x="486" y="1130" on="1"/>
        <pt x="543" y="1115" on="0"/>
        <pt x="627" y="1072" on="1"/>
        <pt x="707" y="1031" on="0"/>
        <pt x="847" y="895" on="0"/>
        <pt x="884" y="819" on="1"/>
        <pt x="918" y="887" on="0"/>
        <pt x="968" y="942" on="1"/>
        <pt x="992" y="969" on="0"/>
        <pt x="1028" y="996" on="1"/>
        <pt x="1238" y="1134" on="1"/>
        <pt x="1291" y="1116" on="0"/>
        <pt x="1419" y="1050" on="1"/>
        <pt x="1512" y="1002" on="0"/>
        <pt x="1599" y="906" on="1"/>
        <pt x="1663" y="806" on="0"/>
        <pt x="1663" y="721" on="1"/>
        <pt x="1663" y="716" on="1"/>
        <pt x="1648" y="594" on="0"/>
        <pt x="1551" y="520" on="1"/>
        <pt x="1386" y="394" on="0"/>
        <pt x="1140" y="392" on="1"/>
        <pt x="1450" y="498" on="0"/>
        <pt x="1507" y="637" on="1"/>
        <pt x="1519" y="666" on="0"/>
        <pt x="1519" y="694" on="1"/>
        <pt x="1519" y="696" on="1"/>
        <pt x="1519" y="698" on="1"/>
        <pt x="1519" y="740" on="0"/>
        <pt x="1484" y="780" on="1"/>
        <pt x="1429" y="845" on="0"/>
        <pt x="1326" y="896" on="1"/>
        <pt x="1150" y="983" on="0"/>
        <pt x="1040" y="994" on="1"/>
        <pt x="1002" y="932" on="0"/>
        <pt x="971" y="806" on="1"/>
        <pt x="947" y="708" on="0"/>
        <pt x="947" y="636" on="1"/>
        <pt x="947" y="602" on="0"/>
        <pt x="952" y="571" on="1"/>
        <pt x="966" y="482" on="0"/>
        <pt x="1026" y="392" on="1"/>
        <pt x="1088" y="300" on="0"/>
        <pt x="1199" y="247" on="1"/>
        <pt x="1295" y="201" on="0"/>
        <pt x="1494" y="156" on="1"/>
        <pt x="1495" y="157" on="1"/>
        <pt x="1511" y="182" on="0"/>
        <pt x="1511" y="244" on="1"/>
        <pt x="1511" y="283" on="0"/>
        <pt x="1498" y="346" on="1"/>
        <pt x="1640" y="290" on="1"/>
        <pt x="1613" y="229" on="0"/>
        <pt x="1552" y="180" on="1"/>
        <pt x="1506" y="143" on="0"/>
        <pt x="1506" y="142" on="1"/>
        <pt x="1278" y="0" on="1"/>
        <pt x="1219" y="14" on="0"/>
        <pt x="1053" y="103" on="0"/>
        <pt x="986" y="167" on="1"/>
        <pt x="971" y="182" on="1"/>
        <pt x="975" y="153" on="0"/>
        <pt x="980" y="128" on="1"/>
        <pt x="988" y="92" on="1"/>
        <pt x="920" y="84" on="0"/>
        <pt x="866" y="64" on="1"/>
        <pt x="779" y="32" on="0"/>
        <pt x="736" y="0" on="1"/>
        <pt x="774" y="270" on="0"/>
        <pt x="774" y="537" on="1"/>
        <pt x="774" y="564" on="1"/>
        <pt x="774" y="678" on="0"/>
        <pt x="738" y="738" on="1"/>
        <pt x="675" y="831" on="0"/>
        <pt x="564" y="883" on="1"/>
        <pt x="464" y="930" on="0"/>
        <pt x="270" y="974" on="1"/>
        <pt x="268" y="973" on="1"/>
        <pt x="252" y="948" on="0"/>
        <pt x="252" y="886" on="1"/>
        <pt x="252" y="847" on="0"/>
        <pt x="265" y="784" on="1"/>
      </contour>
    </TTGlyph>
    <TTGlyph name="afii00208" xMin="0" yMin="598" xMax="1083" yMax="860">
      <component glyphName="emdash" x="0" y="0" flags="0x204"/>
    </TTGlyph>
    <TTGlyph name="afii61248" xMin="73" yMin="-216" xMax="1639" yMax="1664">
      <contour>
        <pt x="331" y="797" on="1"/>
        <pt x="216" y="844" on="0"/>
        <pt x="80" y="1013" on="0"/>
        <pt x="73" y="1134" on="1"/>
        <pt x="73" y="1173" on="0"/>
        <pt x="99" y="1255" on="0"/>
        <pt x="145" y="1332" on="0"/>
        <pt x="208" y="1398" on="0"/>
        <pt x="245" y="1421" on="1"/>
        <pt x="417" y="1512" on="1"/>
        <pt x="443" y="1507" on="0"/>
        <pt x="512" y="1483" on="0"/>
        <pt x="593" y="1443" on="0"/>
        <pt x="676" y="1386" on="0"/>
        <pt x="711" y="1348" on="1"/>
        <pt x="724" y="1334" on="1"/>
        <pt x="569" y="1249" on="1"/>
        <pt x="541" y="1287" on="0"/>
        <pt x="500" y="1323" on="0"/>
        <pt x="439" y="1353" on="0"/>
        <pt x="342" y="1375" on="0"/>
        <pt x="264" y="1386" on="1"/>
        <pt x="255" y="1370" on="0"/>
        <pt x="233" y="1319" on="0"/>
        <pt x="215" y="1261" on="0"/>
        <pt x="203" y="1202" on="0"/>
        <pt x="203" y="1179" on="1"/>
        <pt x="203" y="1149" on="0"/>
        <pt x="224" y="1083" on="0"/>
        <pt x="269" y="1020" on="0"/>
        <pt x="341" y="964" on="0"/>
        <pt x="392" y="945" on="1"/>
        <pt x="430" y="931" on="0"/>
        <pt x="539" y="903" on="0"/>
        <pt x="612" y="889" on="1"/>
        <pt x="618" y="915" on="1"/>
        <pt x="619" y="931" on="0"/>
        <pt x="612" y="968" on="0"/>
        <pt x="607" y="990" on="1"/>
        <pt x="601" y="1016" on="1"/>
        <pt x="756" y="967" on="1"/>
        <pt x="747" y="951" on="1"/>
        <pt x="725" y="910" on="0"/>
        <pt x="673" y="875" on="1"/>
        <pt x="642" y="854" on="1"/>
        <pt x="451" y="757" on="1"/>
        <pt x="409" y="765" on="0"/>
      </contour>
      <contour>
        <pt x="1287" y="0" on="1"/>
        <pt x="1266" y="3" on="0"/>
        <pt x="1212" y="21" on="0"/>
        <pt x="1146" y="49" on="0"/>
        <pt x="1073" y="89" on="0"/>
        <pt x="1007" y="138" on="0"/>
        <pt x="952" y="198" on="0"/>
        <pt x="936" y="232" on="1"/>
        <pt x="919" y="270" on="0"/>
        <pt x="899" y="339" on="0"/>
        <pt x="900" y="375" on="1"/>
        <pt x="900" y="413" on="0"/>
        <pt x="924" y="495" on="0"/>
        <pt x="970" y="571" on="0"/>
        <pt x="1035" y="638" on="0"/>
        <pt x="1076" y="661" on="1"/>
        <pt x="1252" y="752" on="1"/>
        <pt x="1284" y="746" on="0"/>
        <pt x="1361" y="719" on="0"/>
        <pt x="1446" y="676" on="0"/>
        <pt x="1530" y="619" on="0"/>
        <pt x="1597" y="535" on="0"/>
        <pt x="1639" y="436" on="0"/>
        <pt x="1639" y="376" on="1"/>
        <pt x="1639" y="319" on="0"/>
        <pt x="1610" y="233" on="0"/>
        <pt x="1565" y="168" on="0"/>
        <pt x="1505" y="116" on="1"/>
        <pt x="1480" y="96" on="1"/>
      </contour>
      <contour>
        <pt x="1452" y="131" on="1"/>
        <pt x="1459" y="144" on="0"/>
        <pt x="1478" y="194" on="0"/>
        <pt x="1495" y="254" on="0"/>
        <pt x="1507" y="315" on="0"/>
        <pt x="1507" y="343" on="1"/>
        <pt x="1507" y="366" on="0"/>
        <pt x="1495" y="419" on="0"/>
        <pt x="1463" y="474" on="0"/>
        <pt x="1407" y="527" on="0"/>
        <pt x="1317" y="575" on="0"/>
        <pt x="1185" y="614" on="0"/>
        <pt x="1095" y="627" on="1"/>
        <pt x="1087" y="614" on="0"/>
        <pt x="1066" y="570" on="0"/>
        <pt x="1048" y="515" on="0"/>
        <pt x="1035" y="453" on="0"/>
        <pt x="1035" y="422" on="1"/>
        <pt x="1035" y="386" on="0"/>
        <pt x="1065" y="315" on="0"/>
        <pt x="1118" y="252" on="0"/>
        <pt x="1187" y="202" on="0"/>
        <pt x="1226" y="187" on="1"/>
        <pt x="1260" y="174" on="0"/>
        <pt x="1372" y="146" on="0"/>
      </contour>
      <contour>
        <pt x="260" y="-127" on="1"/>
        <pt x="421" y="138" on="0"/>
        <pt x="686" y="612" on="0"/>
        <pt x="899" y="1050" on="0"/>
        <pt x="1064" y="1462" on="0"/>
        <pt x="1126" y="1664" on="1"/>
        <pt x="1161" y="1637" on="0"/>
        <pt x="1290" y="1583" on="0"/>
        <pt x="1378" y="1572" on="1"/>
        <pt x="1156" y="1200" on="0"/>
        <pt x="940" y="741" on="1"/>
        <pt x="809" y="475" on="0"/>
        <pt x="596" y="0" on="0"/>
        <pt x="512" y="-216" on="1"/>
        <pt x="442" y="-177" on="0"/>
        <pt x="321" y="-134" on="0"/>
      </contour>
    </TTGlyph>
    <TTGlyph name="afii61289" xMin="0" yMin="0" xMax="651" yMax="1515">
      <contour>
        <pt x="0" y="449" on="1"/>
        <pt x="177" y="684" on="1"/>
        <pt x="177" y="1139" on="1"/>
        <pt x="177" y="1365" on="0"/>
        <pt x="320" y="1515" on="0"/>
        <pt x="431" y="1515" on="1"/>
        <pt x="527" y="1515" on="0"/>
        <pt x="651" y="1385" on="0"/>
        <pt x="651" y="1276" on="1"/>
        <pt x="651" y="1184" on="0"/>
        <pt x="531" y="919" on="0"/>
        <pt x="366" y="689" on="1"/>
        <pt x="366" y="274" on="1"/>
        <pt x="366" y="185" on="0"/>
        <pt x="395" y="142" on="0"/>
        <pt x="422" y="142" on="1"/>
        <pt x="448" y="142" on="0"/>
        <pt x="516" y="175" on="0"/>
        <pt x="621" y="249" on="1"/>
        <pt x="621" y="87" on="1"/>
        <pt x="510" y="0" on="0"/>
        <pt x="396" y="0" on="1"/>
        <pt x="304" y="0" on="0"/>
        <pt x="177" y="117" on="0"/>
        <pt x="177" y="244" on="1"/>
        <pt x="177" y="469" on="1"/>
        <pt x="98" y="371" on="1"/>
      </contour>
      <contour>
        <pt x="366" y="923" on="1"/>
        <pt x="464" y="1092" on="0"/>
        <pt x="511" y="1220" on="0"/>
        <pt x="511" y="1275" on="1"/>
        <pt x="511" y="1336" on="0"/>
        <pt x="485" y="1370" on="1"/>
        <pt x="465" y="1395" on="0"/>
        <pt x="435" y="1395" on="1"/>
        <pt x="404" y="1395" on="0"/>
        <pt x="389" y="1369" on="1"/>
        <pt x="366" y="1327" on="0"/>
        <pt x="366" y="1150" on="1"/>
      </contour>
    </TTGlyph>
    <TTGlyph name="agrave" xMin="100" yMin="0" xMax="988" yMax="1512">
      <component glyphName="a" x="0" y="0" flags="0x204"/>
      <component glyphName="grave" x="-24" y="0" flags="0x4"/>
    </TTGlyph>
    <TTGlyph name="amacron" xMin="100" yMin="0" xMax="988" yMax="1514">
      <component glyphName="a" x="0" y="0" flags="0x204"/>
      <component glyphName="macron" x="8" y="0" flags="0x4"/>
    </TTGlyph>
    <TTGlyph name="ampersand" xMin="122" yMin="0" xMax="1462" yMax="1511">
      <contour>
        <pt x="642" y="0" on="1"/>
        <pt x="530" y="52" on="0"/>
        <pt x="399" y="118" on="0"/>
        <pt x="376" y="132" on="1"/>
        <pt x="302" y="177" on="0"/>
        <pt x="204" y="257" on="0"/>
        <pt x="146" y="338" on="0"/>
        <pt x="122" y="425" on="0"/>
        <pt x="122" y="486" on="1"/>
        <pt x="127" y="543" on="0"/>
        <pt x="181" y="637" on="0"/>
        <pt x="268" y="705" on="0"/>
        <pt x="366" y="749" on="0"/>
        <pt x="413" y="757" on="1"/>
        <pt x="336" y="790" on="1"/>
        <pt x="178" y="894" on="0"/>
        <pt x="178" y="1076" on="1"/>
        <pt x="178" y="1186" on="0"/>
        <pt x="268" y="1278" on="1"/>
        <pt x="347" y="1357" on="0"/>
        <pt x="397" y="1388" on="1"/>
        <pt x="640" y="1511" on="1"/>
        <pt x="732" y="1488" on="0"/>
        <pt x="889" y="1389" on="0"/>
        <pt x="942" y="1332" on="1"/>
        <pt x="802" y="1211" on="1"/>
        <pt x="761" y="1242" on="0"/>
        <pt x="665" y="1295" on="0"/>
        <pt x="563" y="1339" on="0"/>
        <pt x="458" y="1374" on="0"/>
        <pt x="406" y="1387" on="1"/>
        <pt x="321" y="1274" on="0"/>
        <pt x="321" y="1153" on="1"/>
        <pt x="321" y="1133" on="0"/>
        <pt x="325" y="1092" on="0"/>
        <pt x="330" y="1072" on="1"/>
        <pt x="338" y="1040" on="1"/>
        <pt x="621" y="725" on="0"/>
        <pt x="1032" y="410" on="1"/>
        <pt x="1130" y="638" on="0"/>
        <pt x="1130" y="904" on="1"/>
        <pt x="1141" y="889" on="0"/>
        <pt x="1187" y="863" on="0"/>
        <pt x="1259" y="836" on="0"/>
        <pt x="1335" y="818" on="0"/>
        <pt x="1376" y="820" on="1"/>
        <pt x="1319" y="678" on="0"/>
        <pt x="1186" y="447" on="0"/>
        <pt x="1107" y="353" on="1"/>
        <pt x="1192" y="290" on="0"/>
        <pt x="1368" y="165" on="0"/>
        <pt x="1462" y="102" on="1"/>
        <pt x="1432" y="101" on="0"/>
        <pt x="1380" y="88" on="0"/>
        <pt x="1326" y="65" on="0"/>
        <pt x="1271" y="32" on="0"/>
        <pt x="1235" y="0" on="1"/>
        <pt x="1214" y="37" on="0"/>
        <pt x="1103" y="162" on="0"/>
        <pt x="1009" y="250" on="1"/>
        <pt x="958" y="202" on="0"/>
        <pt x="888" y="143" on="1"/>
      </contour>
      <contour>
        <pt x="970" y="287" on="1"/>
        <pt x="878" y="372" on="1"/>
        <pt x="767" y="473" on="0"/>
        <pt x="609" y="613" on="0"/>
        <pt x="508" y="702" on="0"/>
        <pt x="453" y="741" on="1"/>
        <pt x="398" y="712" on="0"/>
        <pt x="324" y="660" on="0"/>
        <pt x="279" y="609" on="0"/>
        <pt x="261" y="559" on="0"/>
        <pt x="261" y="532" on="1"/>
        <pt x="261" y="501" on="0"/>
        <pt x="287" y="447" on="0"/>
        <pt x="310" y="424" on="1"/>
        <pt x="376" y="367" on="0"/>
        <pt x="506" y="283" on="0"/>
        <pt x="644" y="219" on="0"/>
        <pt x="792" y="166" on="0"/>
        <pt x="876" y="145" on="1"/>
        <pt x="902" y="180" on="0"/>
        <pt x="950" y="250" on="0"/>
      </contour>
    </TTGlyph>
    <TTGlyph name="aogonek" xMin="100" yMin="-466" xMax="988" yMax="1130">
      <contour>
        <pt x="525" y="0" on="1"/>
        <pt x="468" y="20" on="0"/>
        <pt x="344" y="84" on="1"/>
        <pt x="251" y="132" on="0"/>
        <pt x="164" y="228" on="1"/>
        <pt x="100" y="328" on="0"/>
        <pt x="100" y="413" on="1"/>
        <pt x="100" y="418" on="1"/>
        <pt x="115" y="539" on="0"/>
        <pt x="212" y="614" on="1"/>
        <pt x="376" y="740" on="0"/>
        <pt x="623" y="742" on="1"/>
        <pt x="318" y="630" on="0"/>
        <pt x="270" y="492" on="1"/>
        <pt x="260" y="463" on="0"/>
        <pt x="260" y="436" on="1"/>
        <pt x="260" y="390" on="0"/>
        <pt x="292" y="354" on="1"/>
        <pt x="378" y="267" on="0"/>
        <pt x="437" y="238" on="1"/>
        <pt x="618" y="149" on="0"/>
        <pt x="735" y="138" on="1"/>
      </contour>
      <contour>
        <pt x="123" y="840" on="1"/>
        <pt x="149" y="900" on="0"/>
        <pt x="211" y="950" on="1"/>
        <pt x="258" y="988" on="1"/>
        <pt x="486" y="1130" on="1"/>
        <pt x="543" y="1115" on="0"/>
        <pt x="627" y="1072" on="1"/>
        <pt x="707" y="1031" on="0"/>
        <pt x="777" y="963" on="1"/>
        <pt x="865" y="877" on="0"/>
        <pt x="901" y="778" on="1"/>
        <pt x="940" y="682" on="0"/>
        <pt x="943" y="568" on="1"/>
        <pt x="951" y="281" on="0"/>
        <pt x="980" y="128" on="1"/>
        <pt x="988" y="92" on="1"/>
        <pt x="919" y="84" on="0"/>
        <pt x="866" y="64" on="1"/>
        <pt x="805" y="41" on="0"/>
        <pt x="766" y="19" on="1"/>
        <pt x="690" y="-88" on="0"/>
        <pt x="689" y="-177" on="1"/>
        <pt x="689" y="-184" on="1"/>
        <pt x="689" y="-301" on="0"/>
        <pt x="872" y="-466" on="1"/>
        <pt x="865" y="-463" on="1"/>
        <pt x="742" y="-395" on="0"/>
        <pt x="620" y="-387" on="1"/>
        <pt x="606" y="-382" on="1"/>
        <pt x="511" y="-325" on="0"/>
        <pt x="511" y="-202" on="1"/>
        <pt x="511" y="-32" on="0"/>
        <pt x="739" y="21" on="1"/>
        <pt x="774" y="280" on="0"/>
        <pt x="774" y="537" on="1"/>
        <pt x="774" y="564" on="1"/>
        <pt x="774" y="678" on="0"/>
        <pt x="738" y="738" on="1"/>
        <pt x="675" y="831" on="0"/>
        <pt x="564" y="883" on="1"/>
        <pt x="464" y="930" on="0"/>
        <pt x="270" y="974" on="1"/>
        <pt x="268" y="973" on="1"/>
        <pt x="252" y="948" on="0"/>
        <pt x="252" y="886" on="1"/>
        <pt x="252" y="847" on="0"/>
        <pt x="265" y="784" on="1"/>
      </contour>
    </TTGlyph>
    <TTGlyph name="approxequal" xMin="87" yMin="328" xMax="1035" yMax="1049">
      <component glyphName="asciitilde" x="0" y="-201" flags="0x4"/>
      <component glyphName="asciitilde" x="7" y="189" flags="0x4"/>
    </TTGlyph>
    <TTGlyph name="aring" xMin="100" yMin="0" xMax="988" yMax="1599">
      <component glyphName="a" x="0" y="0" flags="0x204"/>
      <component glyphName="ring" x="112" y="0" flags="0x4"/>
    </TTGlyph>
    <TTGlyph name="asciicircum" xMin="80" yMin="862" xMax="1149" yMax="1511">
      <contour>
        <pt x="712" y="1511" on="1"/>
        <pt x="711" y="1450" on="0"/>
        <pt x="860" y="1226" on="1"/>
        <pt x="993" y="1046" on="0"/>
        <pt x="1149" y="960" on="1"/>
        <pt x="1110" y="955" on="0"/>
        <pt x="1033" y="935" on="0"/>
        <pt x="965" y="910" on="0"/>
        <pt x="912" y="882" on="0"/>
        <pt x="897" y="870" on="1"/>
        <pt x="863" y="971" on="0"/>
        <pt x="696" y="1170" on="1"/>
        <pt x="590" y="1297" on="0"/>
        <pt x="566" y="1302" on="1"/>
        <pt x="484" y="1232" on="0"/>
        <pt x="347" y="1070" on="0"/>
        <pt x="284" y="962" on="1"/>
        <pt x="284" y="948" on="1"/>
        <pt x="136" y="918" on="0"/>
        <pt x="80" y="862" on="1"/>
        <pt x="104" y="898" on="1"/>
        <pt x="195" y="1001" on="0"/>
        <pt x="330" y="1162" on="0"/>
        <pt x="417" y="1288" on="0"/>
        <pt x="460" y="1383" on="0"/>
        <pt x="460" y="1422" on="1"/>
        <pt x="521" y="1429" on="0"/>
        <pt x="643" y="1472" on="0"/>
      </contour>
    </TTGlyph>
    <TTGlyph name="asciitilde" xMin="87" yMin="529" xMax="1028" yMax="860">
      <contour>
        <pt x="87" y="533" on="1"/>
        <pt x="187" y="665" on="0"/>
        <pt x="187" y="783" on="1"/>
        <pt x="186" y="802" on="1"/>
        <pt x="193" y="803" on="1"/>
        <pt x="262" y="860" on="0"/>
        <pt x="333" y="860" on="1"/>
        <pt x="381" y="860" on="0"/>
        <pt x="478" y="808" on="0"/>
        <pt x="528" y="757" on="1"/>
        <pt x="585" y="698" on="0"/>
        <pt x="671" y="698" on="1"/>
        <pt x="741" y="698" on="0"/>
        <pt x="918" y="778" on="0"/>
        <pt x="1028" y="857" on="1"/>
        <pt x="941" y="727" on="0"/>
        <pt x="941" y="614" on="1"/>
        <pt x="942" y="592" on="1"/>
        <pt x="935" y="591" on="1"/>
        <pt x="864" y="529" on="0"/>
        <pt x="789" y="529" on="1"/>
        <pt x="698" y="529" on="0"/>
        <pt x="600" y="636" on="1"/>
        <pt x="549" y="692" on="0"/>
        <pt x="461" y="692" on="1"/>
        <pt x="323" y="692" on="0"/>
      </contour>
    </TTGlyph>
    <TTGlyph name="asterisk" xMin="150" yMin="540" xMax="1117" yMax="1511">
      <contour>
        <pt x="150" y="1159" on="1"/>
        <pt x="165" y="1169" on="0"/>
        <pt x="206" y="1200" on="0"/>
        <pt x="254" y="1246" on="0"/>
        <pt x="307" y="1306" on="0"/>
        <pt x="334" y="1344" on="1"/>
        <pt x="353" y="1324" on="1"/>
        <pt x="427" y="1251" on="0"/>
        <pt x="550" y="1170" on="1"/>
        <pt x="545" y="1245" on="0"/>
        <pt x="528" y="1367" on="0"/>
        <pt x="515" y="1418" on="1"/>
        <pt x="507" y="1444" on="1"/>
        <pt x="594" y="1452" on="0"/>
        <pt x="721" y="1491" on="0"/>
        <pt x="759" y="1511" on="1"/>
        <pt x="743" y="1430" on="0"/>
        <pt x="724" y="1262" on="0"/>
        <pt x="721" y="1172" on="1"/>
        <pt x="782" y="1213" on="0"/>
        <pt x="878" y="1289" on="0"/>
        <pt x="914" y="1324" on="1"/>
        <pt x="933" y="1344" on="1"/>
        <pt x="987" y="1268" on="0"/>
        <pt x="1079" y="1182" on="0"/>
        <pt x="1117" y="1159" on="1"/>
        <pt x="1039" y="1133" on="0"/>
        <pt x="882" y="1065" on="0"/>
        <pt x="802" y="1022" on="1"/>
        <pt x="880" y="982" on="0"/>
        <pt x="1036" y="918" on="0"/>
        <pt x="1117" y="892" on="1"/>
        <pt x="1001" y="803" on="0"/>
        <pt x="935" y="706" on="1"/>
        <pt x="916" y="724" on="1"/>
        <pt x="892" y="747" on="0"/>
        <pt x="799" y="817" on="0"/>
        <pt x="727" y="864" on="1"/>
        <pt x="731" y="778" on="0"/>
        <pt x="745" y="662" on="0"/>
        <pt x="753" y="630" on="1"/>
        <pt x="759" y="605" on="1"/>
        <pt x="699" y="600" on="0"/>
        <pt x="577" y="569" on="0"/>
        <pt x="514" y="543" on="1"/>
        <pt x="507" y="540" on="1"/>
        <pt x="543" y="702" on="0"/>
        <pt x="552" y="872" on="1"/>
        <pt x="474" y="822" on="0"/>
        <pt x="376" y="747" on="0"/>
        <pt x="351" y="724" on="1"/>
        <pt x="332" y="706" on="1"/>
        <pt x="266" y="803" on="0"/>
        <pt x="150" y="892" on="1"/>
        <pt x="231" y="918" on="0"/>
        <pt x="387" y="982" on="0"/>
        <pt x="465" y="1022" on="1"/>
        <pt x="385" y="1065" on="0"/>
        <pt x="228" y="1133" on="0"/>
      </contour>
    </TTGlyph>
    <TTGlyph name="asteriskmath" xMin="150" yMin="249" xMax="1117" yMax="1220">
      <contour>
        <pt x="150" y="868" on="1"/>
        <pt x="189" y="893" on="0"/>
        <pt x="255" y="957" on="1"/>
        <pt x="293" y="994" on="0"/>
        <pt x="334" y="1053" on="1"/>
        <pt x="353" y="1033" on="1"/>
        <pt x="426" y="961" on="0"/>
        <pt x="550" y="879" on="1"/>
        <pt x="541" y="1027" on="0"/>
        <pt x="515" y="1127" on="1"/>
        <pt x="507" y="1153" on="1"/>
        <pt x="577" y="1159" on="0"/>
        <pt x="629" y="1173" on="1"/>
        <pt x="712" y="1195" on="0"/>
        <pt x="759" y="1220" on="1"/>
        <pt x="727" y="1060" on="0"/>
        <pt x="721" y="881" on="1"/>
        <pt x="842" y="962" on="0"/>
        <pt x="914" y="1033" on="1"/>
        <pt x="933" y="1053" on="1"/>
        <pt x="975" y="993" on="0"/>
        <pt x="1011" y="957" on="1"/>
        <pt x="1070" y="897" on="0"/>
        <pt x="1117" y="868" on="1"/>
        <pt x="961" y="816" on="0"/>
        <pt x="802" y="731" on="1"/>
        <pt x="956" y="652" on="0"/>
        <pt x="1117" y="601" on="1"/>
        <pt x="1111" y="596" on="1"/>
        <pt x="1003" y="514" on="0"/>
        <pt x="935" y="415" on="1"/>
        <pt x="916" y="433" on="1"/>
        <pt x="870" y="479" on="0"/>
        <pt x="727" y="573" on="1"/>
        <pt x="736" y="402" on="0"/>
        <pt x="753" y="339" on="1"/>
        <pt x="759" y="314" on="1"/>
        <pt x="640" y="304" on="0"/>
        <pt x="514" y="252" on="1"/>
        <pt x="507" y="249" on="1"/>
        <pt x="543" y="411" on="0"/>
        <pt x="552" y="581" on="1"/>
        <pt x="399" y="481" on="0"/>
        <pt x="351" y="433" on="1"/>
        <pt x="332" y="415" on="1"/>
        <pt x="264" y="514" on="0"/>
        <pt x="156" y="596" on="1"/>
        <pt x="150" y="601" on="1"/>
        <pt x="311" y="652" on="0"/>
        <pt x="465" y="731" on="1"/>
        <pt x="306" y="816" on="0"/>
      </contour>
    </TTGlyph>
    <TTGlyph name="at" xMin="100" yMin="-384" xMax="1141" yMax="1130">
      <contour>
        <pt x="681" y="-384" on="1"/>
        <pt x="643" y="-374" on="0"/>
        <pt x="547" y="-333" on="0"/>
        <pt x="443" y="-271" on="0"/>
        <pt x="339" y="-191" on="0"/>
        <pt x="250" y="-93" on="0"/>
        <pt x="176" y="21" on="0"/>
        <pt x="154" y="86" on="1"/>
        <pt x="126" y="168" on="0"/>
        <pt x="100" y="308" on="0"/>
        <pt x="100" y="366" on="1"/>
        <pt x="104" y="431" on="0"/>
        <pt x="124" y="557" on="0"/>
        <pt x="166" y="684" on="0"/>
        <pt x="235" y="812" on="0"/>
        <pt x="288" y="873" on="1"/>
        <pt x="321" y="911" on="0"/>
        <pt x="381" y="969" on="0"/>
        <pt x="411" y="988" on="1"/>
        <pt x="639" y="1130" on="1"/>
        <pt x="688" y="1118" on="0"/>
        <pt x="816" y="1056" on="0"/>
        <pt x="935" y="963" on="0"/>
        <pt x="1030" y="845" on="0"/>
        <pt x="1054" y="778" on="1"/>
        <pt x="1092" y="683" on="0"/>
        <pt x="1097" y="568" on="1"/>
        <pt x="1107" y="262" on="0"/>
        <pt x="1133" y="128" on="1"/>
        <pt x="1141" y="92" on="1"/>
        <pt x="1100" y="87" on="0"/>
        <pt x="1024" y="67" on="0"/>
        <pt x="958" y="41" on="0"/>
        <pt x="906" y="13" on="0"/>
        <pt x="889" y="0" on="1"/>
        <pt x="928" y="264" on="0"/>
        <pt x="928" y="500" on="1"/>
        <pt x="928" y="588" on="0"/>
        <pt x="911" y="704" on="0"/>
        <pt x="891" y="738" on="1"/>
        <pt x="855" y="789" on="0"/>
        <pt x="773" y="858" on="0"/>
        <pt x="657" y="910" on="0"/>
        <pt x="514" y="954" on="0"/>
        <pt x="413" y="979" on="1"/>
        <pt x="379" y="937" on="0"/>
        <pt x="310" y="815" on="0"/>
        <pt x="253" y="669" on="0"/>
        <pt x="221" y="505" on="0"/>
        <pt x="221" y="406" on="1"/>
        <pt x="221" y="340" on="0"/>
        <pt x="270" y="177" on="0"/>
        <pt x="327" y="82" on="1"/>
        <pt x="359" y="28" on="0"/>
        <pt x="480" y="-77" on="0"/>
        <pt x="635" y="-166" on="0"/>
        <pt x="814" y="-231" on="0"/>
        <pt x="904" y="-244" on="1"/>
      </contour>
      <contour>
        <pt x="721" y="0" on="1"/>
        <pt x="704" y="7" on="0"/>
        <pt x="641" y="41" on="0"/>
        <pt x="559" y="95" on="0"/>
        <pt x="472" y="174" on="0"/>
        <pt x="432" y="228" on="1"/>
        <pt x="381" y="328" on="0"/>
        <pt x="381" y="415" on="1"/>
        <pt x="389" y="498" on="0"/>
        <pt x="466" y="619" on="0"/>
        <pt x="583" y="700" on="0"/>
        <pt x="726" y="741" on="0"/>
        <pt x="800" y="742" on="1"/>
        <pt x="652" y="674" on="0"/>
        <pt x="509" y="522" on="0"/>
        <pt x="509" y="437" on="1"/>
        <pt x="510" y="396" on="0"/>
        <pt x="545" y="336" on="0"/>
        <pt x="595" y="283" on="0"/>
        <pt x="639" y="245" on="0"/>
        <pt x="651" y="238" on="1"/>
        <pt x="797" y="148" on="0"/>
        <pt x="890" y="138" on="1"/>
      </contour>
    </TTGlyph>
    <TTGlyph name="atilde" xMin="100" yMin="0" xMax="988" yMax="1511">
      <component glyphName="a" x="0" y="0" flags="0x204"/>
      <component glyphName="tilde" x="11" y="0" flags="0x4"/>
    </TTGlyph>
    <TTGlyph name="b" xMin="150" yMin="0" xMax="1074" yMax="1511">
      <contour>
        <pt x="862" y="147" on="1"/>
        <pt x="918" y="243" on="0"/>
        <pt x="935" y="336" on="1"/>
        <pt x="951" y="424" on="0"/>
        <pt x="951" y="498" on="1"/>
        <pt x="951" y="533" on="0"/>
        <pt x="943" y="574" on="1"/>
        <pt x="923" y="676" on="0"/>
        <pt x="869" y="753" on="1"/>
        <pt x="812" y="841" on="0"/>
        <pt x="701" y="894" on="1"/>
        <pt x="592" y="946" on="0"/>
        <pt x="404" y="990" on="1"/>
        <pt x="616" y="1129" on="1"/>
        <pt x="665" y="1116" on="0"/>
        <pt x="759" y="1068" on="1"/>
        <pt x="829" y="1032" on="0"/>
        <pt x="909" y="960" on="1"/>
        <pt x="997" y="874" on="0"/>
        <pt x="1033" y="769" on="1"/>
        <pt x="1074" y="657" on="0"/>
        <pt x="1074" y="561" on="1"/>
        <pt x="1074" y="557" on="1"/>
        <pt x="1074" y="448" on="0"/>
        <pt x="1030" y="338" on="1"/>
        <pt x="983" y="220" on="0"/>
        <pt x="916" y="172" on="1"/>
        <pt x="881" y="142" on="1"/>
        <pt x="653" y="0" on="1"/>
        <pt x="591" y="16" on="0"/>
        <pt x="511" y="58" on="1"/>
        <pt x="418" y="108" on="0"/>
        <pt x="362" y="167" on="1"/>
        <pt x="267" y="268" on="0"/>
        <pt x="227" y="342" on="1"/>
        <pt x="193" y="416" on="0"/>
        <pt x="193" y="516" on="1"/>
        <pt x="193" y="541" on="0"/>
        <pt x="195" y="562" on="1"/>
        <pt x="204" y="657" on="0"/>
        <pt x="204" y="867" on="1"/>
        <pt x="204" y="923" on="0"/>
        <pt x="203" y="968" on="1"/>
        <pt x="198" y="1204" on="0"/>
        <pt x="158" y="1383" on="1"/>
        <pt x="150" y="1419" on="1"/>
        <pt x="218" y="1427" on="0"/>
        <pt x="272" y="1447" on="1"/>
        <pt x="359" y="1479" on="0"/>
        <pt x="402" y="1511" on="1"/>
        <pt x="362" y="1293" on="0"/>
        <pt x="357" y="962" on="1"/>
        <pt x="354" y="753" on="0"/>
        <pt x="354" y="647" on="1"/>
        <pt x="355" y="587" on="0"/>
        <pt x="355" y="568" on="1"/>
        <pt x="355" y="452" on="0"/>
        <pt x="401" y="392" on="1"/>
        <pt x="454" y="309" on="0"/>
        <pt x="579" y="248" on="1"/>
        <pt x="693" y="192" on="0"/>
      </contour>
    </TTGlyph>
    <TTGlyph name="backslash" xMin="0" yMin="-216" xMax="1118" yMax="1664">
      <contour>
        <pt x="1118" y="-127" on="1"/>
        <pt x="997" y="-141" on="0"/>
        <pt x="866" y="-216" on="1"/>
        <pt x="699" y="213" on="0"/>
        <pt x="438" y="741" on="1"/>
        <pt x="222" y="1200" on="0"/>
        <pt x="0" y="1572" on="1"/>
        <pt x="67" y="1580" on="0"/>
        <pt x="122" y="1600" on="1"/>
        <pt x="209" y="1632" on="0"/>
        <pt x="252" y="1664" on="1"/>
        <pt x="376" y="1259" on="0"/>
        <pt x="594" y="816" on="1"/>
        <pt x="810" y="378" on="0"/>
      </contour>
    </TTGlyph>
    <TTGlyph name="bar" xMin="170" yMin="-231" xMax="422" yMax="1649">
      <contour>
        <pt x="170" y="-231" on="1"/>
        <pt x="214" y="69" on="0"/>
        <pt x="214" y="664" on="1"/>
        <pt x="213" y="772" on="1"/>
        <pt x="204" y="1210" on="0"/>
        <pt x="176" y="1526" on="1"/>
        <pt x="170" y="1560" on="1"/>
        <pt x="292" y="1574" on="0"/>
        <pt x="422" y="1649" on="1"/>
        <pt x="378" y="1365" on="0"/>
        <pt x="378" y="815" on="1"/>
        <pt x="378" y="780" on="1"/>
        <pt x="378" y="72" on="0"/>
        <pt x="414" y="-103" on="1"/>
        <pt x="422" y="-139" on="1"/>
        <pt x="354" y="-147" on="0"/>
        <pt x="300" y="-167" on="1"/>
        <pt x="213" y="-199" on="0"/>
      </contour>
    </TTGlyph>
    <TTGlyph name="braceleft" xMin="6" yMin="-360" xMax="903" yMax="1771">
      <contour>
        <pt x="6" y="569" on="1"/>
        <pt x="13" y="583" on="0"/>
        <pt x="33" y="632" on="0"/>
        <pt x="53" y="698" on="0"/>
        <pt x="69" y="777" on="0"/>
        <pt x="73" y="821" on="1"/>
        <pt x="99" y="813" on="1"/>
        <pt x="125" y="805" on="0"/>
        <pt x="195" y="794" on="0"/>
        <pt x="240" y="790" on="1"/>
        <pt x="244" y="885" on="0"/>
        <pt x="279" y="1093" on="0"/>
        <pt x="328" y="1288" on="0"/>
        <pt x="398" y="1455" on="0"/>
        <pt x="436" y="1510" on="1"/>
        <pt x="639" y="1771" on="1"/>
        <pt x="707" y="1716" on="0"/>
        <pt x="776" y="1620" on="0"/>
        <pt x="787" y="1591" on="1"/>
        <pt x="807" y="1557" on="0"/>
        <pt x="807" y="1533" on="1"/>
        <pt x="675" y="1359" on="1"/>
        <pt x="666" y="1402" on="0"/>
        <pt x="638" y="1485" on="0"/>
        <pt x="602" y="1549" on="0"/>
        <pt x="559" y="1589" on="0"/>
        <pt x="535" y="1590" on="1"/>
        <pt x="520" y="1588" on="1"/>
        <pt x="489" y="1566" on="0"/>
        <pt x="436" y="1448" on="0"/>
        <pt x="394" y="1263" on="0"/>
        <pt x="364" y="1015" on="0"/>
        <pt x="358" y="865" on="1"/>
        <pt x="356" y="777" on="1"/>
        <pt x="359" y="674" on="1"/>
        <pt x="361" y="624" on="0"/>
        <pt x="394" y="474" on="0"/>
        <pt x="423" y="372" on="1"/>
        <pt x="481" y="195" on="0"/>
        <pt x="546" y="90" on="1"/>
        <pt x="654" y="-87" on="0"/>
        <pt x="768" y="-186" on="1"/>
        <pt x="770" y="-185" on="1"/>
        <pt x="812" y="-114" on="0"/>
        <pt x="813" y="-47" on="1"/>
        <pt x="810" y="-15" on="1"/>
        <pt x="903" y="-84" on="1"/>
        <pt x="874" y="-120" on="0"/>
        <pt x="818" y="-176" on="0"/>
        <pt x="801" y="-198" on="1"/>
        <pt x="675" y="-360" on="1"/>
        <pt x="652" y="-349" on="0"/>
        <pt x="595" y="-304" on="0"/>
        <pt x="518" y="-230" on="0"/>
        <pt x="438" y="-121" on="0"/>
        <pt x="397" y="-46" on="1"/>
        <pt x="358" y="24" on="0"/>
        <pt x="303" y="181" on="0"/>
        <pt x="266" y="347" on="0"/>
        <pt x="244" y="518" on="0"/>
        <pt x="240" y="601" on="1"/>
        <pt x="177" y="596" on="0"/>
        <pt x="61" y="580" on="0"/>
      </contour>
    </TTGlyph>
    <TTGlyph name="braceright" xMin="-50" yMin="-360" xMax="847" yMax="1771">
      <contour>
        <pt x="847" y="842" on="1"/>
        <pt x="839" y="828" on="0"/>
        <pt x="819" y="779" on="0"/>
        <pt x="800" y="713" on="0"/>
        <pt x="784" y="633" on="0"/>
        <pt x="780" y="590" on="1"/>
        <pt x="754" y="598" on="1"/>
        <pt x="701" y="614" on="0"/>
        <pt x="613" y="621" on="1"/>
        <pt x="608" y="525" on="0"/>
        <pt x="574" y="318" on="0"/>
        <pt x="525" y="123" on="0"/>
        <pt x="454" y="-44" on="0"/>
        <pt x="417" y="-99" on="1"/>
        <pt x="214" y="-360" on="1"/>
        <pt x="146" y="-306" on="0"/>
        <pt x="77" y="-210" on="0"/>
        <pt x="46" y="-146" on="0"/>
        <pt x="46" y="-122" on="1"/>
        <pt x="178" y="52" on="1"/>
        <pt x="187" y="8" on="0"/>
        <pt x="215" y="-74" on="0"/>
        <pt x="251" y="-139" on="0"/>
        <pt x="294" y="-178" on="0"/>
        <pt x="318" y="-179" on="1"/>
        <pt x="333" y="-177" on="1"/>
        <pt x="334" y="-176" on="1"/>
        <pt x="363" y="-156" on="0"/>
        <pt x="416" y="-38" on="0"/>
        <pt x="459" y="148" on="0"/>
        <pt x="489" y="396" on="0"/>
        <pt x="495" y="546" on="1"/>
        <pt x="496" y="569" on="0"/>
        <pt x="497" y="612" on="0"/>
        <pt x="497" y="634" on="1"/>
        <pt x="494" y="737" on="1"/>
        <pt x="492" y="787" on="0"/>
        <pt x="459" y="937" on="0"/>
        <pt x="430" y="1039" on="1"/>
        <pt x="371" y="1216" on="0"/>
        <pt x="307" y="1321" on="1"/>
        <pt x="199" y="1498" on="0"/>
        <pt x="85" y="1597" on="1"/>
        <pt x="41" y="1525" on="0"/>
        <pt x="40" y="1458" on="1"/>
        <pt x="40" y="1442" on="0"/>
        <pt x="43" y="1426" on="1"/>
        <pt x="-50" y="1495" on="1"/>
        <pt x="-21" y="1532" on="0"/>
        <pt x="35" y="1587" on="0"/>
        <pt x="52" y="1609" on="1"/>
        <pt x="178" y="1771" on="1"/>
        <pt x="200" y="1760" on="0"/>
        <pt x="262" y="1715" on="0"/>
        <pt x="334" y="1640" on="0"/>
        <pt x="414" y="1532" on="0"/>
        <pt x="456" y="1457" on="1"/>
        <pt x="495" y="1386" on="0"/>
        <pt x="550" y="1229" on="0"/>
        <pt x="587" y="1063" on="0"/>
        <pt x="608" y="893" on="0"/>
        <pt x="613" y="810" on="1"/>
        <pt x="676" y="815" on="0"/>
        <pt x="792" y="831" on="0"/>
      </contour>
    </TTGlyph>
    <TTGlyph name="bracketleft" xMin="170" yMin="-348" xMax="784" yMax="1747">
      <contour>
        <pt x="170" y="-348" on="1"/>
        <pt x="192" y="-199" on="0"/>
        <pt x="213" y="286" on="0"/>
        <pt x="213" y="623" on="1"/>
        <pt x="213" y="909" on="0"/>
        <pt x="197" y="1403" on="0"/>
        <pt x="178" y="1622" on="1"/>
        <pt x="172" y="1656" on="1"/>
        <pt x="233" y="1663" on="0"/>
        <pt x="354" y="1706" on="0"/>
        <pt x="424" y="1745" on="1"/>
        <pt x="497" y="1702" on="0"/>
        <pt x="587" y="1702" on="1"/>
        <pt x="633" y="1702" on="0"/>
        <pt x="731" y="1726" on="0"/>
        <pt x="784" y="1747" on="1"/>
        <pt x="712" y="1615" on="0"/>
        <pt x="705" y="1495" on="1"/>
        <pt x="677" y="1497" on="0"/>
        <pt x="621" y="1524" on="0"/>
        <pt x="565" y="1565" on="0"/>
        <pt x="507" y="1616" on="0"/>
        <pt x="458" y="1666" on="0"/>
        <pt x="427" y="1710" on="0"/>
        <pt x="421" y="1725" on="1"/>
        <pt x="399" y="1581" on="0"/>
        <pt x="377" y="1108" on="0"/>
        <pt x="377" y="774" on="1"/>
        <pt x="377" y="739" on="1"/>
        <pt x="377" y="-18" on="0"/>
        <pt x="411" y="-203" on="1"/>
        <pt x="437" y="-211" on="0"/>
        <pt x="453" y="-211" on="1"/>
        <pt x="528" y="-211" on="0"/>
        <pt x="687" y="-150" on="0"/>
        <pt x="767" y="-92" on="1"/>
        <pt x="748" y="-127" on="0"/>
        <pt x="708" y="-254" on="0"/>
        <pt x="700" y="-344" on="1"/>
        <pt x="674" y="-336" on="1"/>
        <pt x="576" y="-306" on="0"/>
        <pt x="449" y="-306" on="1"/>
        <pt x="369" y="-306" on="0"/>
      </contour>
    </TTGlyph>
    <TTGlyph name="bracketright" xMin="50" yMin="-348" xMax="664" yMax="1747">
      <contour>
        <pt x="134" y="1743" on="1"/>
        <pt x="160" y="1735" on="1"/>
        <pt x="257" y="1705" on="0"/>
        <pt x="385" y="1705" on="1"/>
        <pt x="464" y="1705" on="0"/>
        <pt x="664" y="1747" on="1"/>
        <pt x="642" y="1598" on="0"/>
        <pt x="621" y="1113" on="0"/>
        <pt x="621" y="776" on="1"/>
        <pt x="621" y="490" on="0"/>
        <pt x="636" y="-4" on="0"/>
        <pt x="656" y="-223" on="1"/>
        <pt x="662" y="-257" on="1"/>
        <pt x="601" y="-264" on="0"/>
        <pt x="480" y="-307" on="0"/>
        <pt x="410" y="-346" on="1"/>
        <pt x="337" y="-303" on="0"/>
        <pt x="247" y="-303" on="1"/>
        <pt x="201" y="-303" on="0"/>
        <pt x="103" y="-327" on="0"/>
        <pt x="50" y="-348" on="1"/>
        <pt x="122" y="-216" on="0"/>
        <pt x="129" y="-96" on="1"/>
        <pt x="157" y="-98" on="0"/>
        <pt x="211" y="-125" on="0"/>
        <pt x="269" y="-166" on="0"/>
        <pt x="326" y="-215" on="0"/>
        <pt x="373" y="-264" on="0"/>
        <pt x="407" y="-312" on="0"/>
        <pt x="413" y="-326" on="1"/>
        <pt x="435" y="-182" on="0"/>
        <pt x="457" y="291" on="0"/>
        <pt x="457" y="625" on="1"/>
        <pt x="457" y="660" on="1"/>
        <pt x="457" y="1417" on="0"/>
        <pt x="423" y="1602" on="1"/>
        <pt x="396" y="1610" on="0"/>
        <pt x="381" y="1610" on="1"/>
        <pt x="305" y="1610" on="0"/>
        <pt x="147" y="1549" on="0"/>
        <pt x="67" y="1491" on="1"/>
        <pt x="86" y="1526" on="0"/>
        <pt x="126" y="1653" on="0"/>
      </contour>
    </TTGlyph>
    <TTGlyph name="breve" xMin="150" yMin="1198" xMax="751" yMax="1513">
      <contour>
        <pt x="751" y="1513" on="1"/>
        <pt x="716" y="1198" on="0"/>
        <pt x="409" y="1198" on="1"/>
        <pt x="332" y="1198" on="0"/>
        <pt x="278" y="1263" on="1"/>
        <pt x="271" y="1276" on="1"/>
        <pt x="242" y="1395" on="0"/>
        <pt x="150" y="1510" on="1"/>
        <pt x="312" y="1393" on="0"/>
        <pt x="449" y="1379" on="1"/>
        <pt x="474" y="1378" on="1"/>
        <pt x="626" y="1393" on="0"/>
      </contour>
    </TTGlyph>
    <TTGlyph name="brokenbar" xMin="170" yMin="-231" xMax="422" yMax="1649">
      <contour>
        <pt x="170" y="-231" on="1"/>
        <pt x="211" y="-78" on="0"/>
        <pt x="211" y="140" on="1"/>
        <pt x="210" y="206" on="1"/>
        <pt x="203" y="453" on="0"/>
        <pt x="176" y="548" on="1"/>
        <pt x="170" y="573" on="1"/>
        <pt x="292" y="583" on="0"/>
        <pt x="422" y="638" on="1"/>
        <pt x="375" y="477" on="0"/>
        <pt x="375" y="247" on="1"/>
        <pt x="375" y="228" on="1"/>
        <pt x="375" y="18" on="0"/>
        <pt x="414" y="-138" on="1"/>
        <pt x="422" y="-164" on="1"/>
        <pt x="355" y="-170" on="0"/>
        <pt x="300" y="-184" on="1"/>
        <pt x="220" y="-204" on="0"/>
      </contour>
      <contour>
        <pt x="170" y="780" on="1"/>
        <pt x="209" y="928" on="0"/>
        <pt x="209" y="1143" on="1"/>
        <pt x="208" y="1212" on="1"/>
        <pt x="201" y="1463" on="0"/>
        <pt x="176" y="1559" on="1"/>
        <pt x="170" y="1584" on="1"/>
        <pt x="292" y="1594" on="0"/>
        <pt x="422" y="1649" on="1"/>
        <pt x="375" y="1488" on="0"/>
        <pt x="375" y="1258" on="1"/>
        <pt x="375" y="1239" on="1"/>
        <pt x="375" y="1029" on="0"/>
        <pt x="414" y="873" on="1"/>
        <pt x="422" y="847" on="1"/>
        <pt x="357" y="841" on="0"/>
        <pt x="300" y="827" on="1"/>
        <pt x="220" y="807" on="0"/>
      </contour>
    </TTGlyph>
    <TTGlyph name="bullet" xMin="150" yMin="378" xMax="726" yMax="1041">
      <contour>
        <pt x="426" y="1041" on="1"/>
        <pt x="455" y="1036" on="0"/>
        <pt x="518" y="1006" on="1"/>
        <pt x="567" y="983" on="0"/>
        <pt x="618" y="942" on="1"/>
        <pt x="676" y="892" on="0"/>
        <pt x="698" y="831" on="1"/>
        <pt x="726" y="765" on="0"/>
        <pt x="726" y="709" on="1"/>
        <pt x="726" y="707" on="1"/>
        <pt x="726" y="636" on="0"/>
        <pt x="696" y="579" on="1"/>
        <pt x="665" y="519" on="0"/>
        <pt x="630" y="491" on="1"/>
        <pt x="593" y="461" on="0"/>
        <pt x="568" y="446" on="1"/>
        <pt x="450" y="378" on="1"/>
        <pt x="412" y="386" on="0"/>
        <pt x="358" y="412" on="1"/>
        <pt x="311" y="434" on="0"/>
        <pt x="260" y="476" on="1"/>
        <pt x="202" y="523" on="0"/>
        <pt x="178" y="579" on="1"/>
        <pt x="150" y="643" on="0"/>
        <pt x="150" y="706" on="1"/>
        <pt x="150" y="763" on="0"/>
        <pt x="178" y="837" on="1"/>
        <pt x="194" y="881" on="0"/>
        <pt x="244" y="926" on="1"/>
        <pt x="268" y="948" on="0"/>
        <pt x="310" y="974" on="1"/>
      </contour>
    </TTGlyph>
    <TTGlyph name="c" xMin="100" yMin="-4" xMax="920" yMax="1131">
      <contour>
        <pt x="558" y="-4" on="1"/>
        <pt x="498" y="11" on="0"/>
        <pt x="416" y="54" on="1"/>
        <pt x="335" y="97" on="0"/>
        <pt x="266" y="163" on="1"/>
        <pt x="178" y="248" on="0"/>
        <pt x="143" y="348" on="1"/>
        <pt x="100" y="452" on="0"/>
        <pt x="100" y="562" on="1"/>
        <pt x="111" y="700" on="0"/>
        <pt x="149" y="783" on="1"/>
        <pt x="187" y="870" on="0"/>
        <pt x="248" y="938" on="1"/>
        <pt x="274" y="967" on="0"/>
        <pt x="308" y="992" on="1"/>
        <pt x="520" y="1131" on="1"/>
        <pt x="569" y="1118" on="0"/>
        <pt x="663" y="1070" on="1"/>
        <pt x="733" y="1034" on="0"/>
        <pt x="812" y="962" on="1"/>
        <pt x="836" y="940" on="0"/>
        <pt x="877" y="883" on="1"/>
        <pt x="716" y="774" on="1"/>
        <pt x="667" y="852" on="0"/>
        <pt x="604" y="896" on="1"/>
        <pt x="532" y="946" on="0"/>
        <pt x="314" y="984" on="1"/>
        <pt x="313" y="983" on="1"/>
        <pt x="284" y="929" on="0"/>
        <pt x="251" y="802" on="1"/>
        <pt x="227" y="711" on="0"/>
        <pt x="227" y="632" on="1"/>
        <pt x="227" y="600" on="0"/>
        <pt x="232" y="567" on="1"/>
        <pt x="245" y="480" on="0"/>
        <pt x="306" y="388" on="1"/>
        <pt x="369" y="293" on="0"/>
        <pt x="479" y="243" on="1"/>
        <pt x="582" y="196" on="0"/>
        <pt x="774" y="152" on="1"/>
        <pt x="775" y="153" on="1"/>
        <pt x="791" y="178" on="0"/>
        <pt x="791" y="240" on="1"/>
        <pt x="791" y="279" on="0"/>
        <pt x="778" y="342" on="1"/>
        <pt x="920" y="286" on="1"/>
        <pt x="893" y="225" on="0"/>
        <pt x="832" y="176" on="1"/>
        <pt x="786" y="139" on="0"/>
        <pt x="786" y="138" on="1"/>
      </contour>
    </TTGlyph>
    <TTGlyph name="cacute" xMin="100" yMin="-4" xMax="920" yMax="1512">
      <component glyphName="c" x="0" y="0" flags="0x204"/>
      <component glyphName="acute" x="263" y="0" flags="0x4"/>
    </TTGlyph>
    <TTGlyph name="caron" xMin="150" yMin="1123" xMax="847" yMax="1507">
      <contour>
        <pt x="697" y="1344" on="1"/>
        <pt x="649" y="1295" on="0"/>
        <pt x="625" y="1233" on="1"/>
        <pt x="620" y="1216" on="1"/>
        <pt x="549" y="1204" on="0"/>
        <pt x="495" y="1173" on="1"/>
        <pt x="406" y="1123" on="1"/>
        <pt x="401" y="1140" on="1"/>
        <pt x="384" y="1193" on="0"/>
        <pt x="341" y="1259" on="1"/>
        <pt x="326" y="1282" on="0"/>
        <pt x="315" y="1292" on="1"/>
        <pt x="267" y="1337" on="0"/>
        <pt x="217" y="1370" on="1"/>
        <pt x="150" y="1413" on="1"/>
        <pt x="248" y="1432" on="0"/>
        <pt x="362" y="1507" on="1"/>
        <pt x="367" y="1496" on="1"/>
        <pt x="405" y="1404" on="0"/>
        <pt x="423" y="1379" on="1"/>
        <pt x="447" y="1346" on="0"/>
        <pt x="455" y="1337" on="1"/>
        <pt x="478" y="1312" on="0"/>
        <pt x="506" y="1289" on="1"/>
        <pt x="538" y="1303" on="0"/>
        <pt x="576" y="1329" on="1"/>
        <pt x="608" y="1351" on="0"/>
        <pt x="663" y="1406" on="1"/>
        <pt x="682" y="1425" on="0"/>
        <pt x="697" y="1449" on="1"/>
        <pt x="718" y="1480" on="0"/>
        <pt x="729" y="1507" on="1"/>
        <pt x="769" y="1450" on="0"/>
        <pt x="847" y="1437" on="1"/>
        <pt x="737" y="1384" on="0"/>
      </contour>
    </TTGlyph>
    <TTGlyph name="ccaron" xMin="100" yMin="-4" xMax="920" yMax="1507">
      <component glyphName="c" x="0" y="0" flags="0x204"/>
      <component glyphName="caron" x="30" y="0" flags="0x4"/>
    </TTGlyph>
    <TTGlyph name="ccedilla" xMin="100" yMin="-430" xMax="920" yMax="1131">
      <contour>
        <pt x="514" y="10" on="1"/>
        <pt x="469" y="26" on="0"/>
        <pt x="416" y="54" on="1"/>
        <pt x="335" y="97" on="0"/>
        <pt x="266" y="163" on="1"/>
        <pt x="178" y="248" on="0"/>
        <pt x="143" y="348" on="1"/>
        <pt x="100" y="452" on="0"/>
        <pt x="100" y="558" on="1"/>
        <pt x="113" y="701" on="0"/>
        <pt x="149" y="783" on="1"/>
        <pt x="187" y="870" on="0"/>
        <pt x="248" y="938" on="1"/>
        <pt x="274" y="967" on="0"/>
        <pt x="308" y="992" on="1"/>
        <pt x="520" y="1131" on="1"/>
        <pt x="569" y="1118" on="0"/>
        <pt x="663" y="1070" on="1"/>
        <pt x="733" y="1034" on="0"/>
        <pt x="812" y="962" on="1"/>
        <pt x="836" y="940" on="0"/>
        <pt x="877" y="883" on="1"/>
        <pt x="716" y="774" on="1"/>
        <pt x="667" y="852" on="0"/>
        <pt x="604" y="896" on="1"/>
        <pt x="532" y="946" on="0"/>
        <pt x="314" y="984" on="1"/>
        <pt x="313" y="983" on="1"/>
        <pt x="284" y="930" on="0"/>
        <pt x="251" y="802" on="1"/>
        <pt x="227" y="710" on="0"/>
        <pt x="227" y="632" on="1"/>
        <pt x="227" y="600" on="0"/>
        <pt x="232" y="567" on="1"/>
        <pt x="245" y="480" on="0"/>
        <pt x="306" y="388" on="1"/>
        <pt x="369" y="293" on="0"/>
        <pt x="479" y="243" on="1"/>
        <pt x="582" y="196" on="0"/>
        <pt x="774" y="152" on="1"/>
        <pt x="775" y="153" on="1"/>
        <pt x="791" y="178" on="0"/>
        <pt x="791" y="240" on="1"/>
        <pt x="791" y="279" on="0"/>
        <pt x="778" y="342" on="1"/>
        <pt x="920" y="286" on="1"/>
        <pt x="893" y="225" on="0"/>
        <pt x="832" y="176" on="1"/>
        <pt x="786" y="139" on="0"/>
        <pt x="786" y="138" on="1"/>
        <pt x="606" y="26" on="1"/>
        <pt x="739" y="-36" on="0"/>
        <pt x="739" y="-166" on="1"/>
        <pt x="739" y="-289" on="0"/>
        <pt x="644" y="-346" on="1"/>
        <pt x="630" y="-351" on="1"/>
        <pt x="508" y="-359" on="0"/>
        <pt x="385" y="-427" on="1"/>
        <pt x="378" y="-430" on="1"/>
        <pt x="561" y="-265" on="0"/>
        <pt x="561" y="-148" on="1"/>
        <pt x="561" y="-141" on="1"/>
        <pt x="560" y="-71" on="0"/>
      </contour>
    </TTGlyph>
    <TTGlyph name="ccircumflex" xMin="100" yMin="-4" xMax="920" yMax="1509">
      <component glyphName="c" x="0" y="0" flags="0x204"/>
      <component glyphName="circumflex" x="29" y="0" flags="0x4"/>
    </TTGlyph>
    <TTGlyph name="cdotaccent" xMin="100" yMin="-4" xMax="920" yMax="1584">
      <component glyphName="c" x="0" y="0" flags="0x204"/>
      <component glyphName="dotaccent" x="240" y="0" flags="0x4"/>
    </TTGlyph>
    <TTGlyph name="cedilla" xMin="150" yMin="-428" xMax="511" yMax="66">
      <contour>
        <pt x="250" y="66" on="1"/>
        <pt x="511" y="18" on="0"/>
        <pt x="511" y="-164" on="1"/>
        <pt x="511" y="-287" on="0"/>
        <pt x="416" y="-344" on="1"/>
        <pt x="402" y="-349" on="1"/>
        <pt x="282" y="-356" on="0"/>
        <pt x="150" y="-428" on="1"/>
        <pt x="333" y="-263" on="0"/>
        <pt x="333" y="-139" on="1"/>
        <pt x="331" y="-45" on="0"/>
      </contour>
    </TTGlyph>
    <TTGlyph name="cent" xMin="100" yMin="-206" xMax="920" yMax="1305">
      <contour>
        <pt x="406" y="-206" on="1"/>
        <pt x="414" y="-146" on="0"/>
        <pt x="429" y="-20" on="0"/>
        <pt x="434" y="46" on="1"/>
        <pt x="416" y="54" on="1"/>
        <pt x="382" y="69" on="0"/>
        <pt x="300" y="129" on="0"/>
        <pt x="223" y="208" on="0"/>
        <pt x="159" y="301" on="0"/>
        <pt x="143" y="348" on="1"/>
        <pt x="100" y="450" on="0"/>
        <pt x="100" y="558" on="1"/>
        <pt x="108" y="646" on="0"/>
        <pt x="142" y="777" on="0"/>
        <pt x="193" y="874" on="0"/>
        <pt x="263" y="957" on="0"/>
        <pt x="308" y="992" on="1"/>
        <pt x="426" y="1069" on="1"/>
        <pt x="423" y="1103" on="0"/>
        <pt x="416" y="1159" on="0"/>
        <pt x="412" y="1182" on="1"/>
        <pt x="406" y="1216" on="1"/>
        <pt x="467" y="1223" on="0"/>
        <pt x="588" y="1266" on="0"/>
        <pt x="658" y="1305" on="1"/>
        <pt x="650" y="1254" on="0"/>
        <pt x="637" y="1145" on="0"/>
        <pt x="632" y="1086" on="1"/>
        <pt x="663" y="1070" on="1"/>
        <pt x="688" y="1057" on="0"/>
        <pt x="740" y="1026" on="0"/>
        <pt x="793" y="983" on="0"/>
        <pt x="848" y="924" on="0"/>
        <pt x="877" y="883" on="1"/>
        <pt x="716" y="774" on="1"/>
        <pt x="694" y="809" on="0"/>
        <pt x="645" y="865" on="0"/>
        <pt x="619" y="886" on="1"/>
        <pt x="613" y="758" on="0"/>
        <pt x="613" y="617" on="1"/>
        <pt x="613" y="582" on="1"/>
        <pt x="613" y="467" on="0"/>
        <pt x="617" y="272" on="0"/>
        <pt x="621" y="191" on="1"/>
        <pt x="688" y="171" on="0"/>
        <pt x="774" y="152" on="1"/>
        <pt x="791" y="178" on="0"/>
        <pt x="791" y="240" on="1"/>
        <pt x="791" y="281" on="0"/>
        <pt x="778" y="342" on="1"/>
        <pt x="920" y="286" on="1"/>
        <pt x="893" y="225" on="0"/>
        <pt x="832" y="176" on="1"/>
        <pt x="786" y="139" on="0"/>
        <pt x="786" y="138" on="1"/>
        <pt x="633" y="43" on="1"/>
        <pt x="637" y="1" on="0"/>
        <pt x="645" y="-58" on="0"/>
        <pt x="650" y="-78" on="1"/>
        <pt x="658" y="-114" on="1"/>
        <pt x="616" y="-119" on="0"/>
        <pt x="539" y="-140" on="0"/>
        <pt x="474" y="-166" on="0"/>
        <pt x="422" y="-194" on="0"/>
      </contour>
      <contour>
        <pt x="434" y="960" on="1"/>
        <pt x="381" y="972" on="0"/>
        <pt x="314" y="984" on="1"/>
        <pt x="313" y="983" on="1"/>
        <pt x="303" y="963" on="0"/>
        <pt x="273" y="884" on="0"/>
        <pt x="246" y="785" on="0"/>
        <pt x="227" y="678" on="0"/>
        <pt x="227" y="632" on="1"/>
        <pt x="227" y="591" on="0"/>
        <pt x="249" y="490" on="0"/>
        <pt x="301" y="388" on="0"/>
        <pt x="384" y="295" on="0"/>
        <pt x="446" y="261" on="1"/>
        <pt x="449" y="360" on="0"/>
        <pt x="449" y="466" on="1"/>
        <pt x="449" y="614" on="0"/>
        <pt x="440" y="865" on="0"/>
      </contour>
    </TTGlyph>
    <TTGlyph name="circumflex" xMin="150" yMin="1125" xMax="847" yMax="1509">
      <contour>
        <pt x="300" y="1288" on="1"/>
        <pt x="348" y="1337" on="0"/>
        <pt x="372" y="1399" on="1"/>
        <pt x="377" y="1416" on="1"/>
        <pt x="448" y="1428" on="0"/>
        <pt x="502" y="1459" on="1"/>
        <pt x="591" y="1509" on="1"/>
        <pt x="596" y="1492" on="1"/>
        <pt x="613" y="1439" on="0"/>
        <pt x="656" y="1373" on="1"/>
        <pt x="671" y="1350" on="0"/>
        <pt x="682" y="1340" on="1"/>
        <pt x="730" y="1295" on="0"/>
        <pt x="780" y="1262" on="1"/>
        <pt x="847" y="1219" on="1"/>
        <pt x="712" y="1182" on="0"/>
        <pt x="635" y="1125" on="1"/>
        <pt x="592" y="1228" on="0"/>
        <pt x="574" y="1253" on="1"/>
        <pt x="550" y="1286" on="0"/>
        <pt x="542" y="1295" on="1"/>
        <pt x="519" y="1320" on="0"/>
        <pt x="491" y="1343" on="1"/>
        <pt x="459" y="1329" on="0"/>
        <pt x="421" y="1303" on="1"/>
        <pt x="389" y="1281" on="0"/>
        <pt x="334" y="1226" on="1"/>
        <pt x="315" y="1207" on="0"/>
        <pt x="300" y="1183" on="1"/>
        <pt x="279" y="1152" on="0"/>
        <pt x="268" y="1125" on="1"/>
        <pt x="228" y="1182" on="0"/>
        <pt x="150" y="1195" on="1"/>
        <pt x="260" y="1248" on="0"/>
      </contour>
    </TTGlyph>
    <TTGlyph name="colon" xMin="150" yMin="-66" xMax="424" yMax="884">
      <contour>
        <pt x="408" y="721" on="1"/>
        <pt x="408" y="693" on="0"/>
        <pt x="413" y="626" on="0"/>
        <pt x="418" y="586" on="1"/>
        <pt x="377" y="581" on="0"/>
        <pt x="296" y="560" on="0"/>
        <pt x="225" y="533" on="0"/>
        <pt x="168" y="503" on="0"/>
        <pt x="150" y="490" on="1"/>
        <pt x="169" y="572" on="0"/>
        <pt x="169" y="662" on="1"/>
        <pt x="169" y="689" on="0"/>
        <pt x="166" y="743" on="0"/>
        <pt x="156" y="791" on="1"/>
        <pt x="285" y="804" on="0"/>
        <pt x="424" y="884" on="1"/>
        <pt x="408" y="827" on="0"/>
      </contour>
      <contour>
        <pt x="408" y="165" on="1"/>
        <pt x="408" y="137" on="0"/>
        <pt x="413" y="70" on="0"/>
        <pt x="418" y="30" on="1"/>
        <pt x="377" y="25" on="0"/>
        <pt x="296" y="4" on="0"/>
        <pt x="225" y="-23" on="0"/>
        <pt x="168" y="-53" on="0"/>
        <pt x="150" y="-66" on="1"/>
        <pt x="169" y="16" on="0"/>
        <pt x="169" y="106" on="1"/>
        <pt x="169" y="133" on="0"/>
        <pt x="166" y="187" on="0"/>
        <pt x="156" y="235" on="1"/>
        <pt x="285" y="248" on="0"/>
        <pt x="424" y="328" on="1"/>
        <pt x="408" y="271" on="0"/>
      </contour>
    </TTGlyph>
    <TTGlyph name="comma" xMin="0" yMin="-311" xMax="545" yMax="280">
      <contour>
        <pt x="0" y="-267" on="1"/>
        <pt x="66" y="-241" on="0"/>
        <pt x="186" y="7" on="1"/>
        <pt x="268" y="178" on="0"/>
        <pt x="281" y="280" on="1"/>
        <pt x="296" y="272" on="0"/>
        <pt x="343" y="256" on="0"/>
        <pt x="403" y="241" on="0"/>
        <pt x="473" y="232" on="0"/>
        <pt x="510" y="232" on="1"/>
        <pt x="545" y="233" on="1"/>
        <pt x="503" y="197" on="0"/>
        <pt x="365" y="-7" on="1"/>
        <pt x="291" y="-156" on="0"/>
        <pt x="264" y="-311" on="1"/>
        <pt x="146" y="-268" on="0"/>
        <pt x="28" y="-266" on="1"/>
      </contour>
    </TTGlyph>
    <TTGlyph name="commaaccent" xMin="150" yMin="-387" xMax="620" yMax="-3">
      <contour>
        <pt x="150" y="-294" on="1"/>
        <pt x="189" y="-278" on="0"/>
        <pt x="226" y="-251" on="1"/>
        <pt x="278" y="-213" on="0"/>
        <pt x="315" y="-173" on="1"/>
        <pt x="324" y="-163" on="0"/>
        <pt x="347" y="-131" on="1"/>
        <pt x="365" y="-106" on="0"/>
        <pt x="408" y="-3" on="1"/>
        <pt x="485" y="-60" on="0"/>
        <pt x="620" y="-97" on="1"/>
        <pt x="553" y="-140" on="1"/>
        <pt x="503" y="-173" on="0"/>
        <pt x="455" y="-218" on="1"/>
        <pt x="444" y="-228" on="0"/>
        <pt x="429" y="-251" on="1"/>
        <pt x="386" y="-316" on="0"/>
        <pt x="369" y="-370" on="1"/>
        <pt x="364" y="-386" on="0"/>
        <pt x="364" y="-387" on="1"/>
        <pt x="275" y="-337" on="1"/>
        <pt x="222" y="-306" on="0"/>
      </contour>
    </TTGlyph>
    <TTGlyph name="copyright" xMin="80" yMin="180" xMax="1181" yMax="1331">
      <contour>
        <pt x="631" y="1331" on="1"/>
        <pt x="692" y="1331" on="0"/>
        <pt x="822" y="1298" on="0"/>
        <pt x="944" y="1233" on="0"/>
        <pt x="1052" y="1136" on="0"/>
        <pt x="1134" y="1007" on="0"/>
        <pt x="1181" y="848" on="0"/>
        <pt x="1181" y="754" on="1"/>
        <pt x="1181" y="693" on="0"/>
        <pt x="1151" y="560" on="0"/>
        <pt x="1091" y="433" on="0"/>
        <pt x="1000" y="318" on="0"/>
        <pt x="877" y="231" on="0"/>
        <pt x="724" y="180" on="0"/>
        <pt x="631" y="180" on="1"/>
        <pt x="522" y="180" on="0"/>
        <pt x="326" y="262" on="0"/>
        <pt x="241" y="350" on="1"/>
        <pt x="80" y="517" on="0"/>
        <pt x="80" y="754" on="1"/>
        <pt x="80" y="994" on="0"/>
        <pt x="241" y="1161" on="1"/>
        <pt x="403" y="1331" on="0"/>
      </contour>
      <contour>
        <pt x="631" y="1251" on="1"/>
        <pt x="532" y="1251" on="0"/>
        <pt x="368" y="1180" on="0"/>
        <pt x="296" y="1105" on="1"/>
        <pt x="226" y="1032" on="0"/>
        <pt x="154" y="856" on="0"/>
        <pt x="154" y="759" on="1"/>
        <pt x="154" y="673" on="0"/>
        <pt x="215" y="499" on="0"/>
        <pt x="336" y="353" on="0"/>
        <pt x="514" y="259" on="0"/>
        <pt x="631" y="259" on="1"/>
        <pt x="726" y="259" on="0"/>
        <pt x="895" y="331" on="0"/>
        <pt x="967" y="406" on="1"/>
        <pt x="1106" y="551" on="0"/>
        <pt x="1106" y="754" on="1"/>
        <pt x="1106" y="844" on="0"/>
        <pt x="1041" y="1022" on="0"/>
        <pt x="919" y="1163" on="0"/>
        <pt x="743" y="1251" on="0"/>
      </contour>
      <contour>
        <pt x="527" y="414" on="1"/>
        <pt x="412" y="461" on="0"/>
        <pt x="276" y="630" on="0"/>
        <pt x="270" y="747" on="1"/>
        <pt x="269" y="790" on="0"/>
        <pt x="295" y="872" on="0"/>
        <pt x="341" y="949" on="0"/>
        <pt x="404" y="1015" on="0"/>
        <pt x="441" y="1038" on="1"/>
        <pt x="618" y="1128" on="1"/>
        <pt x="639" y="1124" on="0"/>
        <pt x="708" y="1100" on="0"/>
        <pt x="789" y="1060" on="0"/>
        <pt x="872" y="1003" on="0"/>
        <pt x="920" y="951" on="1"/>
        <pt x="765" y="866" on="1"/>
        <pt x="737" y="904" on="0"/>
        <pt x="698" y="942" on="0"/>
        <pt x="635" y="970" on="0"/>
        <pt x="538" y="992" on="0"/>
        <pt x="460" y="1003" on="1"/>
        <pt x="451" y="987" on="0"/>
        <pt x="429" y="936" on="0"/>
        <pt x="411" y="878" on="0"/>
        <pt x="399" y="819" on="0"/>
        <pt x="399" y="796" on="1"/>
        <pt x="399" y="766" on="0"/>
        <pt x="420" y="700" on="0"/>
        <pt x="465" y="637" on="0"/>
        <pt x="537" y="581" on="0"/>
        <pt x="588" y="562" on="1"/>
        <pt x="626" y="548" on="0"/>
        <pt x="735" y="520" on="0"/>
        <pt x="808" y="506" on="1"/>
        <pt x="814" y="532" on="1"/>
        <pt x="815" y="548" on="0"/>
        <pt x="808" y="585" on="0"/>
        <pt x="797" y="633" on="1"/>
        <pt x="952" y="584" on="1"/>
        <pt x="921" y="527" on="0"/>
        <pt x="869" y="492" on="1"/>
        <pt x="838" y="471" on="1"/>
        <pt x="646" y="375" on="1"/>
        <pt x="605" y="382" on="0"/>
      </contour>
    </TTGlyph>
    <TTGlyph name="currency" xMin="150" yMin="186" xMax="1413" yMax="1356">
      <contour>
        <pt x="798" y="302" on="1"/>
        <pt x="746" y="312" on="0"/>
        <pt x="613" y="364" on="0"/>
        <pt x="552" y="403" on="1"/>
        <pt x="489" y="340" on="0"/>
        <pt x="404" y="235" on="0"/>
        <pt x="382" y="192" on="1"/>
        <pt x="349" y="226" on="0"/>
        <pt x="232" y="301" on="0"/>
        <pt x="150" y="327" on="1"/>
        <pt x="202" y="346" on="0"/>
        <pt x="401" y="490" on="1"/>
        <pt x="424" y="513" on="1"/>
        <pt x="379" y="566" on="0"/>
        <pt x="333" y="699" on="0"/>
        <pt x="334" y="763" on="1"/>
        <pt x="340" y="818" on="0"/>
        <pt x="363" y="902" on="0"/>
        <pt x="395" y="966" on="0"/>
        <pt x="431" y="1014" on="0"/>
        <pt x="449" y="1034" on="1"/>
        <pt x="428" y="1055" on="1"/>
        <pt x="229" y="1199" on="0"/>
        <pt x="177" y="1218" on="1"/>
        <pt x="219" y="1231" on="0"/>
        <pt x="292" y="1265" on="0"/>
        <pt x="350" y="1301" on="0"/>
        <pt x="395" y="1338" on="0"/>
        <pt x="409" y="1353" on="1"/>
        <pt x="455" y="1265" on="0"/>
        <pt x="586" y="1135" on="1"/>
        <pt x="760" y="1227" on="1"/>
        <pt x="818" y="1212" on="0"/>
        <pt x="877" y="1191" on="0"/>
        <pt x="944" y="1161" on="0"/>
        <pt x="977" y="1141" on="1"/>
        <pt x="1105" y="1269" on="0"/>
        <pt x="1151" y="1356" on="1"/>
        <pt x="1165" y="1341" on="0"/>
        <pt x="1211" y="1304" on="0"/>
        <pt x="1271" y="1267" on="0"/>
        <pt x="1342" y="1233" on="0"/>
        <pt x="1383" y="1221" on="1"/>
        <pt x="1357" y="1211" on="0"/>
        <pt x="1232" y="1130" on="0"/>
        <pt x="1132" y="1058" on="1"/>
        <pt x="1112" y="1038" on="1"/>
        <pt x="1142" y="1006" on="0"/>
        <pt x="1183" y="935" on="0"/>
        <pt x="1210" y="863" on="0"/>
        <pt x="1222" y="794" on="0"/>
        <pt x="1223" y="760" on="1"/>
        <pt x="1223" y="687" on="0"/>
        <pt x="1173" y="564" on="0"/>
        <pt x="1134" y="512" on="1"/>
        <pt x="1162" y="484" on="1"/>
        <pt x="1361" y="340" on="0"/>
        <pt x="1413" y="321" on="1"/>
        <pt x="1371" y="308" on="0"/>
        <pt x="1298" y="274" on="0"/>
        <pt x="1240" y="238" on="0"/>
        <pt x="1195" y="201" on="0"/>
        <pt x="1181" y="186" on="1"/>
        <pt x="1136" y="274" on="0"/>
        <pt x="1004" y="405" on="1"/>
      </contour>
      <contour>
        <pt x="540" y="1052" on="1"/>
        <pt x="529" y="1038" on="0"/>
        <pt x="498" y="985" on="0"/>
        <pt x="470" y="916" on="0"/>
        <pt x="449" y="837" on="0"/>
        <pt x="449" y="797" on="1"/>
        <pt x="449" y="762" on="0"/>
        <pt x="483" y="684" on="0"/>
        <pt x="551" y="611" on="0"/>
        <pt x="650" y="548" on="0"/>
        <pt x="715" y="529" on="1"/>
        <pt x="769" y="512" on="0"/>
        <pt x="924" y="481" on="0"/>
        <pt x="1027" y="465" on="1"/>
        <pt x="1037" y="477" on="0"/>
        <pt x="1064" y="535" on="0"/>
        <pt x="1091" y="607" on="0"/>
        <pt x="1110" y="684" on="0"/>
        <pt x="1110" y="717" on="1"/>
        <pt x="1110" y="740" on="0"/>
        <pt x="1097" y="800" on="0"/>
        <pt x="1056" y="861" on="0"/>
        <pt x="980" y="930" on="0"/>
        <pt x="854" y="989" on="0"/>
        <pt x="669" y="1037" on="0"/>
      </contour>
    </TTGlyph>
    <TTGlyph name="d" xMin="100" yMin="0" xMax="993" yMax="1511">
      <contour>
        <pt x="782" y="683" on="1"/>
        <pt x="732" y="818" on="0"/>
        <pt x="604" y="900" on="1"/>
        <pt x="523" y="952" on="0"/>
        <pt x="314" y="988" on="1"/>
        <pt x="313" y="987" on="1"/>
        <pt x="285" y="934" on="0"/>
        <pt x="251" y="806" on="1"/>
        <pt x="227" y="716" on="0"/>
        <pt x="227" y="636" on="1"/>
        <pt x="227" y="604" on="0"/>
        <pt x="232" y="571" on="1"/>
        <pt x="245" y="486" on="0"/>
        <pt x="306" y="392" on="1"/>
        <pt x="366" y="299" on="0"/>
        <pt x="479" y="247" on="1"/>
        <pt x="578" y="201" on="0"/>
        <pt x="761" y="159" on="1"/>
        <pt x="783" y="365" on="0"/>
        <pt x="785" y="622" on="1"/>
        <pt x="784" y="653" on="0"/>
      </contour>
      <contour>
        <pt x="993" y="1511" on="1"/>
        <pt x="950" y="1211" on="0"/>
        <pt x="950" y="839" on="1"/>
        <pt x="950" y="802" on="0"/>
        <pt x="951" y="731" on="1"/>
        <pt x="957" y="306" on="0"/>
        <pt x="987" y="123" on="1"/>
        <pt x="993" y="89" on="1"/>
        <pt x="872" y="75" on="0"/>
        <pt x="748" y="4" on="1"/>
        <pt x="741" y="0" on="1"/>
        <pt x="750" y="60" on="0"/>
        <pt x="758" y="125" on="1"/>
        <pt x="558" y="0" on="1"/>
        <pt x="499" y="15" on="0"/>
        <pt x="416" y="58" on="1"/>
        <pt x="322" y="107" on="0"/>
        <pt x="266" y="167" on="1"/>
        <pt x="186" y="253" on="0"/>
        <pt x="143" y="352" on="1"/>
        <pt x="100" y="442" on="0"/>
        <pt x="100" y="562" on="1"/>
        <pt x="100" y="566" on="0"/>
        <pt x="100" y="566" on="1"/>
        <pt x="105" y="682" on="0"/>
        <pt x="149" y="787" on="1"/>
        <pt x="180" y="861" on="0"/>
        <pt x="248" y="942" on="1"/>
        <pt x="269" y="967" on="0"/>
        <pt x="308" y="996" on="1"/>
        <pt x="520" y="1130" on="1"/>
        <pt x="578" y="1119" on="0"/>
        <pt x="663" y="1074" on="1"/>
        <pt x="718" y="1045" on="0"/>
        <pt x="778" y="996" on="1"/>
        <pt x="770" y="1186" on="0"/>
        <pt x="747" y="1388" on="1"/>
        <pt x="743" y="1407" on="1"/>
        <pt x="741" y="1419" on="1"/>
        <pt x="741" y="1422" on="1"/>
        <pt x="861" y="1436" on="0"/>
        <pt x="986" y="1507" on="1"/>
      </contour>
    </TTGlyph>
</ttFont>
